<?xml version="1.0" encoding="UTF-8" standalone="no"?><svg xmlns="http://www.w3.org/2000/svg" xmlns:xlink="http://www.w3.org/1999/xlink" contentScriptType="application/ecmascript" contentStyleType="text/css" height="746px" preserveAspectRatio="none" style="width:1598px;height:746px;background:#EFF1F3;" version="1.1" viewBox="0 0 1598 746" width="1598px" zoomAndPan="magnify"><defs/><g><rect fill="#323232" height="26.1328" rx="7.5" ry="7.5" style="stroke:#323232;stroke-width:0.0;" width="274" x="621.75" y="10"/><text fill="#FFFFFF" font-family="sans-serif" font-size="12" lengthAdjust="spacing" textLength="262" x="627.75" y="27.6016">DDIA Chapter.1 - 可靠性、可伸縮性與可維護性</text><line style="stroke:#323232;stroke-width:1.5;" x1="758.75" x2="758.75" y1="36.1328" y2="56.1328"/><line style="stroke:#323232;stroke-width:1.5;" x1="40" x2="40" y1="56.1328" y2="76.1328"/><rect fill="#D3548A" height="26.1328" rx="7.5" ry="7.5" style="stroke:#D3548A;stroke-width:0.0;" width="60" x="10" y="76.1328"/><text fill="#FFFFFF" font-family="sans-serif" font-size="12" lengthAdjust="spacing" textLength="48" x="16" y="93.7344">任務類型</text><line style="stroke:#323232;stroke-width:1.5;" x1="40" x2="50" y1="117.332" y2="117.332"/><rect fill="#EFF1F3" height="26.1328" rx="7.5" ry="7.5" style="stroke:#A80036;stroke-width:0.0;" width="160" x="50" y="104.2656"/><text fill="#333333" font-family="sans-serif" font-size="12" lengthAdjust="spacing" textLength="148" x="56" y="121.8672">計算密集型(CPU-Intensive)</text><line style="stroke:#323232;stroke-width:1.5;" x1="40" x2="50" y1="145.4648" y2="145.4648"/><rect fill="#EFF1F3" height="26.1328" rx="7.5" ry="7.5" style="stroke:#A80036;stroke-width:0.0;" width="143" x="50" y="132.3984"/><text fill="#333333" font-family="sans-serif" font-size="12" lengthAdjust="spacing" textLength="131" x="56" y="150">I/O密集型(IO-Intensive)</text><line style="stroke:#323232;stroke-width:1.5;" x1="40" x2="50" y1="173.5977" y2="173.5977"/><rect fill="#EFF1F3" height="26.1328" rx="7.5" ry="7.5" style="stroke:#A80036;stroke-width:0.0;" width="164" x="50" y="160.5313"/><text fill="#333333" font-family="sans-serif" font-size="12" lengthAdjust="spacing" textLength="152" x="56" y="178.1328">資料密集型(Data-Intensive)</text><line style="stroke:#323232;stroke-width:1.5;" x1="40" x2="40" y1="102.2656" y2="173.5977"/><line style="stroke:#323232;stroke-width:1.5;" x1="303.5" x2="303.5" y1="56.1328" y2="76.1328"/><rect fill="#F4B031" height="26.1328" rx="7.5" ry="7.5" style="stroke:#F4B031;stroke-width:0.0;" width="139" x="234" y="76.1328"/><text fill="#FFFFFF" font-family="sans-serif" font-size="12" lengthAdjust="spacing" textLength="127" x="240" y="93.7344">資料系統(Data System)</text><line style="stroke:#323232;stroke-width:1.5;" x1="303.5" x2="313.5" y1="117.332" y2="117.332"/><rect fill="#EFF1F3" height="26.1328" rx="7.5" ry="7.5" style="stroke:#A80036;stroke-width:0.0;" width="111" x="313.5" y="104.2656"/><text fill="#333333" font-family="sans-serif" font-size="12" lengthAdjust="spacing" textLength="99" x="319.5" y="121.8672">資料庫(Database)</text><line style="stroke:#323232;stroke-width:1.5;" x1="303.5" x2="313.5" y1="145.4648" y2="145.4648"/><rect fill="#EFF1F3" height="26.1328" rx="7.5" ry="7.5" style="stroke:#A80036;stroke-width:0.0;" width="79" x="313.5" y="132.3984"/><text fill="#333333" font-family="sans-serif" font-size="12" lengthAdjust="spacing" textLength="67" x="319.5" y="150">快取(Cache)</text><line style="stroke:#323232;stroke-width:1.5;" x1="303.5" x2="313.5" y1="173.5977" y2="173.5977"/><rect fill="#EFF1F3" height="26.1328" rx="7.5" ry="7.5" style="stroke:#A80036;stroke-width:0.0;" width="155" x="313.5" y="160.5313"/><text fill="#333333" font-family="sans-serif" font-size="12" lengthAdjust="spacing" textLength="143" x="319.5" y="178.1328">搜尋索引(Search Indexes)</text><line style="stroke:#323232;stroke-width:1.5;" x1="303.5" x2="313.5" y1="201.7305" y2="201.7305"/><rect fill="#EFF1F3" height="26.1328" rx="7.5" ry="7.5" style="stroke:#A80036;stroke-width:0.0;" width="173" x="313.5" y="188.6641"/><text fill="#333333" font-family="sans-serif" font-size="12" lengthAdjust="spacing" textLength="161" x="319.5" y="206.2656">串流處理(Stream Processing)</text><line style="stroke:#323232;stroke-width:1.5;" x1="303.5" x2="313.5" y1="229.8633" y2="229.8633"/><rect fill="#EFF1F3" height="26.1328" rx="7.5" ry="7.5" style="stroke:#A80036;stroke-width:0.0;" width="164" x="313.5" y="216.7969"/><text fill="#333333" font-family="sans-serif" font-size="12" lengthAdjust="spacing" textLength="152" x="319.5" y="234.3984">批量處理(Batch Processing)</text><line style="stroke:#323232;stroke-width:1.5;" x1="303.5" x2="303.5" y1="102.2656" y2="229.8633"/><line style="stroke:#323232;stroke-width:1.5;" x1="562" x2="562" y1="56.1328" y2="76.1328"/><rect fill="#BD4231" height="26.1328" rx="7.5" ry="7.5" style="stroke:#BD4231;stroke-width:0.0;" width="111" x="506.5" y="76.1328"/><text fill="#FFFFFF" font-family="sans-serif" font-size="12" lengthAdjust="spacing" textLength="99" x="512.5" y="93.7344">可靠性(Reliability)</text><line style="stroke:#323232;stroke-width:1.5;" x1="562" x2="572" y1="124.3984" y2="124.3984"/><rect fill="#EFF1F3" height="40.2656" rx="7.5" ry="7.5" style="stroke:#A80036;stroke-width:0.0;" width="252" x="572" y="104.2656"/><text fill="#333333" font-family="sans-serif" font-size="12" lengthAdjust="spacing" textLength="240" x="578" y="121.8672">使系統在有限情境中，即使出現問題也能繼續</text><text fill="#333333" font-family="sans-serif" font-size="12" lengthAdjust="spacing" textLength="84" x="578" y="136">正常工作的能力</text><line style="stroke:#323232;stroke-width:1.5;" x1="562" x2="572" y1="159.5977" y2="159.5977"/><rect fill="#EFF1F3" height="26.1328" rx="7.5" ry="7.5" style="stroke:#A80036;stroke-width:0.0;" width="180" x="572" y="146.5313"/><text fill="#333333" font-family="sans-serif" font-size="12" lengthAdjust="spacing" textLength="168" x="578" y="164.1328">比起預防錯誤，更傾向容忍錯誤</text><line style="stroke:#323232;stroke-width:1.5;" x1="562" x2="572" y1="187.7305" y2="187.7305"/><rect fill="#EFF1F3" height="26.1328" rx="7.5" ry="7.5" style="stroke:#A80036;stroke-width:0.0;" width="211" x="572" y="174.6641"/><text fill="#333333" font-family="sans-serif" font-size="12" lengthAdjust="spacing" textLength="199" x="578" y="192.2656">透過 Chaos Monkey 方法提升可靠性</text><line style="stroke:#323232;stroke-width:1.5;" x1="562" x2="572" y1="215.8633" y2="215.8633"/><rect fill="#BD4231" height="26.1328" rx="7.5" ry="7.5" style="stroke:#BD4231;stroke-width:0.0;" width="162" x="572" y="202.7969"/><text fill="#FFFFFF" font-family="sans-serif" font-size="12" lengthAdjust="spacing" textLength="150" x="578" y="220.3984">硬體故障(Hardware Faults)</text><line style="stroke:#323232;stroke-width:1.5;" x1="653" x2="663" y1="251.0625" y2="251.0625"/><rect fill="#EFF1F3" height="40.2656" rx="7.5" ry="7.5" style="stroke:#A80036;stroke-width:0.0;" width="179" x="663" y="230.9297"/><text fill="#333333" font-family="sans-serif" font-size="12" lengthAdjust="spacing" textLength="167" x="669" y="248.5313">增加冗余(Redundancy) 提高單</text><text fill="#333333" font-family="sans-serif" font-size="12" lengthAdjust="spacing" textLength="48" x="669" y="262.6641">機可靠性</text><line style="stroke:#323232;stroke-width:1.5;" x1="653" x2="663" y1="293.3281" y2="293.3281"/><rect fill="#EFF1F3" height="40.2656" rx="7.5" ry="7.5" style="stroke:#A80036;stroke-width:0.0;" width="180" x="663" y="273.1953"/><text fill="#333333" font-family="sans-serif" font-size="12" lengthAdjust="spacing" textLength="168" x="669" y="290.7969">雲端平台透過彈性擴增機器變相</text><text fill="#333333" font-family="sans-serif" font-size="12" lengthAdjust="spacing" textLength="60" x="669" y="304.9297">提高可靠性</text><line style="stroke:#323232;stroke-width:1.5;" x1="653" x2="653" y1="228.9297" y2="293.3281"/><line style="stroke:#323232;stroke-width:1.5;" x1="562" x2="572" y1="328.5273" y2="328.5273"/><rect fill="#BD4231" height="26.1328" rx="7.5" ry="7.5" style="stroke:#BD4231;stroke-width:0.0;" width="156" x="572" y="315.4609"/><text fill="#FFFFFF" font-family="sans-serif" font-size="12" lengthAdjust="spacing" textLength="144" x="578" y="333.0625">軟體錯誤(Software Errors)</text><line style="stroke:#323232;stroke-width:1.5;" x1="650" x2="660" y1="363.7266" y2="363.7266"/><rect fill="#EFF1F3" height="40.2656" rx="7.5" ry="7.5" style="stroke:#A80036;stroke-width:0.0;" width="180" x="660" y="343.5938"/><text fill="#333333" font-family="sans-serif" font-size="12" lengthAdjust="spacing" textLength="168" x="666" y="361.1953">容易產生連鎖性錯誤，導致更多</text><text fill="#333333" font-family="sans-serif" font-size="12" lengthAdjust="spacing" textLength="72" x="666" y="375.3281">系統相繼失效</text><line style="stroke:#323232;stroke-width:1.5;" x1="650" x2="660" y1="405.9922" y2="405.9922"/><rect fill="#EFF1F3" height="40.2656" rx="7.5" ry="7.5" style="stroke:#A80036;stroke-width:0.0;" width="180" x="660" y="385.8594"/><text fill="#333333" font-family="sans-serif" font-size="12" lengthAdjust="spacing" textLength="168" x="666" y="403.4609">並非每次都能捕捉到真正的錯誤</text><text fill="#333333" font-family="sans-serif" font-size="12" lengthAdjust="spacing" textLength="24" x="666" y="417.5938">原因</text><line style="stroke:#323232;stroke-width:1.5;" x1="650" x2="660" y1="448.2578" y2="448.2578"/><rect fill="#EFF1F3" height="40.2656" rx="7.5" ry="7.5" style="stroke:#A80036;stroke-width:0.0;" width="180" x="660" y="428.125"/><text fill="#333333" font-family="sans-serif" font-size="12" lengthAdjust="spacing" textLength="168" x="666" y="445.7266">透過假設與大量測試保證系統的</text><text fill="#333333" font-family="sans-serif" font-size="12" lengthAdjust="spacing" textLength="72" x="666" y="459.8594">安全工作範圍</text><line style="stroke:#323232;stroke-width:1.5;" x1="650" x2="660" y1="483.457" y2="483.457"/><rect fill="#EFF1F3" height="26.1328" rx="7.5" ry="7.5" style="stroke:#A80036;stroke-width:0.0;" width="163" x="660" y="470.3906"/><text fill="#333333" font-family="sans-serif" font-size="12" lengthAdjust="spacing" textLength="151" x="666" y="487.9922">程序隔離(Process Isolation)</text><line style="stroke:#323232;stroke-width:1.5;" x1="650" x2="660" y1="511.5898" y2="511.5898"/><rect fill="#EFF1F3" height="26.1328" rx="7.5" ry="7.5" style="stroke:#A80036;stroke-width:0.0;" width="144" x="660" y="498.5234"/><text fill="#333333" font-family="sans-serif" font-size="12" lengthAdjust="spacing" textLength="132" x="666" y="516.125">監控並加入錯誤警告機制</text><line style="stroke:#323232;stroke-width:1.5;" x1="650" x2="650" y1="341.5938" y2="511.5898"/><line style="stroke:#323232;stroke-width:1.5;" x1="562" x2="572" y1="539.7227" y2="539.7227"/><rect fill="#BD4231" height="26.1328" rx="7.5" ry="7.5" style="stroke:#BD4231;stroke-width:0.0;" width="148" x="572" y="526.6563"/><text fill="#FFFFFF" font-family="sans-serif" font-size="12" lengthAdjust="spacing" textLength="136" x="578" y="544.2578">人為錯誤(Human Errors)</text><line style="stroke:#323232;stroke-width:1.5;" x1="646" x2="656" y1="567.8555" y2="567.8555"/><rect fill="#EFF1F3" height="26.1328" rx="7.5" ry="7.5" style="stroke:#A80036;stroke-width:0.0;" width="156" x="656" y="554.7891"/><text fill="#333333" font-family="sans-serif" font-size="12" lengthAdjust="spacing" textLength="144" x="662" y="572.3906">正確且友善的使用抽象設計</text><line style="stroke:#323232;stroke-width:1.5;" x1="646" x2="656" y1="603.0547" y2="603.0547"/><rect fill="#EFF1F3" height="40.2656" rx="7.5" ry="7.5" style="stroke:#A80036;stroke-width:0.0;" width="180" x="656" y="582.9219"/><text fill="#333333" font-family="sans-serif" font-size="12" lengthAdjust="spacing" textLength="168" x="662" y="600.5234">設計上適時加入解耦，讓開發者</text><text fill="#333333" font-family="sans-serif" font-size="12" lengthAdjust="spacing" textLength="144" x="662" y="614.6563">可以使用真實資料進行測試</text><line style="stroke:#323232;stroke-width:1.5;" x1="646" x2="656" y1="645.3203" y2="645.3203"/><rect fill="#EFF1F3" height="40.2656" rx="7.5" ry="7.5" style="stroke:#A80036;stroke-width:0.0;" width="180" x="656" y="625.1875"/><text fill="#333333" font-family="sans-serif" font-size="12" lengthAdjust="spacing" textLength="168" x="662" y="642.7891">足夠的單元測試、整合測試與手</text><text fill="#333333" font-family="sans-serif" font-size="12" lengthAdjust="spacing" textLength="84" x="662" y="656.9219">動、自動化測試</text><line style="stroke:#323232;stroke-width:1.5;" x1="646" x2="656" y1="687.5859" y2="687.5859"/><rect fill="#EFF1F3" height="40.2656" rx="7.5" ry="7.5" style="stroke:#A80036;stroke-width:0.0;" width="168" x="656" y="667.4531"/><text fill="#333333" font-family="sans-serif" font-size="12" lengthAdjust="spacing" textLength="156" x="662" y="685.0547">確保運行失敗時能夠快速回滾</text><text fill="#333333" font-family="sans-serif" font-size="12" lengthAdjust="spacing" textLength="61" x="662" y="699.1875">(Roll back)</text><line style="stroke:#323232;stroke-width:1.5;" x1="646" x2="656" y1="722.7852" y2="722.7852"/><rect fill="#EFF1F3" height="26.1328" rx="7.5" ry="7.5" style="stroke:#A80036;stroke-width:0.0;" width="156" x="656" y="709.7188"/><text fill="#333333" font-family="sans-serif" font-size="12" lengthAdjust="spacing" textLength="144" x="662" y="727.3203">詳細且動機明確的監控機制</text><line style="stroke:#323232;stroke-width:1.5;" x1="646" x2="646" y1="552.7891" y2="722.7852"/><line style="stroke:#323232;stroke-width:1.5;" x1="562" x2="562" y1="102.2656" y2="539.7227"/><line style="stroke:#323232;stroke-width:1.5;" x1="925" x2="925" y1="56.1328" y2="76.1328"/><rect fill="#0F5E8C" height="26.1328" rx="7.5" ry="7.5" style="stroke:#0F5E8C;stroke-width:0.0;" width="124" x="863" y="76.1328"/><text fill="#FFFFFF" font-family="sans-serif" font-size="12" lengthAdjust="spacing" textLength="112" x="869" y="93.7344">可伸縮性(Scalability)</text><line style="stroke:#323232;stroke-width:1.5;" x1="925" x2="935" y1="124.3984" y2="124.3984"/><rect fill="#EFF1F3" height="40.2656" rx="7.5" ry="7.5" style="stroke:#A80036;stroke-width:0.0;" width="252" x="935" y="104.2656"/><text fill="#333333" font-family="sans-serif" font-size="12" lengthAdjust="spacing" textLength="240" x="941" y="121.8672">根據業務場景決定如何擴展服務，才是有意義</text><text fill="#333333" font-family="sans-serif" font-size="12" lengthAdjust="spacing" textLength="36" x="941" y="136">的擴展</text><line style="stroke:#323232;stroke-width:1.5;" x1="925" x2="935" y1="159.5977" y2="159.5977"/><rect fill="#0F5E8C" height="26.1328" rx="7.5" ry="7.5" style="stroke:#0F5E8C;stroke-width:0.0;" width="157" x="935" y="146.5313"/><text fill="#FFFFFF" font-family="sans-serif" font-size="12" lengthAdjust="spacing" textLength="145" x="941" y="164.1328">描述負載(Discribing Load)</text><line style="stroke:#323232;stroke-width:1.5;" x1="1013.5" x2="1023.5" y1="187.7305" y2="187.7305"/><rect fill="#EFF1F3" height="26.1328" rx="7.5" ry="7.5" style="stroke:#A80036;stroke-width:0.0;" width="144" x="1023.5" y="174.6641"/><text fill="#333333" font-family="sans-serif" font-size="12" lengthAdjust="spacing" textLength="132" x="1029.5" y="192.2656">量化生產環境的各項數據</text><line style="stroke:#323232;stroke-width:1.5;" x1="1013.5" x2="1023.5" y1="215.8633" y2="215.8633"/><rect fill="#EFF1F3" height="26.1328" rx="7.5" ry="7.5" style="stroke:#A80036;stroke-width:0.0;" width="185" x="1023.5" y="202.7969"/><text fill="#333333" font-family="sans-serif" font-size="12" lengthAdjust="spacing" textLength="173" x="1029.5" y="220.3984">制定負載引數(Load parameter)</text><line style="stroke:#323232;stroke-width:1.5;" x1="1013.5" x2="1013.5" y1="172.6641" y2="215.8633"/><line style="stroke:#323232;stroke-width:1.5;" x1="925" x2="935" y1="243.9961" y2="243.9961"/><rect fill="#0F5E8C" height="26.1328" rx="7.5" ry="7.5" style="stroke:#0F5E8C;stroke-width:0.0;" width="202" x="935" y="230.9297"/><text fill="#FFFFFF" font-family="sans-serif" font-size="12" lengthAdjust="spacing" textLength="190" x="941" y="248.5313">描述性能(Discribing Performance)</text><line style="stroke:#323232;stroke-width:1.5;" x1="1036" x2="1046" y1="279.1953" y2="279.1953"/><rect fill="#EFF1F3" height="40.2656" rx="7.5" ry="7.5" style="stroke:#A80036;stroke-width:0.0;" width="180" x="1046" y="259.0625"/><text fill="#333333" font-family="sans-serif" font-size="12" lengthAdjust="spacing" textLength="168" x="1052" y="276.6641">提升負載並固定系統資源時對效</text><text fill="#333333" font-family="sans-serif" font-size="12" lengthAdjust="spacing" textLength="84" x="1052" y="290.7969">能造成的影響？</text><line style="stroke:#323232;stroke-width:1.5;" x1="1036" x2="1046" y1="321.4609" y2="321.4609"/><rect fill="#EFF1F3" height="40.2656" rx="7.5" ry="7.5" style="stroke:#A80036;stroke-width:0.0;" width="180" x="1046" y="301.3281"/><text fill="#333333" font-family="sans-serif" font-size="12" lengthAdjust="spacing" textLength="168" x="1052" y="318.9297">提升負載並維持效能時需增加多</text><text fill="#333333" font-family="sans-serif" font-size="12" lengthAdjust="spacing" textLength="84" x="1052" y="333.0625">少的系統資源？</text><line style="stroke:#323232;stroke-width:1.5;" x1="1036" x2="1046" y1="356.6602" y2="356.6602"/><rect fill="#EFF1F3" height="26.1328" rx="7.5" ry="7.5" style="stroke:#A80036;stroke-width:0.0;" width="144" x="1046" y="343.5938"/><text fill="#333333" font-family="sans-serif" font-size="12" lengthAdjust="spacing" textLength="132" x="1052" y="361.1953">決定度量標準與數值分佈</text><line style="stroke:#323232;stroke-width:1.5;" x1="1036" x2="1046" y1="391.8594" y2="391.8594"/><rect fill="#EFF1F3" height="40.2656" rx="7.5" ry="7.5" style="stroke:#A80036;stroke-width:0.0;" width="180" x="1046" y="371.7266"/><text fill="#333333" font-family="sans-serif" font-size="12" lengthAdjust="spacing" textLength="168" x="1052" y="389.3281">測試方式與生產環境流程必須盡</text><text fill="#333333" font-family="sans-serif" font-size="12" lengthAdjust="spacing" textLength="48" x="1052" y="403.4609">可能對齊</text><line style="stroke:#323232;stroke-width:1.5;" x1="1036" x2="1036" y1="257.0625" y2="391.8594"/><line style="stroke:#323232;stroke-width:1.5;" x1="925" x2="935" y1="427.0586" y2="427.0586"/><rect fill="#0F5E8C" height="26.1328" rx="7.5" ry="7.5" style="stroke:#0F5E8C;stroke-width:0.0;" width="96" x="935" y="413.9922"/><text fill="#FFFFFF" font-family="sans-serif" font-size="12" lengthAdjust="spacing" textLength="84" x="941" y="431.5938">對應負載的方法</text><line style="stroke:#323232;stroke-width:1.5;" x1="983" x2="993" y1="455.1914" y2="455.1914"/><rect fill="#EFF1F3" height="26.1328" rx="7.5" ry="7.5" style="stroke:#A80036;stroke-width:0.0;" width="154" x="993" y="442.125"/><text fill="#333333" font-family="sans-serif" font-size="12" lengthAdjust="spacing" textLength="142" x="999" y="459.7266">垂直擴展(Vertical scaling)</text><line style="stroke:#323232;stroke-width:1.5;" x1="983" x2="993" y1="483.3242" y2="483.3242"/><rect fill="#EFF1F3" height="26.1328" rx="7.5" ry="7.5" style="stroke:#A80036;stroke-width:0.0;" width="170" x="993" y="470.2578"/><text fill="#333333" font-family="sans-serif" font-size="12" lengthAdjust="spacing" textLength="158" x="999" y="487.8594">水平擴展(Horizontal scaling)</text><line style="stroke:#323232;stroke-width:1.5;" x1="983" x2="993" y1="511.457" y2="511.457"/><rect fill="#EFF1F3" height="26.1328" rx="7.5" ry="7.5" style="stroke:#A80036;stroke-width:0.0;" width="144" x="993" y="498.3906"/><text fill="#333333" font-family="sans-serif" font-size="12" lengthAdjust="spacing" textLength="132" x="999" y="515.9922">因地制宜，且能與時俱進</text><line style="stroke:#323232;stroke-width:1.5;" x1="983" x2="983" y1="440.125" y2="511.457"/><line style="stroke:#323232;stroke-width:1.5;" x1="925" x2="925" y1="102.2656" y2="427.0586"/><line style="stroke:#323232;stroke-width:1.5;" x1="1321" x2="1321" y1="56.1328" y2="76.1328"/><rect fill="#37A7A8" height="26.1328" rx="7.5" ry="7.5" style="stroke:#37A7A8;stroke-width:0.0;" width="150" x="1246" y="76.1328"/><text fill="#FFFFFF" font-family="sans-serif" font-size="12" lengthAdjust="spacing" textLength="138" x="1252" y="93.7344">可維護性(Maintainability)</text><line style="stroke:#323232;stroke-width:1.5;" x1="1321" x2="1331" y1="117.332" y2="117.332"/><rect fill="#EFF1F3" height="26.1328" rx="7.5" ry="7.5" style="stroke:#A80036;stroke-width:0.0;" width="156" x="1331" y="104.2656"/><text fill="#333333" font-family="sans-serif" font-size="12" lengthAdjust="spacing" textLength="144" x="1337" y="121.8672">使產品能夠持續迭代的能力</text><line style="stroke:#323232;stroke-width:1.5;" x1="1321" x2="1331" y1="145.4648" y2="145.4648"/><rect fill="#37A7A8" height="26.1328" rx="7.5" ry="7.5" style="stroke:#37A7A8;stroke-width:0.0;" width="131" x="1331" y="132.3984"/><text fill="#FFFFFF" font-family="sans-serif" font-size="12" lengthAdjust="spacing" textLength="119" x="1337" y="150">可操作性(Operability)</text><line style="stroke:#323232;stroke-width:1.5;" x1="1396.5" x2="1406.5" y1="173.5977" y2="173.5977"/><rect fill="#EFF1F3" height="26.1328" rx="7.5" ry="7.5" style="stroke:#A80036;stroke-width:0.0;" width="120" x="1406.5" y="160.5313"/><text fill="#333333" font-family="sans-serif" font-size="12" lengthAdjust="spacing" textLength="108" x="1412.5" y="178.1328">關愛維運，人人有責</text><line style="stroke:#323232;stroke-width:1.5;" x1="1396.5" x2="1406.5" y1="201.7305" y2="201.7305"/><rect fill="#EFF1F3" height="26.1328" rx="7.5" ry="7.5" style="stroke:#A80036;stroke-width:0.0;" width="144" x="1406.5" y="188.6641"/><text fill="#333333" font-family="sans-serif" font-size="12" lengthAdjust="spacing" textLength="132" x="1412.5" y="206.2656">提供系統文件與使用範例</text><line style="stroke:#323232;stroke-width:1.5;" x1="1396.5" x2="1406.5" y1="229.8633" y2="229.8633"/><rect fill="#EFF1F3" height="26.1328" rx="7.5" ry="7.5" style="stroke:#A80036;stroke-width:0.0;" width="144" x="1406.5" y="216.7969"/><text fill="#333333" font-family="sans-serif" font-size="12" lengthAdjust="spacing" textLength="132" x="1412.5" y="234.3984">提供彈性的參數設定方式</text><line style="stroke:#323232;stroke-width:1.5;" x1="1396.5" x2="1406.5" y1="257.9961" y2="257.9961"/><rect fill="#EFF1F3" height="26.1328" rx="7.5" ry="7.5" style="stroke:#A80036;stroke-width:0.0;" width="181" x="1406.5" y="244.9297"/><text fill="#333333" font-family="sans-serif" font-size="12" lengthAdjust="spacing" textLength="169" x="1412.5" y="262.5313">提供自定義的監控指標(Metrics)</text><line style="stroke:#323232;stroke-width:1.5;" x1="1396.5" x2="1396.5" y1="158.5313" y2="257.9961"/><line style="stroke:#323232;stroke-width:1.5;" x1="1321" x2="1331" y1="286.1289" y2="286.1289"/><rect fill="#37A7A8" height="26.1328" rx="7.5" ry="7.5" style="stroke:#37A7A8;stroke-width:0.0;" width="109" x="1331" y="273.0625"/><text fill="#FFFFFF" font-family="sans-serif" font-size="12" lengthAdjust="spacing" textLength="97" x="1337" y="290.6641">簡單性(Simplicity)</text><line style="stroke:#323232;stroke-width:1.5;" x1="1385.5" x2="1395.5" y1="314.2617" y2="314.2617"/><rect fill="#EFF1F3" height="26.1328" rx="7.5" ry="7.5" style="stroke:#A80036;stroke-width:0.0;" width="72" x="1395.5" y="301.1953"/><text fill="#333333" font-family="sans-serif" font-size="12" lengthAdjust="spacing" textLength="60" x="1401.5" y="318.7969">控管複雜度</text><line style="stroke:#323232;stroke-width:1.5;" x1="1385.5" x2="1395.5" y1="342.3945" y2="342.3945"/><rect fill="#EFF1F3" height="26.1328" rx="7.5" ry="7.5" style="stroke:#A80036;stroke-width:0.0;" width="108" x="1395.5" y="329.3281"/><text fill="#333333" font-family="sans-serif" font-size="12" lengthAdjust="spacing" textLength="96" x="1401.5" y="346.9297">適度的抽象、解耦</text><line style="stroke:#323232;stroke-width:1.5;" x1="1385.5" x2="1395.5" y1="370.5273" y2="370.5273"/><rect fill="#EFF1F3" height="26.1328" rx="7.5" ry="7.5" style="stroke:#A80036;stroke-width:0.0;" width="168" x="1395.5" y="357.4609"/><text fill="#333333" font-family="sans-serif" font-size="12" lengthAdjust="spacing" textLength="156" x="1401.5" y="375.0625">設計框架時也須考量團隊程度</text><line style="stroke:#323232;stroke-width:1.5;" x1="1385.5" x2="1385.5" y1="299.1953" y2="370.5273"/><line style="stroke:#323232;stroke-width:1.5;" x1="1321" x2="1331" y1="398.6602" y2="398.6602"/><rect fill="#37A7A8" height="26.1328" rx="7.5" ry="7.5" style="stroke:#37A7A8;stroke-width:0.0;" width="131" x="1331" y="385.5938"/><text fill="#FFFFFF" font-family="sans-serif" font-size="12" lengthAdjust="spacing" textLength="119" x="1337" y="403.1953">可演化性(Evolvability)</text><line style="stroke:#323232;stroke-width:1.5;" x1="1396.5" x2="1406.5" y1="426.793" y2="426.793"/><rect fill="#EFF1F3" height="26.1328" rx="7.5" ry="7.5" style="stroke:#A80036;stroke-width:0.0;" width="60" x="1406.5" y="413.7266"/><text fill="#333333" font-family="sans-serif" font-size="12" lengthAdjust="spacing" textLength="48" x="1412.5" y="431.3281">擁抱變化</text><line style="stroke:#323232;stroke-width:1.5;" x1="1396.5" x2="1406.5" y1="461.9922" y2="461.9922"/><rect fill="#EFF1F3" height="40.2656" rx="7.5" ry="7.5" style="stroke:#A80036;stroke-width:0.0;" width="180" x="1406.5" y="441.8594"/><text fill="#333333" font-family="sans-serif" font-size="12" lengthAdjust="spacing" textLength="168" x="1412.5" y="459.4609">測試驅動開發、敏捷開發與定時</text><text fill="#333333" font-family="sans-serif" font-size="12" lengthAdjust="spacing" textLength="24" x="1412.5" y="473.5938">重構</text><line style="stroke:#323232;stroke-width:1.5;" x1="1396.5" x2="1396.5" y1="411.7266" y2="461.9922"/><line style="stroke:#323232;stroke-width:1.5;" x1="1321" x2="1321" y1="102.2656" y2="398.6602"/><line style="stroke:#323232;stroke-width:1.5;" x1="40" x2="1321" y1="56.1328" y2="56.1328"/><!--MD5=[be3119e31a323a1c9008b6d26eaecea1]
@startwbs ddia_ch1_wbs

skinparam Shadowing false
skinparam BackgroundColor #EFF1F3
skinparam linetype ortho

<style>
arrow {
    LineColor #323232
}
node {
    Padding 6
    Margin 2
    RoundCorner 15
    LineThickness 0.0
    BackgroundColor #EFF1F3
    FontColor #333333
}
.Type_Root {
    BackgroundColor #323232
    FontColor #FFFFFF
    LineColor #323232
}
.Type1_Node {
    BackgroundColor #D3548A
    FontColor #FFFFFF
    LineColor #D3548A
}
.Type1_LeafNode {
    RoundCorner 0
    LineThickness 1.0
    LineColor #D3548A
}
.Type2_Node {
    BackgroundColor #F4B031
    FontColor #FFFFFF
    LineColor #F4B031
}
.Type2_LeafNode {
    RoundCorner 0
    LineThickness 1.0
    LineColor #F4B031
}
.Type3_Node {
    BackgroundColor #BD4231
    FontColor #FFFFFF
    LineColor #BD4231
}
.Type3_LeafNode {
    RoundCorner 0
    LineThickness 1.0
    LineColor #BD4231
}
.Type4_Node {
    BackgroundColor #0F5E8C
    FontColor #FFFFFF
    LineColor #0F5E8C
}
.Type4_LeafNode {
    RoundCorner 0
    LineThickness 1.0
    LineColor #0F5E8C
}
.Type5_Node {
    BackgroundColor #37A7A8
    FontColor #FFFFFF
    LineColor #37A7A8
}
.Type5_LeafNode {
    RoundCorner 0
    LineThickness 1.0
    LineColor #37A7A8
}
</style>

* DDIA Chapter.1 - 可靠性、可伸縮性與可維護性<<Type_Root>>

** 任務類型<<Type1_Node>>

*** 計算密集型(CPU-Intensive)
*** I/O密集型(IO-Intensive)
*** 資料密集型(Data-Intensive)

** 資料系統(Data System)<<Type2_Node>>

*** 資料庫(Database)
*** 快取(Cache)
*** 搜尋索引(Search Indexes)
*** 串流處理(Stream Processing)
*** 批量處理(Batch Processing)

** 可靠性(Reliability)<<Type3_Node>>

*** 使系統在有限情境中，即使出現問題也能繼續\n正常工作的能力
*** 比起預防錯誤，更傾向容忍錯誤
*** 透過 Chaos Monkey 方法提升可靠性

*** 硬體故障(Hardware Faults)<<Type3_Node>>
**** 增加冗余(Redundancy) 提高單\n機可靠性
**** 雲端平台透過彈性擴增機器變相\n提高可靠性

*** 軟體錯誤(Software Errors)<<Type3_Node>>
**** 容易產生連鎖性錯誤，導致更多\n系統相繼失效
**** 並非每次都能捕捉到真正的錯誤\n原因
**** 透過假設與大量測試保證系統的\n安全工作範圍
**** 程序隔離(Process Isolation)
**** 監控並加入錯誤警告機制

*** 人為錯誤(Human Errors)<<Type3_Node>>
**** 正確且友善的使用抽象設計
**** 設計上適時加入解耦，讓開發者\n可以使用真實資料進行測試
**** 足夠的單元測試、整合測試與手\n動、自動化測試
**** 確保運行失敗時能夠快速回滾\n(Roll back)
**** 詳細且動機明確的監控機制

** 可伸縮性(Scalability)<<Type4_Node>>

*** 根據業務場景決定如何擴展服務，才是有意義\n的擴展

*** 描述負載(Discribing Load)<<Type4_Node>>
**** 量化生產環境的各項數據
**** 制定負載引數(Load parameter)

*** 描述性能(Discribing Performance)<<Type4_Node>>
**** 提升負載並固定系統資源時對效\n能造成的影響？
**** 提升負載並維持效能時需增加多\n少的系統資源？
**** 決定度量標準與數值分佈
**** 測試方式與生產環境流程必須盡\n可能對齊

*** 對應負載的方法<<Type4_Node>>
**** 垂直擴展(Vertical scaling)
**** 水平擴展(Horizontal scaling)
**** 因地制宜，且能與時俱進

** 可維護性(Maintainability)<<Type5_Node>>

*** 使產品能夠持續迭代的能力

*** 可操作性(Operability)<<Type5_Node>>
**** 關愛維運，人人有責
**** 提供系統文件與使用範例
**** 提供彈性的參數設定方式
**** 提供自定義的監控指標(Metrics)

*** 簡單性(Simplicity)<<Type5_Node>>
**** 控管複雜度
**** 適度的抽象、解耦
**** 設計框架時也須考量團隊程度

*** 可演化性(Evolvability)<<Type5_Node>>
**** 擁抱變化
**** 測試驅動開發、敏捷開發與定時\n重構

@endwbs

PlantUML version 1.2021.00(Sun Jan 10 18:25:05 CST 2021)
(GPL source distribution)
Java Runtime: OpenJDK Runtime Environment
JVM: OpenJDK 64-Bit Server VM
Default Encoding: UTF-8
Language: zh
Country: TW
--></g></svg>