<?xml version="1.0" encoding="UTF-8" standalone="no"?><svg xmlns="http://www.w3.org/2000/svg" xmlns:xlink="http://www.w3.org/1999/xlink" contentScriptType="application/ecmascript" contentStyleType="text/css" height="934px" preserveAspectRatio="none" style="width:1511px;height:934px;background:#EFF1F3;" version="1.1" viewBox="0 0 1511 934" width="1511px" zoomAndPan="magnify"><defs/><g><rect fill="#323232" height="44.9766" rx="7.5" ry="7.5" style="stroke:#323232;stroke-width:0.0;" width="194" x="676" y="443.5684"/><text fill="#FFFFFF" font-family="sans-serif" font-size="14" lengthAdjust="spacing" textLength="118" x="682" y="463.1035">DDIA Chapter.1 -</text><text fill="#FFFFFF" font-family="sans-serif" font-size="14" lengthAdjust="spacing" textLength="182" x="682" y="479.5918">可靠性、可伸縮性與可維護性</text><rect fill="#D3548A" height="28.4883" rx="7.5" ry="7.5" style="stroke:#D3548A;stroke-width:0.0;" width="68" x="904" y="44.4883"/><text fill="#FFFFFF" font-family="sans-serif" font-size="14" lengthAdjust="spacing" textLength="56" x="910" y="64.0234">任務類型</text><rect fill="#EFF1F3" height="28.4883" rx="7.5" ry="7.5" style="stroke:#A80036;stroke-width:0.0;" width="189" x="1006" y="12"/><text fill="#333333" font-family="sans-serif" font-size="14" lengthAdjust="spacing" textLength="177" x="1012" y="31.5352">計算密集型(CPU-Intensive)</text><path d="M972,58.7324 L982,58.7324 C997,58.7324 981,26.2441 996,26.2441 L1006,26.2441 " fill="none" style="stroke:#D3548A;stroke-width:1.0;"/><rect fill="#EFF1F3" height="28.4883" rx="7.5" ry="7.5" style="stroke:#A80036;stroke-width:0.0;" width="170" x="1006" y="44.4883"/><text fill="#333333" font-family="sans-serif" font-size="14" lengthAdjust="spacing" textLength="158" x="1012" y="64.0234">I/O密集型(IO-Intensive)</text><path d="M972,58.7324 L982,58.7324 C997,58.7324 981,58.7324 996,58.7324 L1006,58.7324 " fill="none" style="stroke:#D3548A;stroke-width:1.0;"/><rect fill="#EFF1F3" height="28.4883" rx="7.5" ry="7.5" style="stroke:#A80036;stroke-width:0.0;" width="192" x="1006" y="76.9766"/><text fill="#333333" font-family="sans-serif" font-size="14" lengthAdjust="spacing" textLength="180" x="1012" y="96.5117">資料密集型(Data-Intensive)</text><path d="M972,58.7324 L982,58.7324 C997,58.7324 981,91.2207 996,91.2207 L1006,91.2207 " fill="none" style="stroke:#D3548A;stroke-width:1.0;"/><path d="M870,466.0566 L880,466.0566 C895,466.0566 879,58.7324 894,58.7324 L904,58.7324 " fill="none" style="stroke:#323232;stroke-width:1.0;"/><rect fill="#F4B031" height="28.4883" rx="7.5" ry="7.5" style="stroke:#F4B031;stroke-width:0.0;" width="161" x="904" y="174.4414"/><text fill="#FFFFFF" font-family="sans-serif" font-size="14" lengthAdjust="spacing" textLength="149" x="910" y="193.9766">資料系統(Data System)</text><rect fill="#EFF1F3" height="28.4883" rx="7.5" ry="7.5" style="stroke:#A80036;stroke-width:0.0;" width="127" x="1099" y="109.4648"/><text fill="#333333" font-family="sans-serif" font-size="14" lengthAdjust="spacing" textLength="115" x="1105" y="129">資料庫(Database)</text><path d="M1065,188.6855 L1075,188.6855 C1090,188.6855 1074,123.709 1089,123.709 L1099,123.709 " fill="none" style="stroke:#F4B031;stroke-width:1.0;"/><rect fill="#EFF1F3" height="28.4883" rx="7.5" ry="7.5" style="stroke:#A80036;stroke-width:0.0;" width="92" x="1099" y="141.9531"/><text fill="#333333" font-family="sans-serif" font-size="14" lengthAdjust="spacing" textLength="80" x="1105" y="161.4883">快取(Cache)</text><path d="M1065,188.6855 L1075,188.6855 C1090,188.6855 1074,156.1973 1089,156.1973 L1099,156.1973 " fill="none" style="stroke:#F4B031;stroke-width:1.0;"/><rect fill="#EFF1F3" height="28.4883" rx="7.5" ry="7.5" style="stroke:#A80036;stroke-width:0.0;" width="182" x="1099" y="174.4414"/><text fill="#333333" font-family="sans-serif" font-size="14" lengthAdjust="spacing" textLength="170" x="1105" y="193.9766">搜尋索引(Search Indexes)</text><path d="M1065,188.6855 L1075,188.6855 C1090,188.6855 1074,188.6855 1089,188.6855 L1099,188.6855 " fill="none" style="stroke:#F4B031;stroke-width:1.0;"/><rect fill="#EFF1F3" height="28.4883" rx="7.5" ry="7.5" style="stroke:#A80036;stroke-width:0.0;" width="204" x="1099" y="206.9297"/><text fill="#333333" font-family="sans-serif" font-size="14" lengthAdjust="spacing" textLength="192" x="1105" y="226.4648">串流處理(Stream Processing)</text><path d="M1065,188.6855 L1075,188.6855 C1090,188.6855 1074,221.1738 1089,221.1738 L1099,221.1738 " fill="none" style="stroke:#F4B031;stroke-width:1.0;"/><rect fill="#EFF1F3" height="28.4883" rx="7.5" ry="7.5" style="stroke:#A80036;stroke-width:0.0;" width="193" x="1099" y="239.418"/><text fill="#333333" font-family="sans-serif" font-size="14" lengthAdjust="spacing" textLength="181" x="1105" y="258.9531">批量處理(Batch Processing)</text><path d="M1065,188.6855 L1075,188.6855 C1090,188.6855 1074,253.6621 1089,253.6621 L1099,253.6621 " fill="none" style="stroke:#F4B031;stroke-width:1.0;"/><path d="M870,466.0566 L880,466.0566 C895,466.0566 879,188.6855 894,188.6855 L904,188.6855 " fill="none" style="stroke:#323232;stroke-width:1.0;"/><rect fill="#BD4231" height="28.4883" rx="7.5" ry="7.5" style="stroke:#BD4231;stroke-width:0.0;" width="130" x="904" y="581.7656"/><text fill="#FFFFFF" font-family="sans-serif" font-size="14" lengthAdjust="spacing" textLength="118" x="910" y="601.3008">可靠性(Reliability)</text><rect fill="#EFF1F3" height="44.9766" rx="7.5" ry="7.5" style="stroke:#A80036;stroke-width:0.0;" width="208" x="1068" y="271.9063"/><text fill="#333333" font-family="sans-serif" font-size="14" lengthAdjust="spacing" textLength="196" x="1074" y="291.4414">使系統在有限情境中，即使出現</text><text fill="#333333" font-family="sans-serif" font-size="14" lengthAdjust="spacing" textLength="196" x="1074" y="307.9297">問題也能繼續正常工作的能力。</text><path d="M1034,596.0098 L1044,596.0098 C1059,596.0098 1043,294.3945 1058,294.3945 L1068,294.3945 " fill="none" style="stroke:#BD4231;stroke-width:1.0;"/><rect fill="#EFF1F3" height="28.4883" rx="7.5" ry="7.5" style="stroke:#A80036;stroke-width:0.0;" width="222" x="1068" y="320.8828"/><text fill="#333333" font-family="sans-serif" font-size="14" lengthAdjust="spacing" textLength="210" x="1074" y="340.418">比起預防錯誤，更傾向容忍錯誤。</text><path d="M1034,596.0098 L1044,596.0098 C1059,596.0098 1043,335.127 1058,335.127 L1068,335.127 " fill="none" style="stroke:#BD4231;stroke-width:1.0;"/><rect fill="#EFF1F3" height="44.9766" rx="7.5" ry="7.5" style="stroke:#A80036;stroke-width:0.0;" width="204" x="1068" y="353.3711"/><text fill="#333333" font-family="sans-serif" font-size="14" lengthAdjust="spacing" textLength="192" x="1074" y="372.9063">透過 Chaos Monkey 方法提升</text><text fill="#333333" font-family="sans-serif" font-size="14" lengthAdjust="spacing" textLength="56" x="1074" y="389.3945">可靠性。</text><path d="M1034,596.0098 L1044,596.0098 C1059,596.0098 1043,375.8594 1058,375.8594 L1068,375.8594 " fill="none" style="stroke:#BD4231;stroke-width:1.0;"/><rect fill="#BD4231" height="28.4883" rx="7.5" ry="7.5" style="stroke:#BD4231;stroke-width:0.0;" width="189" x="1068" y="435.0801"/><text fill="#FFFFFF" font-family="sans-serif" font-size="14" lengthAdjust="spacing" textLength="177" x="1074" y="454.6152">硬體故障(Hardware Faults)</text><rect fill="#EFF1F3" height="44.9766" rx="7.5" ry="7.5" style="stroke:#A80036;stroke-width:0.0;" width="194" x="1291" y="402.3477"/><text fill="#333333" font-family="sans-serif" font-size="14" lengthAdjust="spacing" textLength="182" x="1297" y="421.8828">增加冗余(Redundancy) 提高</text><text fill="#333333" font-family="sans-serif" font-size="14" lengthAdjust="spacing" textLength="84" x="1297" y="438.3711">單機可靠性。</text><path d="M1257,449.3242 L1267,449.3242 C1282,449.3242 1266,424.8359 1281,424.8359 L1291,424.8359 " fill="none" style="stroke:#BD4231;stroke-width:1.0;"/><rect fill="#EFF1F3" height="44.9766" rx="7.5" ry="7.5" style="stroke:#A80036;stroke-width:0.0;" width="208" x="1291" y="451.3242"/><text fill="#333333" font-family="sans-serif" font-size="14" lengthAdjust="spacing" textLength="196" x="1297" y="470.8594">雲端平台透過彈性擴增機器變相</text><text fill="#333333" font-family="sans-serif" font-size="14" lengthAdjust="spacing" textLength="84" x="1297" y="487.3477">提高可靠性。</text><path d="M1257,449.3242 L1267,449.3242 C1282,449.3242 1266,473.8125 1281,473.8125 L1291,473.8125 " fill="none" style="stroke:#BD4231;stroke-width:1.0;"/><path d="M1034,596.0098 L1044,596.0098 C1059,596.0098 1043,449.3242 1058,449.3242 L1068,449.3242 " fill="none" style="stroke:#BD4231;stroke-width:1.0;"/><rect fill="#BD4231" height="28.4883" rx="7.5" ry="7.5" style="stroke:#BD4231;stroke-width:0.0;" width="184" x="1068" y="590.0098"/><text fill="#FFFFFF" font-family="sans-serif" font-size="14" lengthAdjust="spacing" textLength="172" x="1074" y="609.5449">軟體錯誤(Software Errors)</text><rect fill="#EFF1F3" height="44.9766" rx="7.5" ry="7.5" style="stroke:#A80036;stroke-width:0.0;" width="208" x="1286" y="500.3008"/><text fill="#333333" font-family="sans-serif" font-size="14" lengthAdjust="spacing" textLength="196" x="1292" y="519.8359">容易產生連鎖性錯誤，導致更多</text><text fill="#333333" font-family="sans-serif" font-size="14" lengthAdjust="spacing" textLength="98" x="1292" y="536.3242">系統相繼失效。</text><path d="M1252,604.2539 L1262,604.2539 C1277,604.2539 1261,522.7891 1276,522.7891 L1286,522.7891 " fill="none" style="stroke:#BD4231;stroke-width:1.0;"/><rect fill="#EFF1F3" height="44.9766" rx="7.5" ry="7.5" style="stroke:#A80036;stroke-width:0.0;" width="208" x="1286" y="549.2773"/><text fill="#333333" font-family="sans-serif" font-size="14" lengthAdjust="spacing" textLength="196" x="1292" y="568.8125">並非每次都能捕捉到真正的錯誤</text><text fill="#333333" font-family="sans-serif" font-size="14" lengthAdjust="spacing" textLength="42" x="1292" y="585.3008">原因。</text><path d="M1252,604.2539 L1262,604.2539 C1277,604.2539 1261,571.7656 1276,571.7656 L1286,571.7656 " fill="none" style="stroke:#BD4231;stroke-width:1.0;"/><rect fill="#EFF1F3" height="44.9766" rx="7.5" ry="7.5" style="stroke:#A80036;stroke-width:0.0;" width="208" x="1286" y="598.2539"/><text fill="#333333" font-family="sans-serif" font-size="14" lengthAdjust="spacing" textLength="196" x="1292" y="617.7891">透過假設與大量測試保證系統的</text><text fill="#333333" font-family="sans-serif" font-size="14" lengthAdjust="spacing" textLength="98" x="1292" y="634.2773">安全工作範圍。</text><path d="M1252,604.2539 L1262,604.2539 C1277,604.2539 1261,620.7422 1276,620.7422 L1286,620.7422 " fill="none" style="stroke:#BD4231;stroke-width:1.0;"/><rect fill="#EFF1F3" height="28.4883" rx="7.5" ry="7.5" style="stroke:#A80036;stroke-width:0.0;" width="193" x="1286" y="647.2305"/><text fill="#333333" font-family="sans-serif" font-size="14" lengthAdjust="spacing" textLength="181" x="1292" y="666.7656">程序隔離(Process Isolation)</text><path d="M1252,604.2539 L1262,604.2539 C1277,604.2539 1261,661.4746 1276,661.4746 L1286,661.4746 " fill="none" style="stroke:#BD4231;stroke-width:1.0;"/><rect fill="#EFF1F3" height="28.4883" rx="7.5" ry="7.5" style="stroke:#A80036;stroke-width:0.0;" width="180" x="1286" y="679.7188"/><text fill="#333333" font-family="sans-serif" font-size="14" lengthAdjust="spacing" textLength="168" x="1292" y="699.2539">監控並加入錯誤警告機制。</text><path d="M1252,604.2539 L1262,604.2539 C1277,604.2539 1261,693.9629 1276,693.9629 L1286,693.9629 " fill="none" style="stroke:#BD4231;stroke-width:1.0;"/><path d="M1034,596.0098 L1044,596.0098 C1059,596.0098 1043,604.2539 1058,604.2539 L1068,604.2539 " fill="none" style="stroke:#BD4231;stroke-width:1.0;"/><rect fill="#BD4231" height="28.4883" rx="7.5" ry="7.5" style="stroke:#BD4231;stroke-width:0.0;" width="173" x="1068" y="801.916"/><text fill="#FFFFFF" font-family="sans-serif" font-size="14" lengthAdjust="spacing" textLength="161" x="1074" y="821.4512">人為錯誤(Human Errors)</text><rect fill="#EFF1F3" height="28.4883" rx="7.5" ry="7.5" style="stroke:#A80036;stroke-width:0.0;" width="194" x="1275" y="712.207"/><text fill="#333333" font-family="sans-serif" font-size="14" lengthAdjust="spacing" textLength="182" x="1281" y="731.7422">正確且友善的使用抽象設計。</text><path d="M1241,816.1602 L1251,816.1602 C1266,816.1602 1250,726.4512 1265,726.4512 L1275,726.4512 " fill="none" style="stroke:#BD4231;stroke-width:1.0;"/><rect fill="#EFF1F3" height="44.9766" rx="7.5" ry="7.5" style="stroke:#A80036;stroke-width:0.0;" width="208" x="1275" y="744.6953"/><text fill="#333333" font-family="sans-serif" font-size="14" lengthAdjust="spacing" textLength="196" x="1281" y="764.2305">設計上適時加入解耦，讓開發者</text><text fill="#333333" font-family="sans-serif" font-size="14" lengthAdjust="spacing" textLength="182" x="1281" y="780.7188">可以使用真實資料進行測試。</text><path d="M1241,816.1602 L1251,816.1602 C1266,816.1602 1250,767.1836 1265,767.1836 L1275,767.1836 " fill="none" style="stroke:#BD4231;stroke-width:1.0;"/><rect fill="#EFF1F3" height="44.9766" rx="7.5" ry="7.5" style="stroke:#A80036;stroke-width:0.0;" width="194" x="1275" y="793.6719"/><text fill="#333333" font-family="sans-serif" font-size="14" lengthAdjust="spacing" textLength="182" x="1281" y="813.207">足夠的單元測試、整合測試與</text><text fill="#333333" font-family="sans-serif" font-size="14" lengthAdjust="spacing" textLength="119" x="1281" y="829.6953">手動/自動化測試。</text><path d="M1241,816.1602 L1251,816.1602 C1266,816.1602 1250,816.1602 1265,816.1602 L1275,816.1602 " fill="none" style="stroke:#BD4231;stroke-width:1.0;"/><rect fill="#EFF1F3" height="44.9766" rx="7.5" ry="7.5" style="stroke:#A80036;stroke-width:0.0;" width="194" x="1275" y="842.6484"/><text fill="#333333" font-family="sans-serif" font-size="14" lengthAdjust="spacing" textLength="182" x="1281" y="862.1836">確保運行失敗時能夠快速回滾</text><text fill="#333333" font-family="sans-serif" font-size="14" lengthAdjust="spacing" textLength="86" x="1281" y="878.6719">(Roll back)。</text><path d="M1241,816.1602 L1251,816.1602 C1266,816.1602 1250,865.1367 1265,865.1367 L1275,865.1367 " fill="none" style="stroke:#BD4231;stroke-width:1.0;"/><rect fill="#EFF1F3" height="28.4883" rx="7.5" ry="7.5" style="stroke:#A80036;stroke-width:0.0;" width="194" x="1275" y="891.625"/><text fill="#333333" font-family="sans-serif" font-size="14" lengthAdjust="spacing" textLength="182" x="1281" y="911.1602">詳細且動機明確的監控機制。</text><path d="M1241,816.1602 L1251,816.1602 C1266,816.1602 1250,905.8691 1265,905.8691 L1275,905.8691 " fill="none" style="stroke:#BD4231;stroke-width:1.0;"/><path d="M1034,596.0098 L1044,596.0098 C1059,596.0098 1043,816.1602 1058,816.1602 L1068,816.1602 " fill="none" style="stroke:#BD4231;stroke-width:1.0;"/><path d="M870,466.0566 L880,466.0566 C895,466.0566 879,596.0098 894,596.0098 L904,596.0098 " fill="none" style="stroke:#323232;stroke-width:1.0;"/><rect fill="#0F5E8C" height="28.4883" rx="7.5" ry="7.5" style="stroke:#0F5E8C;stroke-width:0.0;" width="146" x="496" y="281.127"/><text fill="#FFFFFF" font-family="sans-serif" font-size="14" lengthAdjust="spacing" textLength="134" x="502" y="300.6621">可伸縮性(Scalability)</text><rect fill="#EFF1F3" height="44.9766" rx="7.5" ry="7.5" style="stroke:#A80036;stroke-width:0.0;" width="250" x="212" y="93.709"/><text fill="#333333" font-family="sans-serif" font-size="14" lengthAdjust="spacing" textLength="238" x="218" y="113.2441">根據業務場景決定如何擴展服務，才是</text><text fill="#333333" font-family="sans-serif" font-size="14" lengthAdjust="spacing" textLength="98" x="218" y="129.7324">有意義的擴展。</text><path d="M496,295.3711 L486,295.3711 C471,295.3711 487,116.1973 472,116.1973 L462,116.1973 " fill="none" style="stroke:#0F5E8C;stroke-width:1.0;"/><rect fill="#0F5E8C" height="28.4883" rx="7.5" ry="7.5" style="stroke:#0F5E8C;stroke-width:0.0;" width="184" x="278" y="167.1738"/><text fill="#FFFFFF" font-family="sans-serif" font-size="14" lengthAdjust="spacing" textLength="172" x="284" y="186.709">描述負載(Discribing Load)</text><rect fill="#EFF1F3" height="28.4883" rx="7.5" ry="7.5" style="stroke:#A80036;stroke-width:0.0;" width="180" x="64" y="142.6855"/><text fill="#333333" font-family="sans-serif" font-size="14" lengthAdjust="spacing" textLength="168" x="70" y="162.2207">量化生產環境的各項數據。</text><path d="M278,181.418 L268,181.418 C253,181.418 269,156.9297 254,156.9297 L244,156.9297 " fill="none" style="stroke:#0F5E8C;stroke-width:1.0;"/><rect fill="#EFF1F3" height="44.9766" rx="7.5" ry="7.5" style="stroke:#A80036;stroke-width:0.0;" width="130" x="114" y="175.1738"/><text fill="#333333" font-family="sans-serif" font-size="14" lengthAdjust="spacing" textLength="84" x="120" y="194.709">制定負載引數</text><text fill="#333333" font-family="sans-serif" font-size="14" lengthAdjust="spacing" textLength="118" x="120" y="211.1973">(Load parameter)</text><path d="M278,181.418 L268,181.418 C253,181.418 269,197.6621 254,197.6621 L244,197.6621 " fill="none" style="stroke:#0F5E8C;stroke-width:1.0;"/><path d="M496,295.3711 L486,295.3711 C471,295.3711 487,181.418 472,181.418 L462,181.418 " fill="none" style="stroke:#0F5E8C;stroke-width:1.0;"/><rect fill="#0F5E8C" height="28.4883" rx="7.5" ry="7.5" style="stroke:#0F5E8C;stroke-width:0.0;" width="238" x="224" y="297.6152"/><text fill="#FFFFFF" font-family="sans-serif" font-size="14" lengthAdjust="spacing" textLength="226" x="230" y="317.1504">描述性能(Discribing Performance)</text><rect fill="#EFF1F3" height="44.9766" rx="7.5" ry="7.5" style="stroke:#A80036;stroke-width:0.0;" width="180" x="10" y="224.1504"/><text fill="#333333" font-family="sans-serif" font-size="14" lengthAdjust="spacing" textLength="168" x="16" y="243.6855">提升負載並固定系統資源時</text><text fill="#333333" font-family="sans-serif" font-size="14" lengthAdjust="spacing" textLength="126" x="16" y="260.1738">對效能造成的影響？</text><path d="M224,311.8594 L214,311.8594 C199,311.8594 215,246.6387 200,246.6387 L190,246.6387 " fill="none" style="stroke:#0F5E8C;stroke-width:1.0;"/><rect fill="#EFF1F3" height="44.9766" rx="7.5" ry="7.5" style="stroke:#A80036;stroke-width:0.0;" width="180" x="10" y="273.127"/><text fill="#333333" font-family="sans-serif" font-size="14" lengthAdjust="spacing" textLength="168" x="16" y="292.6621">提升負載並維持效能時需增</text><text fill="#333333" font-family="sans-serif" font-size="14" lengthAdjust="spacing" textLength="126" x="16" y="309.1504">加多少的系統資源？</text><path d="M224,311.8594 L214,311.8594 C199,311.8594 215,295.6152 200,295.6152 L190,295.6152 " fill="none" style="stroke:#0F5E8C;stroke-width:1.0;"/><rect fill="#EFF1F3" height="28.4883" rx="7.5" ry="7.5" style="stroke:#A80036;stroke-width:0.0;" width="180" x="10" y="322.1035"/><text fill="#333333" font-family="sans-serif" font-size="14" lengthAdjust="spacing" textLength="168" x="16" y="341.6387">決定度量標準與數值分佈。</text><path d="M224,311.8594 L214,311.8594 C199,311.8594 215,336.3477 200,336.3477 L190,336.3477 " fill="none" style="stroke:#0F5E8C;stroke-width:1.0;"/><rect fill="#EFF1F3" height="44.9766" rx="7.5" ry="7.5" style="stroke:#A80036;stroke-width:0.0;" width="180" x="10" y="354.5918"/><text fill="#333333" font-family="sans-serif" font-size="14" lengthAdjust="spacing" textLength="168" x="16" y="374.127">測試方式與生產環境流程必</text><text fill="#333333" font-family="sans-serif" font-size="14" lengthAdjust="spacing" textLength="98" x="16" y="390.6152">須盡可能對齊。</text><path d="M224,311.8594 L214,311.8594 C199,311.8594 215,377.0801 200,377.0801 L190,377.0801 " fill="none" style="stroke:#0F5E8C;stroke-width:1.0;"/><path d="M496,295.3711 L486,295.3711 C471,295.3711 487,311.8594 472,311.8594 L462,311.8594 " fill="none" style="stroke:#0F5E8C;stroke-width:1.0;"/><rect fill="#0F5E8C" height="28.4883" rx="7.5" ry="7.5" style="stroke:#0F5E8C;stroke-width:0.0;" width="110" x="352" y="436.0566"/><text fill="#FFFFFF" font-family="sans-serif" font-size="14" lengthAdjust="spacing" textLength="98" x="358" y="455.5918">對應負載的方法</text><rect fill="#EFF1F3" height="28.4883" rx="7.5" ry="7.5" style="stroke:#A80036;stroke-width:0.0;" width="181" x="137" y="403.5684"/><text fill="#333333" font-family="sans-serif" font-size="14" lengthAdjust="spacing" textLength="169" x="143" y="423.1035">垂直擴展(Vertical scaling)</text><path d="M352,450.3008 L342,450.3008 C327,450.3008 343,417.8125 328,417.8125 L318,417.8125 " fill="none" style="stroke:#0F5E8C;stroke-width:1.0;"/><rect fill="#EFF1F3" height="28.4883" rx="7.5" ry="7.5" style="stroke:#A80036;stroke-width:0.0;" width="202" x="116" y="436.0566"/><text fill="#333333" font-family="sans-serif" font-size="14" lengthAdjust="spacing" textLength="190" x="122" y="455.5918">水平擴展(Horizontal scaling)</text><path d="M352,450.3008 L342,450.3008 C327,450.3008 343,450.3008 328,450.3008 L318,450.3008 " fill="none" style="stroke:#0F5E8C;stroke-width:1.0;"/><rect fill="#EFF1F3" height="28.4883" rx="7.5" ry="7.5" style="stroke:#A80036;stroke-width:0.0;" width="180" x="138" y="468.5449"/><text fill="#333333" font-family="sans-serif" font-size="14" lengthAdjust="spacing" textLength="168" x="144" y="488.0801">因地制宜，且能與時俱進。</text><path d="M352,450.3008 L342,450.3008 C327,450.3008 343,482.7891 328,482.7891 L318,482.7891 " fill="none" style="stroke:#0F5E8C;stroke-width:1.0;"/><path d="M496,295.3711 L486,295.3711 C471,295.3711 487,450.3008 472,450.3008 L462,450.3008 " fill="none" style="stroke:#0F5E8C;stroke-width:1.0;"/><path d="M676,466.0566 L666,466.0566 C651,466.0566 667,295.3711 652,295.3711 L642,295.3711 " fill="none" style="stroke:#323232;stroke-width:1.0;"/><rect fill="#37A7A8" height="28.4883" rx="7.5" ry="7.5" style="stroke:#37A7A8;stroke-width:0.0;" width="178" x="464" y="655.4746"/><text fill="#FFFFFF" font-family="sans-serif" font-size="14" lengthAdjust="spacing" textLength="166" x="470" y="675.0098">可維護性(Maintainability)</text><rect fill="#EFF1F3" height="28.4883" rx="7.5" ry="7.5" style="stroke:#A80036;stroke-width:0.0;" width="194" x="236" y="501.0332"/><text fill="#333333" font-family="sans-serif" font-size="14" lengthAdjust="spacing" textLength="182" x="242" y="520.5684">使產品能夠持續迭代的能力。</text><path d="M464,669.7188 L454,669.7188 C439,669.7188 455,515.2773 440,515.2773 L430,515.2773 " fill="none" style="stroke:#37A7A8;stroke-width:1.0;"/><rect fill="#37A7A8" height="28.4883" rx="7.5" ry="7.5" style="stroke:#37A7A8;stroke-width:0.0;" width="153" x="277" y="582.2539"/><text fill="#FFFFFF" font-family="sans-serif" font-size="14" lengthAdjust="spacing" textLength="141" x="283" y="601.7891">可操作性(Operability)</text><rect fill="#EFF1F3" height="28.4883" rx="7.5" ry="7.5" style="stroke:#A80036;stroke-width:0.0;" width="152" x="91" y="533.5215"/><text fill="#333333" font-family="sans-serif" font-size="14" lengthAdjust="spacing" textLength="140" x="97" y="553.0566">關愛維運，人人有責。</text><path d="M277,596.498 L267,596.498 C252,596.498 268,547.7656 253,547.7656 L243,547.7656 " fill="none" style="stroke:#37A7A8;stroke-width:1.0;"/><rect fill="#EFF1F3" height="28.4883" rx="7.5" ry="7.5" style="stroke:#A80036;stroke-width:0.0;" width="180" x="63" y="566.0098"/><text fill="#333333" font-family="sans-serif" font-size="14" lengthAdjust="spacing" textLength="168" x="69" y="585.5449">提供系統文件與使用範例。</text><path d="M277,596.498 L267,596.498 C252,596.498 268,580.2539 253,580.2539 L243,580.2539 " fill="none" style="stroke:#37A7A8;stroke-width:1.0;"/><rect fill="#EFF1F3" height="28.4883" rx="7.5" ry="7.5" style="stroke:#A80036;stroke-width:0.0;" width="180" x="63" y="598.498"/><text fill="#333333" font-family="sans-serif" font-size="14" lengthAdjust="spacing" textLength="168" x="69" y="618.0332">提供彈性的參數設定方式。</text><path d="M277,596.498 L267,596.498 C252,596.498 268,612.7422 253,612.7422 L243,612.7422 " fill="none" style="stroke:#37A7A8;stroke-width:1.0;"/><rect fill="#EFF1F3" height="28.4883" rx="7.5" ry="7.5" style="stroke:#A80036;stroke-width:0.0;" width="225" x="18" y="630.9863"/><text fill="#333333" font-family="sans-serif" font-size="14" lengthAdjust="spacing" textLength="213" x="24" y="650.5215">提供自定義的監控指標(Metrics)。</text><path d="M277,596.498 L267,596.498 C252,596.498 268,645.2305 253,645.2305 L243,645.2305 " fill="none" style="stroke:#37A7A8;stroke-width:1.0;"/><path d="M464,669.7188 L454,669.7188 C439,669.7188 455,596.498 440,596.498 L430,596.498 " fill="none" style="stroke:#37A7A8;stroke-width:1.0;"/><rect fill="#37A7A8" height="28.4883" rx="7.5" ry="7.5" style="stroke:#37A7A8;stroke-width:0.0;" width="129" x="301" y="695.9629"/><text fill="#FFFFFF" font-family="sans-serif" font-size="14" lengthAdjust="spacing" textLength="117" x="307" y="715.498">簡單性(Simplicity)</text><rect fill="#EFF1F3" height="28.4883" rx="7.5" ry="7.5" style="stroke:#A80036;stroke-width:0.0;" width="96" x="171" y="663.4746"/><text fill="#333333" font-family="sans-serif" font-size="14" lengthAdjust="spacing" textLength="84" x="177" y="683.0098">控管複雜度。</text><path d="M301,710.207 L291,710.207 C276,710.207 292,677.7188 277,677.7188 L267,677.7188 " fill="none" style="stroke:#37A7A8;stroke-width:1.0;"/><rect fill="#EFF1F3" height="28.4883" rx="7.5" ry="7.5" style="stroke:#A80036;stroke-width:0.0;" width="138" x="129" y="695.9629"/><text fill="#333333" font-family="sans-serif" font-size="14" lengthAdjust="spacing" textLength="126" x="135" y="715.498">適度的抽象、解耦。</text><path d="M301,710.207 L291,710.207 C276,710.207 292,710.207 277,710.207 L267,710.207 " fill="none" style="stroke:#37A7A8;stroke-width:1.0;"/><rect fill="#EFF1F3" height="28.4883" rx="7.5" ry="7.5" style="stroke:#A80036;stroke-width:0.0;" width="208" x="59" y="728.4512"/><text fill="#333333" font-family="sans-serif" font-size="14" lengthAdjust="spacing" textLength="196" x="65" y="747.9863">設計框架時也須考量團隊程度。</text><path d="M301,710.207 L291,710.207 C276,710.207 292,742.6953 277,742.6953 L267,742.6953 " fill="none" style="stroke:#37A7A8;stroke-width:1.0;"/><path d="M464,669.7188 L454,669.7188 C439,669.7188 455,710.207 440,710.207 L430,710.207 " fill="none" style="stroke:#37A7A8;stroke-width:1.0;"/><rect fill="#37A7A8" height="28.4883" rx="7.5" ry="7.5" style="stroke:#37A7A8;stroke-width:0.0;" width="154" x="276" y="785.4277"/><text fill="#FFFFFF" font-family="sans-serif" font-size="14" lengthAdjust="spacing" textLength="142" x="282" y="804.9629">可演化性(Evolvability)</text><rect fill="#EFF1F3" height="28.4883" rx="7.5" ry="7.5" style="stroke:#A80036;stroke-width:0.0;" width="82" x="160" y="760.9395"/><text fill="#333333" font-family="sans-serif" font-size="14" lengthAdjust="spacing" textLength="70" x="166" y="780.4746">擁抱變化。</text><path d="M276,799.6719 L266,799.6719 C251,799.6719 267,775.1836 252,775.1836 L242,775.1836 " fill="none" style="stroke:#37A7A8;stroke-width:1.0;"/><rect fill="#EFF1F3" height="44.9766" rx="7.5" ry="7.5" style="stroke:#A80036;stroke-width:0.0;" width="180" x="62" y="793.4277"/><text fill="#333333" font-family="sans-serif" font-size="14" lengthAdjust="spacing" textLength="168" x="68" y="812.9629">測試驅動開發、敏捷開發與</text><text fill="#333333" font-family="sans-serif" font-size="14" lengthAdjust="spacing" textLength="70" x="68" y="829.4512">定時重構。</text><path d="M276,799.6719 L266,799.6719 C251,799.6719 267,815.916 252,815.916 L242,815.916 " fill="none" style="stroke:#37A7A8;stroke-width:1.0;"/><path d="M464,669.7188 L454,669.7188 C439,669.7188 455,799.6719 440,799.6719 L430,799.6719 " fill="none" style="stroke:#37A7A8;stroke-width:1.0;"/><path d="M676,466.0566 L666,466.0566 C651,466.0566 667,669.7188 652,669.7188 L642,669.7188 " fill="none" style="stroke:#323232;stroke-width:1.0;"/><!--MD5=[872dae9a5d539e710a239c374d0aae6b]
@startmindmap ddia_ch1_mindmap

skinparam Shadowing false
skinparam BackgroundColor #EFF1F3
skinparam linetype ortho

<style>
arrow {
    LineColor #323232
}
node {
    Padding 6
    Margin 2
    RoundCorner 15
    LineThickness 0.0
    BackgroundColor #EFF1F3
    FontColor #333333
}
.Type_Root {
    BackgroundColor #323232
    FontColor #FFFFFF
    LineColor #323232
}
.Type1_Node {
    BackgroundColor #D3548A
    FontColor #FFFFFF
    LineColor #D3548A
}
.Type1_LeafNode {
    RoundCorner 0
    LineThickness 1.0
    LineColor #D3548A
}
.Type2_Node {
    BackgroundColor #F4B031
    FontColor #FFFFFF
    LineColor #F4B031
}
.Type2_LeafNode {
    RoundCorner 0
    LineThickness 1.0
    LineColor #F4B031
}
.Type3_Node {
    BackgroundColor #BD4231
    FontColor #FFFFFF
    LineColor #BD4231
}
.Type3_LeafNode {
    RoundCorner 0
    LineThickness 1.0
    LineColor #BD4231
}
.Type4_Node {
    BackgroundColor #0F5E8C
    FontColor #FFFFFF
    LineColor #0F5E8C
}
.Type4_LeafNode {
    RoundCorner 0
    LineThickness 1.0
    LineColor #0F5E8C
}
.Type5_Node {
    BackgroundColor #37A7A8
    FontColor #FFFFFF
    LineColor #37A7A8
}
.Type5_LeafNode {
    RoundCorner 0
    LineThickness 1.0
    LineColor #37A7A8
}
</style>

* DDIA Chapter.1 -\n可靠性、可伸縮性與可維護性<<Type_Root>>

** 任務類型<<Type1_Node>>

*** 計算密集型(CPU-Intensive)
*** I/O密集型(IO-Intensive)
*** 資料密集型(Data-Intensive)

** 資料系統(Data System)<<Type2_Node>>

*** 資料庫(Database)
*** 快取(Cache)
*** 搜尋索引(Search Indexes)
*** 串流處理(Stream Processing)
*** 批量處理(Batch Processing)

** 可靠性(Reliability)<<Type3_Node>>

*** 使系統在有限情境中，即使出現\n問題也能繼續正常工作的能力。

*** 比起預防錯誤，更傾向容忍錯誤。

*** 透過 Chaos Monkey 方法提升\n可靠性。

*** 硬體故障(Hardware Faults)<<Type3_Node>>
**** 增加冗余(Redundancy) 提高\n單機可靠性。
**** 雲端平台透過彈性擴增機器變相\n提高可靠性。

*** 軟體錯誤(Software Errors)<<Type3_Node>>
**** 容易產生連鎖性錯誤，導致更多\n系統相繼失效。
**** 並非每次都能捕捉到真正的錯誤\n原因。
**** 透過假設與大量測試保證系統的\n安全工作範圍。
**** 程序隔離(Process Isolation)
**** 監控並加入錯誤警告機制。

*** 人為錯誤(Human Errors)<<Type3_Node>>
**** 正確且友善的使用抽象設計。
**** 設計上適時加入解耦，讓開發者\n可以使用真實資料進行測試。
**** 足夠的單元測試、整合測試與\n手動/自動化測試。
**** 確保運行失敗時能夠快速回滾\n(Roll back)。
**** 詳細且動機明確的監控機制。

left

** 可伸縮性(Scalability)<<Type4_Node>>

*** 根據業務場景決定如何擴展服務，才是\n有意義的擴展。

*** 描述負載(Discribing Load)<<Type4_Node>>
**** 量化生產環境的各項數據。
**** 制定負載引數\n(Load parameter)

*** 描述性能(Discribing Performance)<<Type4_Node>>
**** 提升負載並固定系統資源時\n對效能造成的影響？
**** 提升負載並維持效能時需增\n加多少的系統資源？
**** 決定度量標準與數值分佈。
**** 測試方式與生產環境流程必\n須盡可能對齊。

*** 對應負載的方法<<Type4_Node>>
**** 垂直擴展(Vertical scaling)
**** 水平擴展(Horizontal scaling)
**** 因地制宜，且能與時俱進。

** 可維護性(Maintainability)<<Type5_Node>>

*** 使產品能夠持續迭代的能力。

*** 可操作性(Operability)<<Type5_Node>>
**** 關愛維運，人人有責。
**** 提供系統文件與使用範例。
**** 提供彈性的參數設定方式。
**** 提供自定義的監控指標(Metrics)。

*** 簡單性(Simplicity)<<Type5_Node>>
**** 控管複雜度。
**** 適度的抽象、解耦。
**** 設計框架時也須考量團隊程度。

*** 可演化性(Evolvability)<<Type5_Node>>
**** 擁抱變化。
**** 測試驅動開發、敏捷開發與\n定時重構。

@endmindmap

PlantUML version 1.2021.00(Sun Jan 10 18:25:05 CST 2021)
(GPL source distribution)
Java Runtime: OpenJDK Runtime Environment
JVM: OpenJDK 64-Bit Server VM
Default Encoding: UTF-8
Language: zh
Country: TW
--></g></svg>