<?xml version="1.0" encoding="UTF-8" standalone="no"?><svg xmlns="http://www.w3.org/2000/svg" xmlns:xlink="http://www.w3.org/1999/xlink" contentScriptType="application/ecmascript" contentStyleType="text/css" height="1365px" preserveAspectRatio="none" style="width:2049px;height:1365px;background:#EFF1F3;" version="1.1" viewBox="0 0 2049 1365" width="2049px" zoomAndPan="magnify"><defs/><g><rect fill="#323232" height="26.1328" rx="7.5" ry="7.5" style="stroke:#323232;stroke-width:0.0;" width="319" x="844.5" y="10"/><text fill="#FFFFFF" font-family="sans-serif" font-size="12" lengthAdjust="spacing" textLength="307" x="850.5" y="27.6016">DDIA Chapter.2 - Data Models and Query Languages</text><line style="stroke:#323232;stroke-width:1.5;" x1="1004" x2="1004" y1="36.1328" y2="56.1328"/><line style="stroke:#323232;stroke-width:1.5;" x1="124" x2="124" y1="56.1328" y2="76.1328"/><rect fill="#D3548A" height="26.1328" rx="7.5" ry="7.5" style="stroke:#D3548A;stroke-width:0.0;" width="228" x="10" y="76.1328"/><text fill="#FFFFFF" font-family="sans-serif" font-size="12" lengthAdjust="spacing" textLength="216" x="16" y="93.7344">Relational Model vs. Document Model</text><line style="stroke:#323232;stroke-width:1.5;" x1="124" x2="134" y1="117.332" y2="117.332"/><rect fill="#EFF1F3" height="26.1328" rx="7.5" ry="7.5" style="stroke:#A80036;stroke-width:0.0;" width="235" x="134" y="104.2656"/><text fill="#333333" font-family="sans-serif" font-size="12" lengthAdjust="spacing" textLength="223" x="140" y="121.8672">1970 年 Edgar F. Codd 提出關聯模型。</text><line style="stroke:#323232;stroke-width:1.5;" x1="124" x2="134" y1="145.4648" y2="145.4648"/><rect fill="#EFF1F3" height="26.1328" rx="7.5" ry="7.5" style="stroke:#A80036;stroke-width:0.0;" width="300" x="134" y="132.3984"/><text fill="#333333" font-family="sans-serif" font-size="12" lengthAdjust="spacing" textLength="288" x="140" y="150">是當時在商業應用中操作結構化資料的首選解決方案。</text><line style="stroke:#323232;stroke-width:1.5;" x1="124" x2="134" y1="173.5977" y2="173.5977"/><rect fill="#EFF1F3" height="26.1328" rx="7.5" ry="7.5" style="stroke:#A80036;stroke-width:0.0;" width="261" x="134" y="160.5313"/><text fill="#333333" font-family="sans-serif" font-size="12" lengthAdjust="spacing" textLength="249" x="140" y="178.1328">其強項為 Transaction 與 batch processing。</text><line style="stroke:#323232;stroke-width:1.5;" x1="124" x2="134" y1="201.7305" y2="201.7305"/><rect fill="#D3548A" height="26.1328" rx="7.5" ry="7.5" style="stroke:#D3548A;stroke-width:0.0;" width="120" x="134" y="188.6641"/><text fill="#FFFFFF" font-family="sans-serif" font-size="12" lengthAdjust="spacing" textLength="108" x="140" y="206.2656">The Birth of NoSQL</text><line style="stroke:#323232;stroke-width:1.5;" x1="194" x2="204" y1="229.8633" y2="229.8633"/><rect fill="#EFF1F3" height="26.1328" rx="7.5" ry="7.5" style="stroke:#A80036;stroke-width:0.0;" width="208" x="204" y="216.7969"/><text fill="#333333" font-family="sans-serif" font-size="12" lengthAdjust="spacing" textLength="196" x="210" y="234.3984">源自 2009 年的一場線上開源聚會。</text><line style="stroke:#323232;stroke-width:1.5;" x1="194" x2="204" y1="257.9961" y2="257.9961"/><rect fill="#EFF1F3" height="26.1328" rx="7.5" ry="7.5" style="stroke:#A80036;stroke-width:0.0;" width="264" x="204" y="244.9297"/><text fill="#333333" font-family="sans-serif" font-size="12" lengthAdjust="spacing" textLength="252" x="210" y="262.5313">需要比關聯模型更好的可擴展性與寫入吞吐量。</text><line style="stroke:#323232;stroke-width:1.5;" x1="194" x2="204" y1="286.1289" y2="286.1289"/><rect fill="#EFF1F3" height="26.1328" rx="7.5" ry="7.5" style="stroke:#A80036;stroke-width:0.0;" width="196" x="204" y="273.0625"/><text fill="#333333" font-family="sans-serif" font-size="12" lengthAdjust="spacing" textLength="184" x="210" y="290.6641">掙脫 schema 帶來的限制與束縛。</text><line style="stroke:#323232;stroke-width:1.5;" x1="194" x2="194" y1="214.7969" y2="286.1289"/><line style="stroke:#323232;stroke-width:1.5;" x1="124" x2="134" y1="314.2617" y2="314.2617"/><rect fill="#D3548A" height="26.1328" rx="7.5" ry="7.5" style="stroke:#D3548A;stroke-width:0.0;" width="197" x="134" y="301.1953"/><text fill="#FFFFFF" font-family="sans-serif" font-size="12" lengthAdjust="spacing" textLength="185" x="140" y="318.7969">The Object-Relational Mismatch</text><line style="stroke:#323232;stroke-width:1.5;" x1="232.5" x2="242.5" y1="342.3945" y2="342.3945"/><rect fill="#EFF1F3" height="26.1328" rx="7.5" ry="7.5" style="stroke:#A80036;stroke-width:0.0;" width="203" x="242.5" y="329.3281"/><text fill="#333333" font-family="sans-serif" font-size="12" lengthAdjust="spacing" textLength="191" x="248.5" y="346.9297">大多透過 ORM 框架處理中介轉換。</text><line style="stroke:#323232;stroke-width:1.5;" x1="232.5" x2="242.5" y1="370.5273" y2="370.5273"/><rect fill="#EFF1F3" height="26.1328" rx="7.5" ry="7.5" style="stroke:#A80036;stroke-width:0.0;" width="348" x="242.5" y="357.4609"/><text fill="#333333" font-family="sans-serif" font-size="12" lengthAdjust="spacing" textLength="336" x="248.5" y="375.0625">關聯模型相較文件模型而言，較不擅長處理一對多的資料關係。</text><line style="stroke:#323232;stroke-width:1.5;" x1="232.5" x2="242.5" y1="398.6602" y2="398.6602"/><rect fill="#EFF1F3" height="26.1328" rx="7.5" ry="7.5" style="stroke:#A80036;stroke-width:0.0;" width="275" x="242.5" y="385.5938"/><text fill="#333333" font-family="sans-serif" font-size="12" lengthAdjust="spacing" textLength="263" x="248.5" y="403.1953">JSON 非常適合描述 self-contained的資料關係。</text><line style="stroke:#323232;stroke-width:1.5;" x1="232.5" x2="232.5" y1="327.3281" y2="398.6602"/><line style="stroke:#323232;stroke-width:1.5;" x1="124" x2="134" y1="426.793" y2="426.793"/><rect fill="#D3548A" height="26.1328" rx="7.5" ry="7.5" style="stroke:#D3548A;stroke-width:0.0;" width="279" x="134" y="413.7266"/><text fill="#FFFFFF" font-family="sans-serif" font-size="12" lengthAdjust="spacing" textLength="267" x="140" y="431.3281">Many-to-One and Many-to-Many Relationship</text><line style="stroke:#323232;stroke-width:1.5;" x1="273.5" x2="283.5" y1="461.9922" y2="461.9922"/><rect fill="#EFF1F3" height="40.2656" rx="7.5" ry="7.5" style="stroke:#A80036;stroke-width:0.0;" width="240" x="283.5" y="441.8594"/><text fill="#333333" font-family="sans-serif" font-size="12" lengthAdjust="spacing" textLength="228" x="289.5" y="459.4609">關聯模型提供的正規化優勢：避免歧義、減</text><text fill="#333333" font-family="sans-serif" font-size="12" lengthAdjust="spacing" textLength="144" x="289.5" y="473.5938">少冗余、易於更新與查詢。</text><line style="stroke:#323232;stroke-width:1.5;" x1="273.5" x2="283.5" y1="497.1914" y2="497.1914"/><rect fill="#EFF1F3" height="26.1328" rx="7.5" ry="7.5" style="stroke:#A80036;stroke-width:0.0;" width="240" x="283.5" y="484.125"/><text fill="#333333" font-family="sans-serif" font-size="12" lengthAdjust="spacing" textLength="228" x="289.5" y="501.7266">比文件模型更擅長描述多對一的資料關係。</text><line style="stroke:#323232;stroke-width:1.5;" x1="273.5" x2="273.5" y1="439.8594" y2="497.1914"/><line style="stroke:#323232;stroke-width:1.5;" x1="124" x2="134" y1="525.3242" y2="525.3242"/><rect fill="#D3548A" height="26.1328" rx="7.5" ry="7.5" style="stroke:#D3548A;stroke-width:0.0;" width="274" x="134" y="512.2578"/><text fill="#FFFFFF" font-family="sans-serif" font-size="12" lengthAdjust="spacing" textLength="262" x="140" y="529.8594">Are Document Databases Repeating History ?</text><line style="stroke:#323232;stroke-width:1.5;" x1="271" x2="281" y1="553.457" y2="553.457"/><rect fill="#EFF1F3" height="26.1328" rx="7.5" ry="7.5" style="stroke:#A80036;stroke-width:0.0;" width="328" x="281" y="540.3906"/><text fill="#333333" font-family="sans-serif" font-size="12" lengthAdjust="spacing" textLength="316" x="287" y="557.9922">1970 年 IBM 提出的階層模型與現代的文件模型十分接近。</text><line style="stroke:#323232;stroke-width:1.5;" x1="271" x2="281" y1="581.5898" y2="581.5898"/><rect fill="#EFF1F3" height="26.1328" rx="7.5" ry="7.5" style="stroke:#A80036;stroke-width:0.0;" width="245" x="281" y="568.5234"/><text fill="#333333" font-family="sans-serif" font-size="12" lengthAdjust="spacing" textLength="233" x="287" y="586.125">不支援 JOIN，非常不利於多對多關係查詢。</text><line style="stroke:#323232;stroke-width:1.5;" x1="271" x2="281" y1="609.7227" y2="609.7227"/><rect fill="#D3548A" height="26.1328" rx="7.5" ry="7.5" style="stroke:#D3548A;stroke-width:0.0;" width="125" x="281" y="596.6563"/><text fill="#FFFFFF" font-family="sans-serif" font-size="12" lengthAdjust="spacing" textLength="113" x="287" y="614.2578">The Network Model</text><line style="stroke:#323232;stroke-width:1.5;" x1="343.5" x2="353.5" y1="637.8555" y2="637.8555"/><rect fill="#EFF1F3" height="26.1328" rx="7.5" ry="7.5" style="stroke:#A80036;stroke-width:0.0;" width="265" x="353.5" y="624.7891"/><text fill="#333333" font-family="sans-serif" font-size="12" lengthAdjust="spacing" textLength="253" x="359.5" y="642.3906">根據階層模型演化而來，又稱 CODASYL 模型。</text><line style="stroke:#323232;stroke-width:1.5;" x1="343.5" x2="353.5" y1="665.9883" y2="665.9883"/><rect fill="#EFF1F3" height="26.1328" rx="7.5" ry="7.5" style="stroke:#A80036;stroke-width:0.0;" width="480" x="353.5" y="652.9219"/><text fill="#333333" font-family="sans-serif" font-size="12" lengthAdjust="spacing" textLength="468" x="359.5" y="670.5234">為了解決多對一與多對多資料關係，提出類似指標的方式關聯資料，稱為 Access Path。</text><line style="stroke:#323232;stroke-width:1.5;" x1="343.5" x2="353.5" y1="694.1211" y2="694.1211"/><rect fill="#EFF1F3" height="26.1328" rx="7.5" ry="7.5" style="stroke:#A80036;stroke-width:0.0;" width="180" x="353.5" y="681.0547"/><text fill="#333333" font-family="sans-serif" font-size="12" lengthAdjust="spacing" textLength="168" x="359.5" y="698.6563">必須人為維護複雜的查詢算法。</text><line style="stroke:#323232;stroke-width:1.5;" x1="343.5" x2="343.5" y1="622.7891" y2="694.1211"/><line style="stroke:#323232;stroke-width:1.5;" x1="271" x2="281" y1="722.2539" y2="722.2539"/><rect fill="#D3548A" height="26.1328" rx="7.5" ry="7.5" style="stroke:#D3548A;stroke-width:0.0;" width="123" x="281" y="709.1875"/><text fill="#FFFFFF" font-family="sans-serif" font-size="12" lengthAdjust="spacing" textLength="111" x="287" y="726.7891">The Relation Model</text><line style="stroke:#323232;stroke-width:1.5;" x1="342.5" x2="352.5" y1="750.3867" y2="750.3867"/><rect fill="#EFF1F3" height="26.1328" rx="7.5" ry="7.5" style="stroke:#A80036;stroke-width:0.0;" width="181" x="352.5" y="737.3203"/><text fill="#333333" font-family="sans-serif" font-size="12" lengthAdjust="spacing" textLength="169" x="358.5" y="754.9219">能夠靈活且直覺的操作 CRUD。</text><line style="stroke:#323232;stroke-width:1.5;" x1="342.5" x2="352.5" y1="778.5195" y2="778.5195"/><rect fill="#EFF1F3" height="26.1328" rx="7.5" ry="7.5" style="stroke:#A80036;stroke-width:0.0;" width="276" x="352.5" y="765.4531"/><text fill="#333333" font-family="sans-serif" font-size="12" lengthAdjust="spacing" textLength="264" x="358.5" y="783.0547">不需人工維護查詢算法，由查詢優化器自動計算。</text><line style="stroke:#323232;stroke-width:1.5;" x1="342.5" x2="352.5" y1="806.6523" y2="806.6523"/><rect fill="#EFF1F3" height="26.1328" rx="7.5" ry="7.5" style="stroke:#A80036;stroke-width:0.0;" width="192" x="352.5" y="793.5859"/><text fill="#333333" font-family="sans-serif" font-size="12" lengthAdjust="spacing" textLength="180" x="358.5" y="811.1875">加入索引可以有效加速查詢速度。</text><line style="stroke:#323232;stroke-width:1.5;" x1="342.5" x2="342.5" y1="735.3203" y2="806.6523"/><line style="stroke:#323232;stroke-width:1.5;" x1="271" x2="281" y1="834.7852" y2="834.7852"/><rect fill="#D3548A" height="26.1328" rx="7.5" ry="7.5" style="stroke:#D3548A;stroke-width:0.0;" width="197" x="281" y="821.7188"/><text fill="#FFFFFF" font-family="sans-serif" font-size="12" lengthAdjust="spacing" textLength="185" x="287" y="839.3203">Comparison to document model</text><line style="stroke:#323232;stroke-width:1.5;" x1="379.5" x2="389.5" y1="862.918" y2="862.918"/><rect fill="#EFF1F3" height="26.1328" rx="7.5" ry="7.5" style="stroke:#A80036;stroke-width:0.0;" width="317" x="389.5" y="849.8516"/><text fill="#333333" font-family="sans-serif" font-size="12" lengthAdjust="spacing" textLength="305" x="395.5" y="867.4531">借鑑階層模型描述一對多資料關係的方式：record tree。</text><line style="stroke:#323232;stroke-width:1.5;" x1="379.5" x2="389.5" y1="891.0508" y2="891.0508"/><rect fill="#EFF1F3" height="26.1328" rx="7.5" ry="7.5" style="stroke:#A80036;stroke-width:0.0;" width="316" x="389.5" y="877.9844"/><text fill="#333333" font-family="sans-serif" font-size="12" lengthAdjust="spacing" textLength="304" x="395.5" y="895.5859">借鑑關聯模型描述多對一資料關係的方式：foreign key。</text><line style="stroke:#323232;stroke-width:1.5;" x1="379.5" x2="379.5" y1="847.8516" y2="891.0508"/><line style="stroke:#323232;stroke-width:1.5;" x1="271" x2="271" y1="538.3906" y2="834.7852"/><line style="stroke:#323232;stroke-width:1.5;" x1="124" x2="134" y1="919.1836" y2="919.1836"/><rect fill="#D3548A" height="26.1328" rx="7.5" ry="7.5" style="stroke:#D3548A;stroke-width:0.0;" width="278" x="134" y="906.1172"/><text fill="#FFFFFF" font-family="sans-serif" font-size="12" lengthAdjust="spacing" textLength="266" x="140" y="923.7188">Relational Versus Document Databases Today</text><line style="stroke:#323232;stroke-width:1.5;" x1="273" x2="283" y1="947.3164" y2="947.3164"/><rect fill="#EFF1F3" height="26.1328" rx="7.5" ry="7.5" style="stroke:#A80036;stroke-width:0.0;" width="180" x="283" y="934.25"/><text fill="#333333" font-family="sans-serif" font-size="12" lengthAdjust="spacing" textLength="168" x="289" y="951.8516">關聯模型適合多對一資料關係。</text><line style="stroke:#323232;stroke-width:1.5;" x1="273" x2="283" y1="975.4492" y2="975.4492"/><rect fill="#EFF1F3" height="26.1328" rx="7.5" ry="7.5" style="stroke:#A80036;stroke-width:0.0;" width="180" x="283" y="962.3828"/><text fill="#333333" font-family="sans-serif" font-size="12" lengthAdjust="spacing" textLength="168" x="289" y="979.9844">文件模型適合一對多資料關係。</text><line style="stroke:#323232;stroke-width:1.5;" x1="273" x2="283" y1="1003.582" y2="1003.582"/><rect fill="#D3548A" height="26.1328" rx="7.5" ry="7.5" style="stroke:#D3548A;stroke-width:0.0;" width="311" x="283" y="990.5156"/><text fill="#FFFFFF" font-family="sans-serif" font-size="12" lengthAdjust="spacing" textLength="299" x="289" y="1008.1172">Which data model leads to simpler application code</text><line style="stroke:#323232;stroke-width:1.5;" x1="438.5" x2="448.5" y1="1031.7148" y2="1031.7148"/><rect fill="#EFF1F3" height="26.1328" rx="7.5" ry="7.5" style="stroke:#A80036;stroke-width:0.0;" width="120" x="448.5" y="1018.6484"/><text fill="#333333" font-family="sans-serif" font-size="12" lengthAdjust="spacing" textLength="108" x="454.5" y="1036.25">根據業務情境而定。</text><line style="stroke:#323232;stroke-width:1.5;" x1="438.5" x2="438.5" y1="1016.6484" y2="1031.7148"/><line style="stroke:#323232;stroke-width:1.5;" x1="273" x2="283" y1="1059.8477" y2="1059.8477"/><rect fill="#D3548A" height="26.1328" rx="7.5" ry="7.5" style="stroke:#D3548A;stroke-width:0.0;" width="248" x="283" y="1046.7813"/><text fill="#FFFFFF" font-family="sans-serif" font-size="12" lengthAdjust="spacing" textLength="236" x="289" y="1064.3828">Schema flexibility in the document model</text><line style="stroke:#323232;stroke-width:1.5;" x1="407" x2="417" y1="1087.9805" y2="1087.9805"/><rect fill="#EFF1F3" height="26.1328" rx="7.5" ry="7.5" style="stroke:#A80036;stroke-width:0.0;" width="205" x="417" y="1074.9141"/><text fill="#333333" font-family="sans-serif" font-size="12" lengthAdjust="spacing" textLength="193" x="423" y="1092.5156">文件模型通常為 schema on read。</text><line style="stroke:#323232;stroke-width:1.5;" x1="407" x2="417" y1="1116.1133" y2="1116.1133"/><rect fill="#EFF1F3" height="26.1328" rx="7.5" ry="7.5" style="stroke:#A80036;stroke-width:0.0;" width="206" x="417" y="1103.0469"/><text fill="#333333" font-family="sans-serif" font-size="12" lengthAdjust="spacing" textLength="194" x="423" y="1120.6484">關聯模型通常為 schema on write。</text><line style="stroke:#323232;stroke-width:1.5;" x1="407" x2="417" y1="1144.2461" y2="1144.2461"/><rect fill="#EFF1F3" height="26.1328" rx="7.5" ry="7.5" style="stroke:#A80036;stroke-width:0.0;" width="218" x="417" y="1131.1797"/><text fill="#333333" font-family="sans-serif" font-size="12" lengthAdjust="spacing" textLength="206" x="423" y="1148.7813">在需要 migration 時的差異尤其明顯。</text><line style="stroke:#323232;stroke-width:1.5;" x1="407" x2="407" y1="1072.9141" y2="1144.2461"/><line style="stroke:#323232;stroke-width:1.5;" x1="273" x2="283" y1="1172.3789" y2="1172.3789"/><rect fill="#D3548A" height="26.1328" rx="7.5" ry="7.5" style="stroke:#D3548A;stroke-width:0.0;" width="149" x="283" y="1159.3125"/><text fill="#FFFFFF" font-family="sans-serif" font-size="12" lengthAdjust="spacing" textLength="137" x="289" y="1176.9141">Data locality for queries</text><line style="stroke:#323232;stroke-width:1.5;" x1="357.5" x2="367.5" y1="1200.5117" y2="1200.5117"/><rect fill="#EFF1F3" height="26.1328" rx="7.5" ry="7.5" style="stroke:#A80036;stroke-width:0.0;" width="420" x="367.5" y="1187.4453"/><text fill="#333333" font-family="sans-serif" font-size="12" lengthAdjust="spacing" textLength="408" x="373.5" y="1205.0469">storage locality 是把雙面刃，其保存型態通常是 encoded byte datatype。</text><line style="stroke:#323232;stroke-width:1.5;" x1="357.5" x2="367.5" y1="1228.6445" y2="1228.6445"/><rect fill="#EFF1F3" height="26.1328" rx="7.5" ry="7.5" style="stroke:#A80036;stroke-width:0.0;" width="288" x="367.5" y="1215.5781"/><text fill="#333333" font-family="sans-serif" font-size="12" lengthAdjust="spacing" textLength="276" x="373.5" y="1233.1797">即使只是小面積修改資料，還是需要操作整份資料。</text><line style="stroke:#323232;stroke-width:1.5;" x1="357.5" x2="367.5" y1="1256.7773" y2="1256.7773"/><rect fill="#EFF1F3" height="26.1328" rx="7.5" ry="7.5" style="stroke:#A80036;stroke-width:0.0;" width="288" x="367.5" y="1243.7109"/><text fill="#333333" font-family="sans-serif" font-size="12" lengthAdjust="spacing" textLength="276" x="373.5" y="1261.3125">但其優勢也被相繼加入到各自的 RDBMS 的產品內。</text><line style="stroke:#323232;stroke-width:1.5;" x1="357.5" x2="357.5" y1="1185.4453" y2="1256.7773"/><line style="stroke:#323232;stroke-width:1.5;" x1="273" x2="283" y1="1284.9102" y2="1284.9102"/><rect fill="#D3548A" height="26.1328" rx="7.5" ry="7.5" style="stroke:#D3548A;stroke-width:0.0;" width="309" x="283" y="1271.8438"/><text fill="#FFFFFF" font-family="sans-serif" font-size="12" lengthAdjust="spacing" textLength="297" x="289" y="1289.4453">Convergence of document and relational databases</text><line style="stroke:#323232;stroke-width:1.5;" x1="437.5" x2="447.5" y1="1313.043" y2="1313.043"/><rect fill="#EFF1F3" height="26.1328" rx="7.5" ry="7.5" style="stroke:#A80036;stroke-width:0.0;" width="324" x="447.5" y="1299.9766"/><text fill="#333333" font-family="sans-serif" font-size="12" lengthAdjust="spacing" textLength="312" x="453.5" y="1317.5781">E.F.Codd 在 1970 年時也曾提出類似於互相融合的概念。</text><line style="stroke:#323232;stroke-width:1.5;" x1="437.5" x2="447.5" y1="1341.1758" y2="1341.1758"/><rect fill="#EFF1F3" height="26.1328" rx="7.5" ry="7.5" style="stroke:#A80036;stroke-width:0.0;" width="204" x="447.5" y="1328.1094"/><text fill="#333333" font-family="sans-serif" font-size="12" lengthAdjust="spacing" textLength="192" x="453.5" y="1345.7109">隨著時間迭代，彼此差異逐漸縮小。</text><line style="stroke:#323232;stroke-width:1.5;" x1="437.5" x2="437.5" y1="1297.9766" y2="1341.1758"/><line style="stroke:#323232;stroke-width:1.5;" x1="273" x2="273" y1="932.25" y2="1284.9102"/><line style="stroke:#323232;stroke-width:1.5;" x1="124" x2="124" y1="102.2656" y2="919.1836"/><line style="stroke:#323232;stroke-width:1.5;" x1="931.5" x2="931.5" y1="56.1328" y2="76.1328"/><rect fill="#F4B031" height="26.1328" rx="7.5" ry="7.5" style="stroke:#F4B031;stroke-width:0.0;" width="156" x="853.5" y="76.1328"/><text fill="#FFFFFF" font-family="sans-serif" font-size="12" lengthAdjust="spacing" textLength="144" x="859.5" y="93.7344">Query Language for Data</text><line style="stroke:#323232;stroke-width:1.5;" x1="931.5" x2="941.5" y1="117.332" y2="117.332"/><rect fill="#EFF1F3" height="26.1328" rx="7.5" ry="7.5" style="stroke:#A80036;stroke-width:0.0;" width="261" x="941.5" y="104.2656"/><text fill="#333333" font-family="sans-serif" font-size="12" lengthAdjust="spacing" textLength="249" x="947.5" y="121.8672">命令式查詢語言(Imperative)：如同程式語言。</text><line style="stroke:#323232;stroke-width:1.5;" x1="931.5" x2="941.5" y1="145.4648" y2="145.4648"/><rect fill="#EFF1F3" height="26.1328" rx="7.5" ry="7.5" style="stroke:#A80036;stroke-width:0.0;" width="168" x="941.5" y="132.3984"/><text fill="#333333" font-family="sans-serif" font-size="12" lengthAdjust="spacing" textLength="156" x="947.5" y="150">必須藉由人為維護查詢邏輯。</text><line style="stroke:#323232;stroke-width:1.5;" x1="931.5" x2="941.5" y1="173.5977" y2="173.5977"/><rect fill="#EFF1F3" height="26.1328" rx="7.5" ry="7.5" style="stroke:#A80036;stroke-width:0.0;" width="180" x="941.5" y="160.5313"/><text fill="#333333" font-family="sans-serif" font-size="12" lengthAdjust="spacing" textLength="168" x="947.5" y="178.1328">對資料集的結構變化極為敏感。</text><line style="stroke:#323232;stroke-width:1.5;" x1="931.5" x2="941.5" y1="201.7305" y2="201.7305"/><rect fill="#EFF1F3" height="26.1328" rx="7.5" ry="7.5" style="stroke:#A80036;stroke-width:0.0;" width="275" x="941.5" y="188.6641"/><text fill="#333333" font-family="sans-serif" font-size="12" lengthAdjust="spacing" textLength="263" x="947.5" y="206.2656">聲明式查詢語言(declarative)：如同抽象化設計。</text><line style="stroke:#323232;stroke-width:1.5;" x1="931.5" x2="941.5" y1="229.8633" y2="229.8633"/><rect fill="#EFF1F3" height="26.1328" rx="7.5" ry="7.5" style="stroke:#A80036;stroke-width:0.0;" width="120" x="941.5" y="216.7969"/><text fill="#333333" font-family="sans-serif" font-size="12" lengthAdjust="spacing" textLength="108" x="947.5" y="234.3984">只需提供搜尋條件。</text><line style="stroke:#323232;stroke-width:1.5;" x1="931.5" x2="941.5" y1="257.9961" y2="257.9961"/><rect fill="#EFF1F3" height="26.1328" rx="7.5" ry="7.5" style="stroke:#A80036;stroke-width:0.0;" width="180" x="941.5" y="244.9297"/><text fill="#333333" font-family="sans-serif" font-size="12" lengthAdjust="spacing" textLength="168" x="947.5" y="262.5313">透過查詢優化器提升查詢效能。</text><line style="stroke:#323232;stroke-width:1.5;" x1="931.5" x2="941.5" y1="286.1289" y2="286.1289"/><rect fill="#EFF1F3" height="26.1328" rx="7.5" ry="7.5" style="stroke:#A80036;stroke-width:0.0;" width="348" x="941.5" y="273.0625"/><text fill="#333333" font-family="sans-serif" font-size="12" lengthAdjust="spacing" textLength="336" x="947.5" y="290.6641">不在意資料間的對應關係，保留更多優化空間，例如平行處理。</text><line style="stroke:#323232;stroke-width:1.5;" x1="931.5" x2="941.5" y1="314.2617" y2="314.2617"/><rect fill="#F4B031" height="26.1328" rx="7.5" ry="7.5" style="stroke:#F4B031;stroke-width:0.0;" width="193" x="941.5" y="301.1953"/><text fill="#FFFFFF" font-family="sans-serif" font-size="12" lengthAdjust="spacing" textLength="181" x="947.5" y="318.7969">Declarative Queries on the Web</text><line style="stroke:#323232;stroke-width:1.5;" x1="1038" x2="1048" y1="342.3945" y2="342.3945"/><rect fill="#EFF1F3" height="26.1328" rx="7.5" ry="7.5" style="stroke:#A80036;stroke-width:0.0;" width="192" x="1048" y="329.3281"/><text fill="#333333" font-family="sans-serif" font-size="12" lengthAdjust="spacing" textLength="180" x="1054" y="346.9297">聲明式查詢語言具備較高可讀性。</text><line style="stroke:#323232;stroke-width:1.5;" x1="1038" x2="1038" y1="327.3281" y2="342.3945"/><line style="stroke:#323232;stroke-width:1.5;" x1="931.5" x2="941.5" y1="370.5273" y2="370.5273"/><rect fill="#F4B031" height="26.1328" rx="7.5" ry="7.5" style="stroke:#F4B031;stroke-width:0.0;" width="135" x="941.5" y="357.4609"/><text fill="#FFFFFF" font-family="sans-serif" font-size="12" lengthAdjust="spacing" textLength="123" x="947.5" y="375.0625">MapReduce Querying</text><line style="stroke:#323232;stroke-width:1.5;" x1="1009" x2="1019" y1="398.6602" y2="398.6602"/><rect fill="#EFF1F3" height="26.1328" rx="7.5" ry="7.5" style="stroke:#A80036;stroke-width:0.0;" width="180" x="1019" y="385.5938"/><text fill="#333333" font-family="sans-serif" font-size="12" lengthAdjust="spacing" textLength="168" x="1025" y="403.1953">混合命令與聲明式的查詢語言。</text><line style="stroke:#323232;stroke-width:1.5;" x1="1009" x2="1019" y1="426.793" y2="426.793"/><rect fill="#EFF1F3" height="26.1328" rx="7.5" ry="7.5" style="stroke:#A80036;stroke-width:0.0;" width="168" x="1019" y="413.7266"/><text fill="#333333" font-family="sans-serif" font-size="12" lengthAdjust="spacing" textLength="156" x="1025" y="431.3281">為可擴展性的硬體叢集服務。</text><line style="stroke:#323232;stroke-width:1.5;" x1="1009" x2="1019" y1="454.9258" y2="454.9258"/><rect fill="#EFF1F3" height="26.1328" rx="7.5" ry="7.5" style="stroke:#A80036;stroke-width:0.0;" width="233" x="1019" y="441.8594"/><text fill="#333333" font-family="sans-serif" font-size="12" lengthAdjust="spacing" textLength="221" x="1025" y="459.4609">藉由組合來實現 SQL 中的高階查詢方式。</text><line style="stroke:#323232;stroke-width:1.5;" x1="1009" x2="1019" y1="483.0586" y2="483.0586"/><rect fill="#EFF1F3" height="26.1328" rx="7.5" ry="7.5" style="stroke:#A80036;stroke-width:0.0;" width="180" x="1019" y="469.9922"/><text fill="#333333" font-family="sans-serif" font-size="12" lengthAdjust="spacing" textLength="168" x="1025" y="487.5938">保留更多的資料操作與維護性。</text><line style="stroke:#323232;stroke-width:1.5;" x1="1009" x2="1009" y1="383.5938" y2="483.0586"/><line style="stroke:#323232;stroke-width:1.5;" x1="931.5" x2="931.5" y1="102.2656" y2="370.5273"/><line style="stroke:#323232;stroke-width:1.5;" x1="1386.5" x2="1386.5" y1="56.1328" y2="76.1328"/><rect fill="#BD4231" height="26.1328" rx="7.5" ry="7.5" style="stroke:#BD4231;stroke-width:0.0;" width="154" x="1309.5" y="76.1328"/><text fill="#FFFFFF" font-family="sans-serif" font-size="12" lengthAdjust="spacing" textLength="142" x="1315.5" y="93.7344">Graph-Like Data Models</text><line style="stroke:#323232;stroke-width:1.5;" x1="1386.5" x2="1396.5" y1="117.332" y2="117.332"/><rect fill="#EFF1F3" height="26.1328" rx="7.5" ry="7.5" style="stroke:#A80036;stroke-width:0.0;" width="169" x="1396.5" y="104.2656"/><text fill="#333333" font-family="sans-serif" font-size="12" lengthAdjust="spacing" textLength="157" x="1402.5" y="121.8672">Vertex：aka Node, Entity。</text><line style="stroke:#323232;stroke-width:1.5;" x1="1386.5" x2="1396.5" y1="145.4648" y2="145.4648"/><rect fill="#EFF1F3" height="26.1328" rx="7.5" ry="7.5" style="stroke:#A80036;stroke-width:0.0;" width="187" x="1396.5" y="132.3984"/><text fill="#333333" font-family="sans-serif" font-size="12" lengthAdjust="spacing" textLength="175" x="1402.5" y="150">Edge：aka Relationship, Arc。</text><line style="stroke:#323232;stroke-width:1.5;" x1="1386.5" x2="1396.5" y1="173.5977" y2="173.5977"/><rect fill="#BD4231" height="26.1328" rx="7.5" ry="7.5" style="stroke:#BD4231;stroke-width:0.0;" width="107" x="1396.5" y="160.5313"/><text fill="#FFFFFF" font-family="sans-serif" font-size="12" lengthAdjust="spacing" textLength="95" x="1402.5" y="178.1328">Property Graphs</text><line style="stroke:#323232;stroke-width:1.5;" x1="1450" x2="1460" y1="201.7305" y2="201.7305"/><rect fill="#EFF1F3" height="26.1328" rx="7.5" ry="7.5" style="stroke:#A80036;stroke-width:0.0;" width="295" x="1460" y="188.6641"/><text fill="#333333" font-family="sans-serif" font-size="12" lengthAdjust="spacing" textLength="283" x="1466" y="206.2656">任意兩個 Vertices 都可以透過一條 edge 連在一起。</text><line style="stroke:#323232;stroke-width:1.5;" x1="1450" x2="1460" y1="229.8633" y2="229.8633"/><rect fill="#EFF1F3" height="26.1328" rx="7.5" ry="7.5" style="stroke:#A80036;stroke-width:0.0;" width="182" x="1460" y="216.7969"/><text fill="#333333" font-family="sans-serif" font-size="12" lengthAdjust="spacing" textLength="170" x="1466" y="234.3984">Vertex 包含一個 UUID，以及：</text><line style="stroke:#323232;stroke-width:1.5;" x1="1450" x2="1460" y1="257.9961" y2="257.9961"/><rect fill="#EFF1F3" height="26.1328" rx="7.5" ry="7.5" style="stroke:#A80036;stroke-width:0.0;" width="187" x="1460" y="244.9297"/><text fill="#333333" font-family="sans-serif" font-size="12" lengthAdjust="spacing" textLength="175" x="1466" y="262.5313">一組 outgoing/ingoing edges。</text><line style="stroke:#323232;stroke-width:1.5;" x1="1450" x2="1460" y1="286.1289" y2="286.1289"/><rect fill="#EFF1F3" height="26.1328" rx="7.5" ry="7.5" style="stroke:#A80036;stroke-width:0.0;" width="142" x="1460" y="273.0625"/><text fill="#333333" font-family="sans-serif" font-size="12" lengthAdjust="spacing" textLength="130" x="1466" y="290.6641">一組 key-value pairs。</text><line style="stroke:#323232;stroke-width:1.5;" x1="1450" x2="1460" y1="314.2617" y2="314.2617"/><rect fill="#EFF1F3" height="26.1328" rx="7.5" ry="7.5" style="stroke:#A80036;stroke-width:0.0;" width="173" x="1460" y="301.1953"/><text fill="#333333" font-family="sans-serif" font-size="12" lengthAdjust="spacing" textLength="161" x="1466" y="318.7969">Edge 包含一個 UUID，以及：</text><line style="stroke:#323232;stroke-width:1.5;" x1="1450" x2="1460" y1="342.3945" y2="342.3945"/><rect fill="#EFF1F3" height="26.1328" rx="7.5" ry="7.5" style="stroke:#A80036;stroke-width:0.0;" width="180" x="1460" y="329.3281"/><text fill="#333333" font-family="sans-serif" font-size="12" lengthAdjust="spacing" textLength="168" x="1466" y="346.9297">與之相連的 tail/head vertex。</text><line style="stroke:#323232;stroke-width:1.5;" x1="1450" x2="1460" y1="370.5273" y2="370.5273"/><rect fill="#EFF1F3" height="26.1328" rx="7.5" ry="7.5" style="stroke:#A80036;stroke-width:0.0;" width="120" x="1460" y="357.4609"/><text fill="#333333" font-family="sans-serif" font-size="12" lengthAdjust="spacing" textLength="108" x="1466" y="375.0625">代表其意義的標籤。</text><line style="stroke:#323232;stroke-width:1.5;" x1="1450" x2="1460" y1="398.6602" y2="398.6602"/><rect fill="#EFF1F3" height="26.1328" rx="7.5" ry="7.5" style="stroke:#A80036;stroke-width:0.0;" width="142" x="1460" y="385.5938"/><text fill="#333333" font-family="sans-serif" font-size="12" lengthAdjust="spacing" textLength="130" x="1466" y="403.1953">一組 key-value pairs。</text><line style="stroke:#323232;stroke-width:1.5;" x1="1450" x2="1450" y1="186.6641" y2="398.6602"/><line style="stroke:#323232;stroke-width:1.5;" x1="1386.5" x2="1396.5" y1="426.793" y2="426.793"/><rect fill="#BD4231" height="26.1328" rx="7.5" ry="7.5" style="stroke:#BD4231;stroke-width:0.0;" width="176" x="1396.5" y="413.7266"/><text fill="#FFFFFF" font-family="sans-serif" font-size="12" lengthAdjust="spacing" textLength="164" x="1402.5" y="431.3281">The Cypher Query Language</text><line style="stroke:#323232;stroke-width:1.5;" x1="1484.5" x2="1494.5" y1="454.9258" y2="454.9258"/><rect fill="#EFF1F3" height="26.1328" rx="7.5" ry="7.5" style="stroke:#A80036;stroke-width:0.0;" width="132" x="1494.5" y="441.8594"/><text fill="#333333" font-family="sans-serif" font-size="12" lengthAdjust="spacing" textLength="120" x="1500.5" y="459.4609">屬於聲明式查詢語言。</text><line style="stroke:#323232;stroke-width:1.5;" x1="1484.5" x2="1484.5" y1="439.8594" y2="454.9258"/><line style="stroke:#323232;stroke-width:1.5;" x1="1386.5" x2="1396.5" y1="483.0586" y2="483.0586"/><rect fill="#BD4231" height="26.1328" rx="7.5" ry="7.5" style="stroke:#BD4231;stroke-width:0.0;" width="135" x="1396.5" y="469.9922"/><text fill="#FFFFFF" font-family="sans-serif" font-size="12" lengthAdjust="spacing" textLength="123" x="1402.5" y="487.5938">Graph Queries in SQL</text><line style="stroke:#323232;stroke-width:1.5;" x1="1464" x2="1474" y1="511.1914" y2="511.1914"/><rect fill="#EFF1F3" height="26.1328" rx="7.5" ry="7.5" style="stroke:#A80036;stroke-width:0.0;" width="474" x="1474" y="498.125"/><text fill="#333333" font-family="sans-serif" font-size="12" lengthAdjust="spacing" textLength="462" x="1480" y="515.7266">SQL 在查詢多對多關係資料時所面臨到的問題為，我們必須知道有哪些表需要被 JOIN。</text><line style="stroke:#323232;stroke-width:1.5;" x1="1464" x2="1474" y1="539.3242" y2="539.3242"/><rect fill="#EFF1F3" height="26.1328" rx="7.5" ry="7.5" style="stroke:#A80036;stroke-width:0.0;" width="312" x="1474" y="526.2578"/><text fill="#333333" font-family="sans-serif" font-size="12" lengthAdjust="spacing" textLength="300" x="1480" y="543.8594">圖模型可以做到用更簡潔的語法表示複雜的遞迴表達式。</text><line style="stroke:#323232;stroke-width:1.5;" x1="1464" x2="1464" y1="496.125" y2="539.3242"/><line style="stroke:#323232;stroke-width:1.5;" x1="1386.5" x2="1396.5" y1="567.457" y2="567.457"/><rect fill="#BD4231" height="26.1328" rx="7.5" ry="7.5" style="stroke:#BD4231;stroke-width:0.0;" width="162" x="1396.5" y="554.3906"/><text fill="#FFFFFF" font-family="sans-serif" font-size="12" lengthAdjust="spacing" textLength="150" x="1402.5" y="571.9922">Triple-Stores and SPARQL</text><line style="stroke:#323232;stroke-width:1.5;" x1="1477.5" x2="1487.5" y1="595.5898" y2="595.5898"/><rect fill="#EFF1F3" height="26.1328" rx="7.5" ry="7.5" style="stroke:#A80036;stroke-width:0.0;" width="163" x="1487.5" y="582.5234"/><text fill="#333333" font-family="sans-serif" font-size="12" lengthAdjust="spacing" textLength="151" x="1493.5" y="600.125">(subjet, predicate, object)</text><line style="stroke:#323232;stroke-width:1.5;" x1="1477.5" x2="1487.5" y1="623.7227" y2="623.7227"/><rect fill="#EFF1F3" height="26.1328" rx="7.5" ry="7.5" style="stroke:#A80036;stroke-width:0.0;" width="210" x="1487.5" y="610.6563"/><text fill="#333333" font-family="sans-serif" font-size="12" lengthAdjust="spacing" textLength="198" x="1493.5" y="628.2578">subject 與圖模型中的 vertex 等價。</text><line style="stroke:#323232;stroke-width:1.5;" x1="1477.5" x2="1487.5" y1="651.8555" y2="651.8555"/><rect fill="#EFF1F3" height="26.1328" rx="7.5" ry="7.5" style="stroke:#A80036;stroke-width:0.0;" width="532" x="1487.5" y="638.7891"/><text fill="#333333" font-family="sans-serif" font-size="12" lengthAdjust="spacing" textLength="520" x="1493.5" y="656.3906">當 object 為 Primitive Datatype 時，predicate 與 object 與圖模型中的 key-value pair 等價。</text><line style="stroke:#323232;stroke-width:1.5;" x1="1477.5" x2="1487.5" y1="679.9883" y2="679.9883"/><rect fill="#EFF1F3" height="26.1328" rx="7.5" ry="7.5" style="stroke:#A80036;stroke-width:0.0;" width="418" x="1487.5" y="666.9219"/><text fill="#333333" font-family="sans-serif" font-size="12" lengthAdjust="spacing" textLength="406" x="1493.5" y="684.5234">當 object 表示為另一個 subject 時，predicate 與圖模型中的 edge 等價。</text><line style="stroke:#323232;stroke-width:1.5;" x1="1477.5" x2="1487.5" y1="708.1211" y2="708.1211"/><rect fill="#BD4231" height="26.1328" rx="7.5" ry="7.5" style="stroke:#BD4231;stroke-width:0.0;" width="117" x="1487.5" y="695.0547"/><text fill="#FFFFFF" font-family="sans-serif" font-size="12" lengthAdjust="spacing" textLength="105" x="1493.5" y="712.6563">The semantic web</text><line style="stroke:#323232;stroke-width:1.5;" x1="1546" x2="1556" y1="736.2539" y2="736.2539"/><rect fill="#EFF1F3" height="26.1328" rx="7.5" ry="7.5" style="stroke:#A80036;stroke-width:0.0;" width="400" x="1556" y="723.1875"/><text fill="#333333" font-family="sans-serif" font-size="12" lengthAdjust="spacing" textLength="388" x="1562" y="740.7891">它與 Triple-Stores 之間大概就像 JAVA 與 Javascript 之間的關係一樣。</text><line style="stroke:#323232;stroke-width:1.5;" x1="1546" x2="1546" y1="721.1875" y2="736.2539"/><line style="stroke:#323232;stroke-width:1.5;" x1="1477.5" x2="1487.5" y1="764.3867" y2="764.3867"/><rect fill="#BD4231" height="26.1328" rx="7.5" ry="7.5" style="stroke:#BD4231;stroke-width:0.0;" width="131" x="1487.5" y="751.3203"/><text fill="#FFFFFF" font-family="sans-serif" font-size="12" lengthAdjust="spacing" textLength="119" x="1493.5" y="768.9219">The RDF data model</text><line style="stroke:#323232;stroke-width:1.5;" x1="1553" x2="1563" y1="792.5195" y2="792.5195"/><rect fill="#EFF1F3" height="26.1328" rx="7.5" ry="7.5" style="stroke:#A80036;stroke-width:0.0;" width="358" x="1563" y="779.4531"/><text fill="#333333" font-family="sans-serif" font-size="12" lengthAdjust="spacing" textLength="346" x="1569" y="797.0547">W3C 在 1992 年制定，希望通過統一規則描述網路資源的方式。</text><line style="stroke:#323232;stroke-width:1.5;" x1="1553" x2="1563" y1="820.6523" y2="820.6523"/><rect fill="#EFF1F3" height="26.1328" rx="7.5" ry="7.5" style="stroke:#A80036;stroke-width:0.0;" width="232" x="1563" y="807.5859"/><text fill="#333333" font-family="sans-serif" font-size="12" lengthAdjust="spacing" textLength="220" x="1569" y="825.1875">Subject = Resource，表示物件的 URI。</text><line style="stroke:#323232;stroke-width:1.5;" x1="1553" x2="1563" y1="848.7852" y2="848.7852"/><rect fill="#EFF1F3" height="26.1328" rx="7.5" ry="7.5" style="stroke:#A80036;stroke-width:0.0;" width="253" x="1563" y="835.7188"/><text fill="#333333" font-family="sans-serif" font-size="12" lengthAdjust="spacing" textLength="241" x="1569" y="853.3203">Predicate = Property，表示欲描述的特徵。</text><line style="stroke:#323232;stroke-width:1.5;" x1="1553" x2="1563" y1="876.918" y2="876.918"/><rect fill="#EFF1F3" height="26.1328" rx="7.5" ry="7.5" style="stroke:#A80036;stroke-width:0.0;" width="209" x="1563" y="863.8516"/><text fill="#333333" font-family="sans-serif" font-size="12" lengthAdjust="spacing" textLength="197" x="1569" y="881.4531">Object = Statement，表示其內容。</text><line style="stroke:#323232;stroke-width:1.5;" x1="1553" x2="1553" y1="777.4531" y2="876.918"/><line style="stroke:#323232;stroke-width:1.5;" x1="1477.5" x2="1477.5" y1="580.5234" y2="764.3867"/><line style="stroke:#323232;stroke-width:1.5;" x1="1386.5" x2="1396.5" y1="905.0508" y2="905.0508"/><rect fill="#BD4231" height="26.1328" rx="7.5" ry="7.5" style="stroke:#BD4231;stroke-width:0.0;" width="175" x="1396.5" y="891.9844"/><text fill="#FFFFFF" font-family="sans-serif" font-size="12" lengthAdjust="spacing" textLength="163" x="1402.5" y="909.5859">The SPARQL query language</text><line style="stroke:#323232;stroke-width:1.5;" x1="1484" x2="1494" y1="933.1836" y2="933.1836"/><rect fill="#EFF1F3" height="26.1328" rx="7.5" ry="7.5" style="stroke:#A80036;stroke-width:0.0;" width="226" x="1494" y="920.1172"/><text fill="#333333" font-family="sans-serif" font-size="12" lengthAdjust="spacing" textLength="214" x="1500" y="937.7188">Cypher 的前身，與 Cypher 極其相似。</text><line style="stroke:#323232;stroke-width:1.5;" x1="1484" x2="1494" y1="961.3164" y2="961.3164"/><rect fill="#BD4231" height="26.1328" rx="7.5" ry="7.5" style="stroke:#BD4231;stroke-width:0.0;" width="306" x="1494" y="948.25"/><text fill="#FFFFFF" font-family="sans-serif" font-size="12" lengthAdjust="spacing" textLength="294" x="1500" y="965.8516">Graph Databases Compared to the Network Model</text><line style="stroke:#323232;stroke-width:1.5;" x1="1647" x2="1657" y1="989.4492" y2="989.4492"/><rect fill="#EFF1F3" height="26.1328" rx="7.5" ry="7.5" style="stroke:#A80036;stroke-width:0.0;" width="321" x="1657" y="976.3828"/><text fill="#333333" font-family="sans-serif" font-size="12" lengthAdjust="spacing" textLength="309" x="1663" y="993.9844">CODASYL 受限 schema，無法任意關聯兩筆不同的資料。</text><line style="stroke:#323232;stroke-width:1.5;" x1="1647" x2="1657" y1="1017.582" y2="1017.582"/><rect fill="#EFF1F3" height="26.1328" rx="7.5" ry="7.5" style="stroke:#A80036;stroke-width:0.0;" width="216" x="1657" y="1004.5156"/><text fill="#333333" font-family="sans-serif" font-size="12" lengthAdjust="spacing" textLength="204" x="1663" y="1022.1172">命令式查詢語言 vs. 聲明式查詢語言。</text><line style="stroke:#323232;stroke-width:1.5;" x1="1647" x2="1657" y1="1045.7148" y2="1045.7148"/><rect fill="#EFF1F3" height="26.1328" rx="7.5" ry="7.5" style="stroke:#A80036;stroke-width:0.0;" width="381" x="1657" y="1032.6484"/><text fill="#333333" font-family="sans-serif" font-size="12" lengthAdjust="spacing" textLength="369" x="1663" y="1050.25">CODASYL 在搜尋時必須自行窮舉，圖模型可以透過查詢優化器預測。</text><line style="stroke:#323232;stroke-width:1.5;" x1="1647" x2="1657" y1="1073.8477" y2="1073.8477"/><rect fill="#EFF1F3" height="26.1328" rx="7.5" ry="7.5" style="stroke:#A80036;stroke-width:0.0;" width="261" x="1657" y="1060.7813"/><text fill="#333333" font-family="sans-serif" font-size="12" lengthAdjust="spacing" textLength="249" x="1663" y="1078.3828">CODASYL 對資料集極其敏感，維護成本較高。</text><line style="stroke:#323232;stroke-width:1.5;" x1="1647" x2="1647" y1="974.3828" y2="1073.8477"/><line style="stroke:#323232;stroke-width:1.5;" x1="1484" x2="1484" y1="918.1172" y2="961.3164"/><line style="stroke:#323232;stroke-width:1.5;" x1="1386.5" x2="1396.5" y1="1101.9805" y2="1101.9805"/><rect fill="#BD4231" height="26.1328" rx="7.5" ry="7.5" style="stroke:#BD4231;stroke-width:0.0;" width="153" x="1396.5" y="1088.9141"/><text fill="#FFFFFF" font-family="sans-serif" font-size="12" lengthAdjust="spacing" textLength="141" x="1402.5" y="1106.5156">The Foundation: Datalog</text><line style="stroke:#323232;stroke-width:1.5;" x1="1473" x2="1483" y1="1130.1133" y2="1130.1133"/><rect fill="#EFF1F3" height="26.1328" rx="7.5" ry="7.5" style="stroke:#A80036;stroke-width:0.0;" width="192" x="1483" y="1117.0469"/><text fill="#333333" font-family="sans-serif" font-size="12" lengthAdjust="spacing" textLength="180" x="1489" y="1134.6484">可以說是奠定了查詢語言的前身。</text><line style="stroke:#323232;stroke-width:1.5;" x1="1473" x2="1483" y1="1158.2461" y2="1158.2461"/><rect fill="#EFF1F3" height="26.1328" rx="7.5" ry="7.5" style="stroke:#A80036;stroke-width:0.0;" width="413" x="1483" y="1145.1797"/><text fill="#333333" font-family="sans-serif" font-size="12" lengthAdjust="spacing" textLength="401" x="1489" y="1162.7813">與 Triple-Stores 對資料模型的描述十分相似：predicate(subject, object)</text><line style="stroke:#323232;stroke-width:1.5;" x1="1473" x2="1483" y1="1186.3789" y2="1186.3789"/><rect fill="#EFF1F3" height="26.1328" rx="7.5" ry="7.5" style="stroke:#A80036;stroke-width:0.0;" width="384" x="1483" y="1173.3125"/><text fill="#333333" font-family="sans-serif" font-size="12" lengthAdjust="spacing" textLength="372" x="1489" y="1190.9141">透過給定規則實現查詢邏輯，如同程式中的函數，可以實現自我遞迴。</text><line style="stroke:#323232;stroke-width:1.5;" x1="1473" x2="1473" y1="1115.0469" y2="1186.3789"/><line style="stroke:#323232;stroke-width:1.5;" x1="1386.5" x2="1386.5" y1="102.2656" y2="1101.9805"/><line style="stroke:#323232;stroke-width:1.5;" x1="124" x2="1386.5" y1="56.1328" y2="56.1328"/><!--MD5=[01c37383679a03d0d9e409d9df62134d]
@startwbs ch2_wbs

skinparam Shadowing false
skinparam BackgroundColor #EFF1F3
skinparam linetype ortho

<style>
arrow {
    LineColor #323232
}
node {
    Padding 6
    Margin 2
    RoundCorner 15
    LineThickness 0.0
    BackgroundColor #EFF1F3
    FontColor #333333
}
.Type_Root {
    BackgroundColor #323232
    FontColor #FFFFFF
    LineColor #323232
}
.Type1_Node {
    BackgroundColor #D3548A
    FontColor #FFFFFF
    LineColor #D3548A
}
.Type1_LeafNode {
    RoundCorner 0
    LineThickness 1.0
    LineColor #D3548A
}
.Type2_Node {
    BackgroundColor #F4B031
    FontColor #FFFFFF
    LineColor #F4B031
}
.Type2_LeafNode {
    RoundCorner 0
    LineThickness 1.0
    LineColor #F4B031
}
.Type3_Node {
    BackgroundColor #BD4231
    FontColor #FFFFFF
    LineColor #BD4231
}
.Type3_LeafNode {
    RoundCorner 0
    LineThickness 1.0
    LineColor #BD4231
}
.Type4_Node {
    BackgroundColor #0F5E8C
    FontColor #FFFFFF
    LineColor #0F5E8C
}
.Type4_LeafNode {
    RoundCorner 0
    LineThickness 1.0
    LineColor #0F5E8C
}
.Type5_Node {
    BackgroundColor #37A7A8
    FontColor #FFFFFF
    LineColor #37A7A8
}
.Type5_LeafNode {
    RoundCorner 0
    LineThickness 1.0
    LineColor #37A7A8
}
</style>

* DDIA Chapter.2 - Data Models and Query Languages<<Type_Root>>

** Relational Model vs. Document Model<<Type1_Node>>

*** 1970 年 Edgar F. Codd 提出關聯模型。
*** 是當時在商業應用中操作結構化資料的首選解決方案。
*** 其強項為 Transaction 與 batch processing。

*** The Birth of NoSQL<<Type1_Node>>
**** 源自 2009 年的一場線上開源聚會。
**** 需要比關聯模型更好的可擴展性與寫入吞吐量。
**** 掙脫 schema 帶來的限制與束縛。

*** The Object-Relational Mismatch<<Type1_Node>>
**** 大多透過 ORM 框架處理中介轉換。
**** 關聯模型相較文件模型而言，較不擅長處理一對多的資料關係。
**** JSON 非常適合描述 self-contained的資料關係。

*** Many-to-One and Many-to-Many Relationship<<Type1_Node>>
**** 關聯模型提供的正規化優勢：避免歧義、減\n少冗余、易於更新與查詢。
**** 比文件模型更擅長描述多對一的資料關係。

*** Are Document Databases Repeating History ?<<Type1_Node>>
**** 1970 年 IBM 提出的階層模型與現代的文件模型十分接近。
**** 不支援 JOIN，非常不利於多對多關係查詢。

**** The Network Model<<Type1_Node>>
***** 根據階層模型演化而來，又稱 CODASYL 模型。
***** 為了解決多對一與多對多資料關係，提出類似指標的方式關聯資料，稱為 Access Path。
***** 必須人為維護複雜的查詢算法。

**** The Relation Model<<Type1_Node>>
***** 能夠靈活且直覺的操作 CRUD。
***** 不需人工維護查詢算法，由查詢優化器自動計算。
***** 加入索引可以有效加速查詢速度。

**** Comparison to document model<<Type1_Node>>
***** 借鑑階層模型描述一對多資料關係的方式：record tree。
***** 借鑑關聯模型描述多對一資料關係的方式：foreign key。

*** Relational Versus Document Databases Today<<Type1_Node>>
**** 關聯模型適合多對一資料關係。
**** 文件模型適合一對多資料關係。

**** Which data model leads to simpler application code<<Type1_Node>>
***** 根據業務情境而定。

**** Schema flexibility in the document model<<Type1_Node>>
***** 文件模型通常為 schema on read。
***** 關聯模型通常為 schema on write。
***** 在需要 migration 時的差異尤其明顯。

**** Data locality for queries<<Type1_Node>>
***** storage locality 是把雙面刃，其保存型態通常是 encoded byte datatype。
***** 即使只是小面積修改資料，還是需要操作整份資料。
***** 但其優勢也被相繼加入到各自的 RDBMS 的產品內。

**** Convergence of document and relational databases<<Type1_Node>>
***** E.F.Codd 在 1970 年時也曾提出類似於互相融合的概念。
***** 隨著時間迭代，彼此差異逐漸縮小。

** Query Language for Data<<Type2_Node>>
*** 命令式查詢語言(Imperative)：如同程式語言。
*** 必須藉由人為維護查詢邏輯。
*** 對資料集的結構變化極為敏感。
*** 聲明式查詢語言(declarative)：如同抽象化設計。
*** 只需提供搜尋條件。
*** 透過查詢優化器提升查詢效能。
*** 不在意資料間的對應關係，保留更多優化空間，例如平行處理。

*** Declarative Queries on the Web<<Type2_Node>>
**** 聲明式查詢語言具備較高可讀性。

*** MapReduce Querying<<Type2_Node>>
**** 混合命令與聲明式的查詢語言。
**** 為可擴展性的硬體叢集服務。
**** 藉由組合來實現 SQL 中的高階查詢方式。
**** 保留更多的資料操作與維護性。

** Graph-Like Data Models<<Type3_Node>>
*** Vertex：aka Node, Entity。
*** Edge：aka Relationship, Arc。

*** Property Graphs<<Type3_Node>>
**** 任意兩個 Vertices 都可以透過一條 edge 連在一起。
**** Vertex 包含一個 UUID，以及：
**** 一組 outgoing/ingoing edges。
**** 一組 key-value pairs。
**** Edge 包含一個 UUID，以及：
**** 與之相連的 tail/head vertex。
**** 代表其意義的標籤。
**** 一組 key-value pairs。

*** The Cypher Query Language<<Type3_Node>>
**** 屬於聲明式查詢語言。

*** Graph Queries in SQL<<Type3_Node>>
**** SQL 在查詢多對多關係資料時所面臨到的問題為，我們必須知道有哪些表需要被 JOIN。
**** 圖模型可以做到用更簡潔的語法表示複雜的遞迴表達式。

*** Triple-Stores and SPARQL<<Type3_Node>>
**** (subjet, predicate, object)
**** subject 與圖模型中的 vertex 等價。
**** 當 object 為 Primitive Datatype 時，predicate 與 object 與圖模型中的 key-value pair 等價。
**** 當 object 表示為另一個 subject 時，predicate 與圖模型中的 edge 等價。

**** The semantic web<<Type3_Node>>
***** 它與 Triple-Stores 之間大概就像 JAVA 與 Javascript 之間的關係一樣。

**** The RDF data model<<Type3_Node>>
***** W3C 在 1992 年制定，希望通過統一規則描述網路資源的方式。
***** Subject = Resource，表示物件的 URI。
***** Predicate = Property，表示欲描述的特徵。
***** Object = Statement，表示其內容。

*** The SPARQL query language<<Type3_Node>>
**** Cypher 的前身，與 Cypher 極其相似。

**** Graph Databases Compared to the Network Model<<Type3_Node>>
***** CODASYL 受限 schema，無法任意關聯兩筆不同的資料。
***** 命令式查詢語言 vs. 聲明式查詢語言。
***** CODASYL 在搜尋時必須自行窮舉，圖模型可以透過查詢優化器預測。
***** CODASYL 對資料集極其敏感，維護成本較高。

*** The Foundation: Datalog<<Type3_Node>>
**** 可以說是奠定了查詢語言的前身。
**** 與 Triple-Stores 對資料模型的描述十分相似：predicate(subject, object)
**** 透過給定規則實現查詢邏輯，如同程式中的函數，可以實現自我遞迴。

@endwbs

PlantUML version 1.2021.00(Sun Jan 10 18:25:05 CST 2021)
(GPL source distribution)
Java Runtime: OpenJDK Runtime Environment
JVM: OpenJDK 64-Bit Server VM
Default Encoding: UTF-8
Language: zh
Country: TW
--></g></svg>