<?xml version="1.0" encoding="UTF-8" standalone="no"?><svg xmlns="http://www.w3.org/2000/svg" xmlns:xlink="http://www.w3.org/1999/xlink" contentScriptType="application/ecmascript" contentStyleType="text/css" height="872px" preserveAspectRatio="none" style="width:971px;height:872px;background:#EFF1F3;" version="1.1" viewBox="0 0 971 872" width="971px" zoomAndPan="magnify"><defs/><g><rect fill="#323232" height="26.1328" rx="7.5" ry="7.5" style="stroke:#323232;stroke-width:0.0;" width="251" x="349.5" y="10"/><text fill="#FFFFFF" font-family="sans-serif" font-size="12" lengthAdjust="spacing" textLength="239" x="355.5" y="27.6016">DDIA Chapter.4 - Encoding and Evolution</text><line style="stroke:#323232;stroke-width:1.5;" x1="475" x2="475" y1="36.1328" y2="56.1328"/><line style="stroke:#323232;stroke-width:1.5;" x1="92.5" x2="92.5" y1="56.1328" y2="76.1328"/><rect fill="#D3548A" height="26.1328" rx="7.5" ry="7.5" style="stroke:#D3548A;stroke-width:0.0;" width="165" x="10" y="76.1328"/><text fill="#FFFFFF" font-family="sans-serif" font-size="12" lengthAdjust="spacing" textLength="153" x="16" y="93.7344">Formats for Encoding Data</text><line style="stroke:#323232;stroke-width:1.5;" x1="92.5" x2="102.5" y1="117.332" y2="117.332"/><rect fill="#EFF1F3" height="26.1328" rx="7.5" ry="7.5" style="stroke:#A80036;stroke-width:0.0;" width="64" x="102.5" y="104.2656"/><text fill="#333333" font-family="sans-serif" font-size="12" lengthAdjust="spacing" textLength="52" x="108.5" y="121.8672">施工中 ...</text><line style="stroke:#323232;stroke-width:1.5;" x1="92.5" x2="102.5" y1="145.4648" y2="145.4648"/><rect fill="#D3548A" height="26.1328" rx="7.5" ry="7.5" style="stroke:#D3548A;stroke-width:0.0;" width="167" x="102.5" y="132.3984"/><text fill="#FFFFFF" font-family="sans-serif" font-size="12" lengthAdjust="spacing" textLength="155" x="108.5" y="150">Language-Specific Formats</text><line style="stroke:#323232;stroke-width:1.5;" x1="186" x2="196" y1="173.5977" y2="173.5977"/><rect fill="#EFF1F3" height="26.1328" rx="7.5" ry="7.5" style="stroke:#A80036;stroke-width:0.0;" width="64" x="196" y="160.5313"/><text fill="#333333" font-family="sans-serif" font-size="12" lengthAdjust="spacing" textLength="52" x="202" y="178.1328">施工中 ...</text><line style="stroke:#323232;stroke-width:1.5;" x1="186" x2="186" y1="158.5313" y2="173.5977"/><line style="stroke:#323232;stroke-width:1.5;" x1="92.5" x2="102.5" y1="201.7305" y2="201.7305"/><rect fill="#D3548A" height="26.1328" rx="7.5" ry="7.5" style="stroke:#D3548A;stroke-width:0.0;" width="192" x="102.5" y="188.6641"/><text fill="#FFFFFF" font-family="sans-serif" font-size="12" lengthAdjust="spacing" textLength="180" x="108.5" y="206.2656">JSON, XML, and Binary Variants</text><line style="stroke:#323232;stroke-width:1.5;" x1="198.5" x2="208.5" y1="229.8633" y2="229.8633"/><rect fill="#EFF1F3" height="26.1328" rx="7.5" ry="7.5" style="stroke:#A80036;stroke-width:0.0;" width="64" x="208.5" y="216.7969"/><text fill="#333333" font-family="sans-serif" font-size="12" lengthAdjust="spacing" textLength="52" x="214.5" y="234.3984">施工中 ...</text><line style="stroke:#323232;stroke-width:1.5;" x1="198.5" x2="208.5" y1="257.9961" y2="257.9961"/><rect fill="#D3548A" height="26.1328" rx="7.5" ry="7.5" style="stroke:#D3548A;stroke-width:0.0;" width="103" x="208.5" y="244.9297"/><text fill="#FFFFFF" font-family="sans-serif" font-size="12" lengthAdjust="spacing" textLength="91" x="214.5" y="262.5313">Binary encoding</text><line style="stroke:#323232;stroke-width:1.5;" x1="260" x2="270" y1="286.1289" y2="286.1289"/><rect fill="#EFF1F3" height="26.1328" rx="7.5" ry="7.5" style="stroke:#A80036;stroke-width:0.0;" width="64" x="270" y="273.0625"/><text fill="#333333" font-family="sans-serif" font-size="12" lengthAdjust="spacing" textLength="52" x="276" y="290.6641">施工中 ...</text><line style="stroke:#323232;stroke-width:1.5;" x1="260" x2="260" y1="271.0625" y2="286.1289"/><line style="stroke:#323232;stroke-width:1.5;" x1="198.5" x2="198.5" y1="214.7969" y2="257.9961"/><line style="stroke:#323232;stroke-width:1.5;" x1="92.5" x2="102.5" y1="314.2617" y2="314.2617"/><rect fill="#D3548A" height="26.1328" rx="7.5" ry="7.5" style="stroke:#D3548A;stroke-width:0.0;" width="163" x="102.5" y="301.1953"/><text fill="#FFFFFF" font-family="sans-serif" font-size="12" lengthAdjust="spacing" textLength="151" x="108.5" y="318.7969">Thrift and Protocol Buffers</text><line style="stroke:#323232;stroke-width:1.5;" x1="184" x2="194" y1="342.3945" y2="342.3945"/><rect fill="#EFF1F3" height="26.1328" rx="7.5" ry="7.5" style="stroke:#A80036;stroke-width:0.0;" width="64" x="194" y="329.3281"/><text fill="#333333" font-family="sans-serif" font-size="12" lengthAdjust="spacing" textLength="52" x="200" y="346.9297">施工中 ...</text><line style="stroke:#323232;stroke-width:1.5;" x1="184" x2="194" y1="370.5273" y2="370.5273"/><rect fill="#D3548A" height="26.1328" rx="7.5" ry="7.5" style="stroke:#D3548A;stroke-width:0.0;" width="196" x="194" y="357.4609"/><text fill="#FFFFFF" font-family="sans-serif" font-size="12" lengthAdjust="spacing" textLength="184" x="200" y="375.0625">Field tags and schema evolution</text><line style="stroke:#323232;stroke-width:1.5;" x1="292" x2="302" y1="398.6602" y2="398.6602"/><rect fill="#EFF1F3" height="26.1328" rx="7.5" ry="7.5" style="stroke:#A80036;stroke-width:0.0;" width="64" x="302" y="385.5938"/><text fill="#333333" font-family="sans-serif" font-size="12" lengthAdjust="spacing" textLength="52" x="308" y="403.1953">施工中 ...</text><line style="stroke:#323232;stroke-width:1.5;" x1="292" x2="292" y1="383.5938" y2="398.6602"/><line style="stroke:#323232;stroke-width:1.5;" x1="184" x2="194" y1="426.793" y2="426.793"/><rect fill="#D3548A" height="26.1328" rx="7.5" ry="7.5" style="stroke:#D3548A;stroke-width:0.0;" width="199" x="194" y="413.7266"/><text fill="#FFFFFF" font-family="sans-serif" font-size="12" lengthAdjust="spacing" textLength="187" x="200" y="431.3281">Datatypes and schema evolution</text><line style="stroke:#323232;stroke-width:1.5;" x1="293.5" x2="303.5" y1="454.9258" y2="454.9258"/><rect fill="#EFF1F3" height="26.1328" rx="7.5" ry="7.5" style="stroke:#A80036;stroke-width:0.0;" width="64" x="303.5" y="441.8594"/><text fill="#333333" font-family="sans-serif" font-size="12" lengthAdjust="spacing" textLength="52" x="309.5" y="459.4609">施工中 ...</text><line style="stroke:#323232;stroke-width:1.5;" x1="293.5" x2="293.5" y1="439.8594" y2="454.9258"/><line style="stroke:#323232;stroke-width:1.5;" x1="184" x2="184" y1="327.3281" y2="426.793"/><line style="stroke:#323232;stroke-width:1.5;" x1="92.5" x2="102.5" y1="483.0586" y2="483.0586"/><rect fill="#D3548A" height="26.1328" rx="7.5" ry="7.5" style="stroke:#D3548A;stroke-width:0.0;" width="38" x="102.5" y="469.9922"/><text fill="#FFFFFF" font-family="sans-serif" font-size="12" lengthAdjust="spacing" textLength="26" x="108.5" y="487.5938">Avro</text><line style="stroke:#323232;stroke-width:1.5;" x1="121.5" x2="131.5" y1="511.1914" y2="511.1914"/><rect fill="#EFF1F3" height="26.1328" rx="7.5" ry="7.5" style="stroke:#A80036;stroke-width:0.0;" width="64" x="131.5" y="498.125"/><text fill="#333333" font-family="sans-serif" font-size="12" lengthAdjust="spacing" textLength="52" x="137.5" y="515.7266">施工中 ...</text><line style="stroke:#323232;stroke-width:1.5;" x1="121.5" x2="131.5" y1="539.3242" y2="539.3242"/><rect fill="#D3548A" height="26.1328" rx="7.5" ry="7.5" style="stroke:#D3548A;stroke-width:0.0;" width="276" x="131.5" y="526.2578"/><text fill="#FFFFFF" font-family="sans-serif" font-size="12" lengthAdjust="spacing" textLength="264" x="137.5" y="543.8594">The writer's schema and the reader's schema</text><line style="stroke:#323232;stroke-width:1.5;" x1="269.5" x2="279.5" y1="567.457" y2="567.457"/><rect fill="#EFF1F3" height="26.1328" rx="7.5" ry="7.5" style="stroke:#A80036;stroke-width:0.0;" width="64" x="279.5" y="554.3906"/><text fill="#333333" font-family="sans-serif" font-size="12" lengthAdjust="spacing" textLength="52" x="285.5" y="571.9922">施工中 ...</text><line style="stroke:#323232;stroke-width:1.5;" x1="269.5" x2="269.5" y1="552.3906" y2="567.457"/><line style="stroke:#323232;stroke-width:1.5;" x1="121.5" x2="131.5" y1="595.5898" y2="595.5898"/><rect fill="#D3548A" height="26.1328" rx="7.5" ry="7.5" style="stroke:#D3548A;stroke-width:0.0;" width="143" x="131.5" y="582.5234"/><text fill="#FFFFFF" font-family="sans-serif" font-size="12" lengthAdjust="spacing" textLength="131" x="137.5" y="600.125">Schema evolution rules</text><line style="stroke:#323232;stroke-width:1.5;" x1="203" x2="213" y1="623.7227" y2="623.7227"/><rect fill="#EFF1F3" height="26.1328" rx="7.5" ry="7.5" style="stroke:#A80036;stroke-width:0.0;" width="64" x="213" y="610.6563"/><text fill="#333333" font-family="sans-serif" font-size="12" lengthAdjust="spacing" textLength="52" x="219" y="628.2578">施工中 ...</text><line style="stroke:#323232;stroke-width:1.5;" x1="203" x2="203" y1="608.6563" y2="623.7227"/><line style="stroke:#323232;stroke-width:1.5;" x1="121.5" x2="131.5" y1="651.8555" y2="651.8555"/><rect fill="#D3548A" height="26.1328" rx="7.5" ry="7.5" style="stroke:#D3548A;stroke-width:0.0;" width="190" x="131.5" y="638.7891"/><text fill="#FFFFFF" font-family="sans-serif" font-size="12" lengthAdjust="spacing" textLength="178" x="137.5" y="656.3906">But what is the writer's schema</text><line style="stroke:#323232;stroke-width:1.5;" x1="226.5" x2="236.5" y1="679.9883" y2="679.9883"/><rect fill="#EFF1F3" height="26.1328" rx="7.5" ry="7.5" style="stroke:#A80036;stroke-width:0.0;" width="64" x="236.5" y="666.9219"/><text fill="#333333" font-family="sans-serif" font-size="12" lengthAdjust="spacing" textLength="52" x="242.5" y="684.5234">施工中 ...</text><line style="stroke:#323232;stroke-width:1.5;" x1="226.5" x2="226.5" y1="664.9219" y2="679.9883"/><line style="stroke:#323232;stroke-width:1.5;" x1="121.5" x2="131.5" y1="708.1211" y2="708.1211"/><rect fill="#D3548A" height="26.1328" rx="7.5" ry="7.5" style="stroke:#D3548A;stroke-width:0.0;" width="197" x="131.5" y="695.0547"/><text fill="#FFFFFF" font-family="sans-serif" font-size="12" lengthAdjust="spacing" textLength="185" x="137.5" y="712.6563">Dynamically generated schemas</text><line style="stroke:#323232;stroke-width:1.5;" x1="230" x2="240" y1="736.2539" y2="736.2539"/><rect fill="#EFF1F3" height="26.1328" rx="7.5" ry="7.5" style="stroke:#A80036;stroke-width:0.0;" width="64" x="240" y="723.1875"/><text fill="#333333" font-family="sans-serif" font-size="12" lengthAdjust="spacing" textLength="52" x="246" y="740.7891">施工中 ...</text><line style="stroke:#323232;stroke-width:1.5;" x1="230" x2="230" y1="721.1875" y2="736.2539"/><line style="stroke:#323232;stroke-width:1.5;" x1="121.5" x2="131.5" y1="764.3867" y2="764.3867"/><rect fill="#D3548A" height="26.1328" rx="7.5" ry="7.5" style="stroke:#D3548A;stroke-width:0.0;" width="303" x="131.5" y="751.3203"/><text fill="#FFFFFF" font-family="sans-serif" font-size="12" lengthAdjust="spacing" textLength="291" x="137.5" y="768.9219">Code generation and dynamically typed languages</text><line style="stroke:#323232;stroke-width:1.5;" x1="283" x2="293" y1="792.5195" y2="792.5195"/><rect fill="#EFF1F3" height="26.1328" rx="7.5" ry="7.5" style="stroke:#A80036;stroke-width:0.0;" width="64" x="293" y="779.4531"/><text fill="#333333" font-family="sans-serif" font-size="12" lengthAdjust="spacing" textLength="52" x="299" y="797.0547">施工中 ...</text><line style="stroke:#323232;stroke-width:1.5;" x1="283" x2="283" y1="777.4531" y2="792.5195"/><line style="stroke:#323232;stroke-width:1.5;" x1="121.5" x2="121.5" y1="496.125" y2="764.3867"/><line style="stroke:#323232;stroke-width:1.5;" x1="92.5" x2="102.5" y1="820.6523" y2="820.6523"/><rect fill="#D3548A" height="26.1328" rx="7.5" ry="7.5" style="stroke:#D3548A;stroke-width:0.0;" width="142" x="102.5" y="807.5859"/><text fill="#FFFFFF" font-family="sans-serif" font-size="12" lengthAdjust="spacing" textLength="130" x="108.5" y="825.1875">The Merits of Schemas</text><line style="stroke:#323232;stroke-width:1.5;" x1="173.5" x2="183.5" y1="848.7852" y2="848.7852"/><rect fill="#EFF1F3" height="26.1328" rx="7.5" ry="7.5" style="stroke:#A80036;stroke-width:0.0;" width="64" x="183.5" y="835.7188"/><text fill="#333333" font-family="sans-serif" font-size="12" lengthAdjust="spacing" textLength="52" x="189.5" y="853.3203">施工中 ...</text><line style="stroke:#323232;stroke-width:1.5;" x1="173.5" x2="173.5" y1="833.7188" y2="848.7852"/><line style="stroke:#323232;stroke-width:1.5;" x1="92.5" x2="92.5" y1="102.2656" y2="820.6523"/><line style="stroke:#323232;stroke-width:1.5;" x1="514" x2="514" y1="56.1328" y2="76.1328"/><rect fill="#F4B031" height="26.1328" rx="7.5" ry="7.5" style="stroke:#F4B031;stroke-width:0.0;" width="119" x="454.5" y="76.1328"/><text fill="#FFFFFF" font-family="sans-serif" font-size="12" lengthAdjust="spacing" textLength="107" x="460.5" y="93.7344">Modes of Dataflow</text><line style="stroke:#323232;stroke-width:1.5;" x1="514" x2="524" y1="117.332" y2="117.332"/><rect fill="#EFF1F3" height="26.1328" rx="7.5" ry="7.5" style="stroke:#A80036;stroke-width:0.0;" width="64" x="524" y="104.2656"/><text fill="#333333" font-family="sans-serif" font-size="12" lengthAdjust="spacing" textLength="52" x="530" y="121.8672">施工中 ...</text><line style="stroke:#323232;stroke-width:1.5;" x1="514" x2="524" y1="145.4648" y2="145.4648"/><rect fill="#F4B031" height="26.1328" rx="7.5" ry="7.5" style="stroke:#F4B031;stroke-width:0.0;" width="179" x="524" y="132.3984"/><text fill="#FFFFFF" font-family="sans-serif" font-size="12" lengthAdjust="spacing" textLength="167" x="530" y="150">Dataflow Through Databases</text><line style="stroke:#323232;stroke-width:1.5;" x1="613.5" x2="623.5" y1="173.5977" y2="173.5977"/><rect fill="#EFF1F3" height="26.1328" rx="7.5" ry="7.5" style="stroke:#A80036;stroke-width:0.0;" width="64" x="623.5" y="160.5313"/><text fill="#333333" font-family="sans-serif" font-size="12" lengthAdjust="spacing" textLength="52" x="629.5" y="178.1328">施工中 ...</text><line style="stroke:#323232;stroke-width:1.5;" x1="613.5" x2="623.5" y1="201.7305" y2="201.7305"/><rect fill="#F4B031" height="26.1328" rx="7.5" ry="7.5" style="stroke:#F4B031;stroke-width:0.0;" width="248" x="623.5" y="188.6641"/><text fill="#FFFFFF" font-family="sans-serif" font-size="12" lengthAdjust="spacing" textLength="236" x="629.5" y="206.2656">Different values written at different times</text><line style="stroke:#323232;stroke-width:1.5;" x1="747.5" x2="757.5" y1="229.8633" y2="229.8633"/><rect fill="#EFF1F3" height="26.1328" rx="7.5" ry="7.5" style="stroke:#A80036;stroke-width:0.0;" width="64" x="757.5" y="216.7969"/><text fill="#333333" font-family="sans-serif" font-size="12" lengthAdjust="spacing" textLength="52" x="763.5" y="234.3984">施工中 ...</text><line style="stroke:#323232;stroke-width:1.5;" x1="747.5" x2="747.5" y1="214.7969" y2="229.8633"/><line style="stroke:#323232;stroke-width:1.5;" x1="613.5" x2="623.5" y1="257.9961" y2="257.9961"/><rect fill="#F4B031" height="26.1328" rx="7.5" ry="7.5" style="stroke:#F4B031;stroke-width:0.0;" width="104" x="623.5" y="244.9297"/><text fill="#FFFFFF" font-family="sans-serif" font-size="12" lengthAdjust="spacing" textLength="92" x="629.5" y="262.5313">Archival storage</text><line style="stroke:#323232;stroke-width:1.5;" x1="675.5" x2="685.5" y1="286.1289" y2="286.1289"/><rect fill="#EFF1F3" height="26.1328" rx="7.5" ry="7.5" style="stroke:#A80036;stroke-width:0.0;" width="64" x="685.5" y="273.0625"/><text fill="#333333" font-family="sans-serif" font-size="12" lengthAdjust="spacing" textLength="52" x="691.5" y="290.6641">施工中 ...</text><line style="stroke:#323232;stroke-width:1.5;" x1="675.5" x2="675.5" y1="271.0625" y2="286.1289"/><line style="stroke:#323232;stroke-width:1.5;" x1="613.5" x2="613.5" y1="158.5313" y2="257.9961"/><line style="stroke:#323232;stroke-width:1.5;" x1="514" x2="524" y1="314.2617" y2="314.2617"/><rect fill="#F4B031" height="26.1328" rx="7.5" ry="7.5" style="stroke:#F4B031;stroke-width:0.0;" width="254" x="524" y="301.1953"/><text fill="#FFFFFF" font-family="sans-serif" font-size="12" lengthAdjust="spacing" textLength="242" x="530" y="318.7969">Dataflow Through Services: REST and RPC</text><line style="stroke:#323232;stroke-width:1.5;" x1="651" x2="661" y1="342.3945" y2="342.3945"/><rect fill="#EFF1F3" height="26.1328" rx="7.5" ry="7.5" style="stroke:#A80036;stroke-width:0.0;" width="64" x="661" y="329.3281"/><text fill="#333333" font-family="sans-serif" font-size="12" lengthAdjust="spacing" textLength="52" x="667" y="346.9297">施工中 ...</text><line style="stroke:#323232;stroke-width:1.5;" x1="651" x2="661" y1="370.5273" y2="370.5273"/><rect fill="#F4B031" height="26.1328" rx="7.5" ry="7.5" style="stroke:#F4B031;stroke-width:0.0;" width="87" x="661" y="357.4609"/><text fill="#FFFFFF" font-family="sans-serif" font-size="12" lengthAdjust="spacing" textLength="75" x="667" y="375.0625">Web services</text><line style="stroke:#323232;stroke-width:1.5;" x1="704.5" x2="714.5" y1="398.6602" y2="398.6602"/><rect fill="#EFF1F3" height="26.1328" rx="7.5" ry="7.5" style="stroke:#A80036;stroke-width:0.0;" width="64" x="714.5" y="385.5938"/><text fill="#333333" font-family="sans-serif" font-size="12" lengthAdjust="spacing" textLength="52" x="720.5" y="403.1953">施工中 ...</text><line style="stroke:#323232;stroke-width:1.5;" x1="704.5" x2="704.5" y1="383.5938" y2="398.6602"/><line style="stroke:#323232;stroke-width:1.5;" x1="651" x2="661" y1="426.793" y2="426.793"/><rect fill="#F4B031" height="26.1328" rx="7.5" ry="7.5" style="stroke:#F4B031;stroke-width:0.0;" width="299" x="661" y="413.7266"/><text fill="#FFFFFF" font-family="sans-serif" font-size="12" lengthAdjust="spacing" textLength="287" x="667" y="431.3281">The problems with remote procedure calls (RPCs)</text><line style="stroke:#323232;stroke-width:1.5;" x1="810.5" x2="820.5" y1="454.9258" y2="454.9258"/><rect fill="#EFF1F3" height="26.1328" rx="7.5" ry="7.5" style="stroke:#A80036;stroke-width:0.0;" width="64" x="820.5" y="441.8594"/><text fill="#333333" font-family="sans-serif" font-size="12" lengthAdjust="spacing" textLength="52" x="826.5" y="459.4609">施工中 ...</text><line style="stroke:#323232;stroke-width:1.5;" x1="810.5" x2="810.5" y1="439.8594" y2="454.9258"/><line style="stroke:#323232;stroke-width:1.5;" x1="651" x2="661" y1="483.0586" y2="483.0586"/><rect fill="#F4B031" height="26.1328" rx="7.5" ry="7.5" style="stroke:#F4B031;stroke-width:0.0;" width="162" x="661" y="469.9922"/><text fill="#FFFFFF" font-family="sans-serif" font-size="12" lengthAdjust="spacing" textLength="150" x="667" y="487.5938">Current directions for RPC</text><line style="stroke:#323232;stroke-width:1.5;" x1="742" x2="752" y1="511.1914" y2="511.1914"/><rect fill="#EFF1F3" height="26.1328" rx="7.5" ry="7.5" style="stroke:#A80036;stroke-width:0.0;" width="64" x="752" y="498.125"/><text fill="#333333" font-family="sans-serif" font-size="12" lengthAdjust="spacing" textLength="52" x="758" y="515.7266">施工中 ...</text><line style="stroke:#323232;stroke-width:1.5;" x1="742" x2="742" y1="496.125" y2="511.1914"/><line style="stroke:#323232;stroke-width:1.5;" x1="651" x2="661" y1="539.3242" y2="539.3242"/><rect fill="#F4B031" height="26.1328" rx="7.5" ry="7.5" style="stroke:#F4B031;stroke-width:0.0;" width="223" x="661" y="526.2578"/><text fill="#FFFFFF" font-family="sans-serif" font-size="12" lengthAdjust="spacing" textLength="211" x="667" y="543.8594">Data encoding and evolution for RPC</text><line style="stroke:#323232;stroke-width:1.5;" x1="772.5" x2="782.5" y1="567.457" y2="567.457"/><rect fill="#EFF1F3" height="26.1328" rx="7.5" ry="7.5" style="stroke:#A80036;stroke-width:0.0;" width="64" x="782.5" y="554.3906"/><text fill="#333333" font-family="sans-serif" font-size="12" lengthAdjust="spacing" textLength="52" x="788.5" y="571.9922">施工中 ...</text><line style="stroke:#323232;stroke-width:1.5;" x1="772.5" x2="772.5" y1="552.3906" y2="567.457"/><line style="stroke:#323232;stroke-width:1.5;" x1="651" x2="651" y1="327.3281" y2="539.3242"/><line style="stroke:#323232;stroke-width:1.5;" x1="514" x2="524" y1="595.5898" y2="595.5898"/><rect fill="#F4B031" height="26.1328" rx="7.5" ry="7.5" style="stroke:#F4B031;stroke-width:0.0;" width="166" x="524" y="582.5234"/><text fill="#FFFFFF" font-family="sans-serif" font-size="12" lengthAdjust="spacing" textLength="154" x="530" y="600.125">Message-Passing Dataflow</text><line style="stroke:#323232;stroke-width:1.5;" x1="607" x2="617" y1="623.7227" y2="623.7227"/><rect fill="#EFF1F3" height="26.1328" rx="7.5" ry="7.5" style="stroke:#A80036;stroke-width:0.0;" width="64" x="617" y="610.6563"/><text fill="#333333" font-family="sans-serif" font-size="12" lengthAdjust="spacing" textLength="52" x="623" y="628.2578">施工中 ...</text><line style="stroke:#323232;stroke-width:1.5;" x1="607" x2="617" y1="651.8555" y2="651.8555"/><rect fill="#F4B031" height="26.1328" rx="7.5" ry="7.5" style="stroke:#F4B031;stroke-width:0.0;" width="111" x="617" y="638.7891"/><text fill="#FFFFFF" font-family="sans-serif" font-size="12" lengthAdjust="spacing" textLength="99" x="623" y="656.3906">Message brokers</text><line style="stroke:#323232;stroke-width:1.5;" x1="672.5" x2="682.5" y1="679.9883" y2="679.9883"/><rect fill="#EFF1F3" height="26.1328" rx="7.5" ry="7.5" style="stroke:#A80036;stroke-width:0.0;" width="64" x="682.5" y="666.9219"/><text fill="#333333" font-family="sans-serif" font-size="12" lengthAdjust="spacing" textLength="52" x="688.5" y="684.5234">施工中 ...</text><line style="stroke:#323232;stroke-width:1.5;" x1="672.5" x2="672.5" y1="664.9219" y2="679.9883"/><line style="stroke:#323232;stroke-width:1.5;" x1="607" x2="617" y1="708.1211" y2="708.1211"/><rect fill="#F4B031" height="26.1328" rx="7.5" ry="7.5" style="stroke:#F4B031;stroke-width:0.0;" width="181" x="617" y="695.0547"/><text fill="#FFFFFF" font-family="sans-serif" font-size="12" lengthAdjust="spacing" textLength="169" x="623" y="712.6563">Distributed actor frameworks</text><line style="stroke:#323232;stroke-width:1.5;" x1="707.5" x2="717.5" y1="736.2539" y2="736.2539"/><rect fill="#EFF1F3" height="26.1328" rx="7.5" ry="7.5" style="stroke:#A80036;stroke-width:0.0;" width="64" x="717.5" y="723.1875"/><text fill="#333333" font-family="sans-serif" font-size="12" lengthAdjust="spacing" textLength="52" x="723.5" y="740.7891">施工中 ...</text><line style="stroke:#323232;stroke-width:1.5;" x1="707.5" x2="707.5" y1="721.1875" y2="736.2539"/><line style="stroke:#323232;stroke-width:1.5;" x1="607" x2="607" y1="608.6563" y2="708.1211"/><line style="stroke:#323232;stroke-width:1.5;" x1="514" x2="514" y1="102.2656" y2="595.5898"/><line style="stroke:#323232;stroke-width:1.5;" x1="92.5" x2="514" y1="56.1328" y2="56.1328"/><!--MD5=[b5455d040967f46dfcbcdc96f394b568]
@startwbs ch4_wbs

skinparam Shadowing false
skinparam BackgroundColor #EFF1F3
skinparam linetype ortho

<style>
arrow {
    LineColor #323232
}
node {
    Padding 6
    Margin 2
    RoundCorner 15
    LineThickness 0.0
    BackgroundColor #EFF1F3
    FontColor #333333
}
.Type_Root {
    BackgroundColor #323232
    FontColor #FFFFFF
    LineColor #323232
}
.Type1_Node {
    BackgroundColor #D3548A
    FontColor #FFFFFF
    LineColor #D3548A
}
.Type1_LeafNode {
    RoundCorner 0
    LineThickness 1.0
    LineColor #D3548A
}
.Type2_Node {
    BackgroundColor #F4B031
    FontColor #FFFFFF
    LineColor #F4B031
}
.Type2_LeafNode {
    RoundCorner 0
    LineThickness 1.0
    LineColor #F4B031
}
.Type3_Node {
    BackgroundColor #BD4231
    FontColor #FFFFFF
    LineColor #BD4231
}
.Type3_LeafNode {
    RoundCorner 0
    LineThickness 1.0
    LineColor #BD4231
}
.Type4_Node {
    BackgroundColor #0F5E8C
    FontColor #FFFFFF
    LineColor #0F5E8C
}
.Type4_LeafNode {
    RoundCorner 0
    LineThickness 1.0
    LineColor #0F5E8C
}
.Type5_Node {
    BackgroundColor #37A7A8
    FontColor #FFFFFF
    LineColor #37A7A8
}
.Type5_LeafNode {
    RoundCorner 0
    LineThickness 1.0
    LineColor #37A7A8
}
</style>

* DDIA Chapter.4 - Encoding and Evolution<<Type_Root>>

** Formats for Encoding Data<<Type1_Node>>
*** 施工中 ...

*** Language-Specific Formats<<Type1_Node>>
**** 施工中 ...

*** JSON, XML, and Binary Variants<<Type1_Node>>
**** 施工中 ...

**** Binary encoding<<Type1_Node>>
***** 施工中 ...

*** Thrift and Protocol Buffers<<Type1_Node>>
**** 施工中 ...

**** Field tags and schema evolution<<Type1_Node>>
***** 施工中 ...

**** Datatypes and schema evolution<<Type1_Node>>
***** 施工中 ...

*** Avro<<Type1_Node>>
**** 施工中 ...

**** The writer's schema and the reader's schema<<Type1_Node>>
***** 施工中 ...

**** Schema evolution rules<<Type1_Node>>
***** 施工中 ...

**** But what is the writer's schema<<Type1_Node>>
***** 施工中 ...

**** Dynamically generated schemas<<Type1_Node>>
***** 施工中 ...

**** Code generation and dynamically typed languages<<Type1_Node>>
***** 施工中 ...

*** The Merits of Schemas<<Type1_Node>>
**** 施工中 ...

** Modes of Dataflow<<Type2_Node>>
*** 施工中 ...

*** Dataflow Through Databases<<Type2_Node>>
**** 施工中 ...

**** Different values written at different times<<Type2_Node>>
***** 施工中 ...

**** Archival storage<<Type2_Node>>
***** 施工中 ...

*** Dataflow Through Services: REST and RPC<<Type2_Node>>
**** 施工中 ...

**** Web services<<Type2_Node>>
***** 施工中 ...

**** The problems with remote procedure calls (RPCs)<<Type2_Node>>
***** 施工中 ...

**** Current directions for RPC<<Type2_Node>>
***** 施工中 ...

**** Data encoding and evolution for RPC<<Type2_Node>>
***** 施工中 ...

*** Message-Passing Dataflow<<Type2_Node>>
**** 施工中 ...

**** Message brokers<<Type2_Node>>
***** 施工中 ...

**** Distributed actor frameworks<<Type2_Node>>
***** 施工中 ...

@endwbs

PlantUML version 1.2021.7(Sun May 23 20:40:07 CST 2021)
(GPL source distribution)
Java Runtime: OpenJDK Runtime Environment
JVM: OpenJDK 64-Bit Server VM
Default Encoding: UTF-8
Language: zh
Country: TW
--></g></svg>