<?xml version="1.0" encoding="UTF-8" standalone="no"?><svg xmlns="http://www.w3.org/2000/svg" xmlns:xlink="http://www.w3.org/1999/xlink" contentScriptType="application/ecmascript" contentStyleType="text/css" height="842px" preserveAspectRatio="none" style="width:1503px;height:842px;background:#EFF1F3;" version="1.1" viewBox="0 0 1503 842" width="1503px" zoomAndPan="magnify"><defs/><g><rect fill="#0F5E8C" height="44.9766" rx="7.5" ry="7.5" style="stroke:#A80036;stroke-width:0.0;" width="194" x="672" y="397.5684"/><text fill="#FFFFFF" font-family="sans-serif" font-size="14" lengthAdjust="spacing" textLength="118" x="678" y="417.1035">DDIA Chapter 1 -</text><text fill="#FFFFFF" font-family="sans-serif" font-size="14" lengthAdjust="spacing" textLength="182" x="678" y="433.5918">可靠性、可伸縮性與可維護性</text><rect fill="#0F5E8C" height="28.4883" rx="7.5" ry="7.5" style="stroke:#A80036;stroke-width:0.0;" width="68" x="896" y="38.4883"/><text fill="#FFFFFF" font-family="sans-serif" font-size="14" lengthAdjust="spacing" textLength="56" x="902" y="58.0234">任務類型</text><rect fill="#EFF1F3" height="28.4883" rx="7.5" ry="7.5" style="stroke:#A80036;stroke-width:0.0;" width="193" x="994" y="10"/><text fill="#333333" font-family="sans-serif" font-size="14" lengthAdjust="spacing" textLength="181" x="1000" y="29.5352">計算密集型 (CPU-Intensive)</text><path d="M964,52.7324 L974,52.7324 C989,52.7324 969,24.2441 984,24.2441 L994,24.2441 " fill="none" style="stroke:#0F5E8C;stroke-width:1.0;"/><rect fill="#EFF1F3" height="28.4883" rx="7.5" ry="7.5" style="stroke:#A80036;stroke-width:0.0;" width="174" x="994" y="38.4883"/><text fill="#333333" font-family="sans-serif" font-size="14" lengthAdjust="spacing" textLength="162" x="1000" y="58.0234">I/O密集型 (IO-Intensive)</text><path d="M964,52.7324 L974,52.7324 C989,52.7324 969,52.7324 984,52.7324 L994,52.7324 " fill="none" style="stroke:#0F5E8C;stroke-width:1.0;"/><rect fill="#EFF1F3" height="28.4883" rx="7.5" ry="7.5" style="stroke:#A80036;stroke-width:0.0;" width="196" x="994" y="66.9766"/><text fill="#333333" font-family="sans-serif" font-size="14" lengthAdjust="spacing" textLength="184" x="1000" y="86.5117">資料密集型 (Data-Intensive)</text><path d="M964,52.7324 L974,52.7324 C989,52.7324 969,81.2207 984,81.2207 L994,81.2207 " fill="none" style="stroke:#0F5E8C;stroke-width:1.0;"/><path d="M866,420.0566 L876,420.0566 C891,420.0566 871,52.7324 886,52.7324 L896,52.7324 " fill="none" style="stroke:#0F5E8C;stroke-width:1.0;"/><rect fill="#0F5E8C" height="28.4883" rx="7.5" ry="7.5" style="stroke:#A80036;stroke-width:0.0;" width="165" x="896" y="152.4414"/><text fill="#FFFFFF" font-family="sans-serif" font-size="14" lengthAdjust="spacing" textLength="153" x="902" y="171.9766">資料系統 (Data System)</text><rect fill="#EFF1F3" height="28.4883" rx="7.5" ry="7.5" style="stroke:#A80036;stroke-width:0.0;" width="131" x="1091" y="95.4648"/><text fill="#333333" font-family="sans-serif" font-size="14" lengthAdjust="spacing" textLength="119" x="1097" y="115">資料庫 (Database)</text><path d="M1061,166.6855 L1071,166.6855 C1086,166.6855 1066,109.709 1081,109.709 L1091,109.709 " fill="none" style="stroke:#0F5E8C;stroke-width:1.0;"/><rect fill="#EFF1F3" height="28.4883" rx="7.5" ry="7.5" style="stroke:#A80036;stroke-width:0.0;" width="96" x="1091" y="123.9531"/><text fill="#333333" font-family="sans-serif" font-size="14" lengthAdjust="spacing" textLength="84" x="1097" y="143.4883">快取 (Cache)</text><path d="M1061,166.6855 L1071,166.6855 C1086,166.6855 1066,138.1973 1081,138.1973 L1091,138.1973 " fill="none" style="stroke:#0F5E8C;stroke-width:1.0;"/><rect fill="#EFF1F3" height="28.4883" rx="7.5" ry="7.5" style="stroke:#A80036;stroke-width:0.0;" width="186" x="1091" y="152.4414"/><text fill="#333333" font-family="sans-serif" font-size="14" lengthAdjust="spacing" textLength="174" x="1097" y="171.9766">搜尋索引 (Search Indexes)</text><path d="M1061,166.6855 L1071,166.6855 C1086,166.6855 1066,166.6855 1081,166.6855 L1091,166.6855 " fill="none" style="stroke:#0F5E8C;stroke-width:1.0;"/><rect fill="#EFF1F3" height="28.4883" rx="7.5" ry="7.5" style="stroke:#A80036;stroke-width:0.0;" width="208" x="1091" y="180.9297"/><text fill="#333333" font-family="sans-serif" font-size="14" lengthAdjust="spacing" textLength="196" x="1097" y="200.4648">串流處理 (Stream Processing)</text><path d="M1061,166.6855 L1071,166.6855 C1086,166.6855 1066,195.1738 1081,195.1738 L1091,195.1738 " fill="none" style="stroke:#0F5E8C;stroke-width:1.0;"/><rect fill="#EFF1F3" height="28.4883" rx="7.5" ry="7.5" style="stroke:#A80036;stroke-width:0.0;" width="197" x="1091" y="209.418"/><text fill="#333333" font-family="sans-serif" font-size="14" lengthAdjust="spacing" textLength="185" x="1097" y="228.9531">批量處理 (Batch Processing)</text><path d="M1061,166.6855 L1071,166.6855 C1086,166.6855 1066,223.6621 1081,223.6621 L1091,223.6621 " fill="none" style="stroke:#0F5E8C;stroke-width:1.0;"/><path d="M866,420.0566 L876,420.0566 C891,420.0566 871,166.6855 886,166.6855 L896,166.6855 " fill="none" style="stroke:#0F5E8C;stroke-width:1.0;"/><rect fill="#0F5E8C" height="28.4883" rx="7.5" ry="7.5" style="stroke:#A80036;stroke-width:0.0;" width="134" x="896" y="519.7656"/><text fill="#FFFFFF" font-family="sans-serif" font-size="14" lengthAdjust="spacing" textLength="122" x="902" y="539.3008">可靠性 (Reliability)</text><rect fill="#EFF1F3" height="44.9766" rx="7.5" ry="7.5" style="stroke:#A80036;stroke-width:0.0;" width="212" x="1060" y="237.9063"/><text fill="#333333" font-family="sans-serif" font-size="14" lengthAdjust="spacing" textLength="196" x="1066" y="257.4414">使系統在有限情境中，即使出現</text><text fill="#333333" font-family="sans-serif" font-size="14" lengthAdjust="spacing" textLength="196" x="1066" y="273.9297">問題也能繼續正常工作的能力。</text><path d="M1030,534.0098 L1040,534.0098 C1055,534.0098 1035,260.3945 1050,260.3945 L1060,260.3945 " fill="none" style="stroke:#0F5E8C;stroke-width:1.0;"/><rect fill="#EFF1F3" height="28.4883" rx="7.5" ry="7.5" style="stroke:#A80036;stroke-width:0.0;" width="226" x="1060" y="282.8828"/><text fill="#333333" font-family="sans-serif" font-size="14" lengthAdjust="spacing" textLength="210" x="1066" y="302.418">比起預防錯誤，更傾向容忍錯誤。</text><path d="M1030,534.0098 L1040,534.0098 C1055,534.0098 1035,297.127 1050,297.127 L1060,297.127 " fill="none" style="stroke:#0F5E8C;stroke-width:1.0;"/><rect fill="#EFF1F3" height="44.9766" rx="7.5" ry="7.5" style="stroke:#A80036;stroke-width:0.0;" width="204" x="1060" y="311.3711"/><text fill="#333333" font-family="sans-serif" font-size="14" lengthAdjust="spacing" textLength="192" x="1066" y="330.9063">透過 Chaos Monkey 方法提升</text><text fill="#333333" font-family="sans-serif" font-size="14" lengthAdjust="spacing" textLength="56" x="1066" y="347.3945">可靠性。</text><path d="M1030,534.0098 L1040,534.0098 C1055,534.0098 1035,333.8594 1050,333.8594 L1060,333.8594 " fill="none" style="stroke:#0F5E8C;stroke-width:1.0;"/><rect fill="#0F5E8C" height="28.4883" rx="7.5" ry="7.5" style="stroke:#A80036;stroke-width:0.0;" width="193" x="1060" y="387.0801"/><text fill="#FFFFFF" font-family="sans-serif" font-size="14" lengthAdjust="spacing" textLength="181" x="1066" y="406.6152">硬體故障 (Hardware Faults)</text><rect fill="#EFF1F3" height="44.9766" rx="7.5" ry="7.5" style="stroke:#A80036;stroke-width:0.0;" width="194" x="1283" y="356.3477"/><text fill="#333333" font-family="sans-serif" font-size="14" lengthAdjust="spacing" textLength="182" x="1289" y="375.8828">增加冗余(Redundancy) 提高</text><text fill="#333333" font-family="sans-serif" font-size="14" lengthAdjust="spacing" textLength="84" x="1289" y="392.3711">單機可靠性。</text><path d="M1253,401.3242 L1263,401.3242 C1278,401.3242 1258,378.8359 1273,378.8359 L1283,378.8359 " fill="none" style="stroke:#0F5E8C;stroke-width:1.0;"/><rect fill="#EFF1F3" height="44.9766" rx="7.5" ry="7.5" style="stroke:#A80036;stroke-width:0.0;" width="208" x="1283" y="401.3242"/><text fill="#333333" font-family="sans-serif" font-size="14" lengthAdjust="spacing" textLength="196" x="1289" y="420.8594">雲端平台透過彈性擴增機器變相</text><text fill="#333333" font-family="sans-serif" font-size="14" lengthAdjust="spacing" textLength="84" x="1289" y="437.3477">提高可靠性。</text><path d="M1253,401.3242 L1263,401.3242 C1278,401.3242 1258,423.8125 1273,423.8125 L1283,423.8125 " fill="none" style="stroke:#0F5E8C;stroke-width:1.0;"/><path d="M1030,534.0098 L1040,534.0098 C1055,534.0098 1035,401.3242 1050,401.3242 L1060,401.3242 " fill="none" style="stroke:#0F5E8C;stroke-width:1.0;"/><rect fill="#0F5E8C" height="28.4883" rx="7.5" ry="7.5" style="stroke:#A80036;stroke-width:0.0;" width="188" x="1060" y="528.0098"/><text fill="#FFFFFF" font-family="sans-serif" font-size="14" lengthAdjust="spacing" textLength="176" x="1066" y="547.5449">軟體錯誤 (Software Errors)</text><rect fill="#EFF1F3" height="44.9766" rx="7.5" ry="7.5" style="stroke:#A80036;stroke-width:0.0;" width="208" x="1278" y="446.3008"/><text fill="#333333" font-family="sans-serif" font-size="14" lengthAdjust="spacing" textLength="196" x="1284" y="465.8359">容易產生連鎖性錯誤，導致更多</text><text fill="#333333" font-family="sans-serif" font-size="14" lengthAdjust="spacing" textLength="98" x="1284" y="482.3242">系統相繼失效。</text><path d="M1248,542.2539 L1258,542.2539 C1273,542.2539 1253,468.7891 1268,468.7891 L1278,468.7891 " fill="none" style="stroke:#0F5E8C;stroke-width:1.0;"/><rect fill="#EFF1F3" height="44.9766" rx="7.5" ry="7.5" style="stroke:#A80036;stroke-width:0.0;" width="208" x="1278" y="491.2773"/><text fill="#333333" font-family="sans-serif" font-size="14" lengthAdjust="spacing" textLength="196" x="1284" y="510.8125">並非每次都能捕捉到真正的錯誤</text><text fill="#333333" font-family="sans-serif" font-size="14" lengthAdjust="spacing" textLength="42" x="1284" y="527.3008">原因。</text><path d="M1248,542.2539 L1258,542.2539 C1273,542.2539 1253,513.7656 1268,513.7656 L1278,513.7656 " fill="none" style="stroke:#0F5E8C;stroke-width:1.0;"/><rect fill="#EFF1F3" height="44.9766" rx="7.5" ry="7.5" style="stroke:#A80036;stroke-width:0.0;" width="208" x="1278" y="536.2539"/><text fill="#333333" font-family="sans-serif" font-size="14" lengthAdjust="spacing" textLength="196" x="1284" y="555.7891">透過假設與大量測試保證系統的</text><text fill="#333333" font-family="sans-serif" font-size="14" lengthAdjust="spacing" textLength="98" x="1284" y="572.2773">安全工作範圍。</text><path d="M1248,542.2539 L1258,542.2539 C1273,542.2539 1253,558.7422 1268,558.7422 L1278,558.7422 " fill="none" style="stroke:#0F5E8C;stroke-width:1.0;"/><rect fill="#EFF1F3" height="28.4883" rx="7.5" ry="7.5" style="stroke:#A80036;stroke-width:0.0;" width="193" x="1278" y="581.2305"/><text fill="#333333" font-family="sans-serif" font-size="14" lengthAdjust="spacing" textLength="181" x="1284" y="600.7656">程序隔離(Process Isolation)</text><path d="M1248,542.2539 L1258,542.2539 C1273,542.2539 1253,595.4746 1268,595.4746 L1278,595.4746 " fill="none" style="stroke:#0F5E8C;stroke-width:1.0;"/><rect fill="#EFF1F3" height="28.4883" rx="7.5" ry="7.5" style="stroke:#A80036;stroke-width:0.0;" width="180" x="1278" y="609.7188"/><text fill="#333333" font-family="sans-serif" font-size="14" lengthAdjust="spacing" textLength="168" x="1284" y="629.2539">監控並加入錯誤警告機制。</text><path d="M1248,542.2539 L1258,542.2539 C1273,542.2539 1253,623.9629 1268,623.9629 L1278,623.9629 " fill="none" style="stroke:#0F5E8C;stroke-width:1.0;"/><path d="M1030,534.0098 L1040,534.0098 C1055,534.0098 1035,542.2539 1050,542.2539 L1060,542.2539 " fill="none" style="stroke:#0F5E8C;stroke-width:1.0;"/><rect fill="#0F5E8C" height="28.4883" rx="7.5" ry="7.5" style="stroke:#A80036;stroke-width:0.0;" width="177" x="1060" y="719.916"/><text fill="#FFFFFF" font-family="sans-serif" font-size="14" lengthAdjust="spacing" textLength="165" x="1066" y="739.4512">人為錯誤 (Human Errors)</text><rect fill="#EFF1F3" height="28.4883" rx="7.5" ry="7.5" style="stroke:#A80036;stroke-width:0.0;" width="194" x="1267" y="638.207"/><text fill="#333333" font-family="sans-serif" font-size="14" lengthAdjust="spacing" textLength="182" x="1273" y="657.7422">正確且友善的使用抽象設計。</text><path d="M1237,734.1602 L1247,734.1602 C1262,734.1602 1242,652.4512 1257,652.4512 L1267,652.4512 " fill="none" style="stroke:#0F5E8C;stroke-width:1.0;"/><rect fill="#EFF1F3" height="44.9766" rx="7.5" ry="7.5" style="stroke:#A80036;stroke-width:0.0;" width="208" x="1267" y="666.6953"/><text fill="#333333" font-family="sans-serif" font-size="14" lengthAdjust="spacing" textLength="196" x="1273" y="686.2305">設計上適時加入解耦，讓開發者</text><text fill="#333333" font-family="sans-serif" font-size="14" lengthAdjust="spacing" textLength="182" x="1273" y="702.7188">可以使用真實資料進行測試。</text><path d="M1237,734.1602 L1247,734.1602 C1262,734.1602 1242,689.1836 1257,689.1836 L1267,689.1836 " fill="none" style="stroke:#0F5E8C;stroke-width:1.0;"/><rect fill="#EFF1F3" height="44.9766" rx="7.5" ry="7.5" style="stroke:#A80036;stroke-width:0.0;" width="194" x="1267" y="711.6719"/><text fill="#333333" font-family="sans-serif" font-size="14" lengthAdjust="spacing" textLength="182" x="1273" y="731.207">足夠的單元測試、整合測試與</text><text fill="#333333" font-family="sans-serif" font-size="14" lengthAdjust="spacing" textLength="119" x="1273" y="747.6953">手動/自動化測試。</text><path d="M1237,734.1602 L1247,734.1602 C1262,734.1602 1242,734.1602 1257,734.1602 L1267,734.1602 " fill="none" style="stroke:#0F5E8C;stroke-width:1.0;"/><rect fill="#EFF1F3" height="44.9766" rx="7.5" ry="7.5" style="stroke:#A80036;stroke-width:0.0;" width="194" x="1267" y="756.6484"/><text fill="#333333" font-family="sans-serif" font-size="14" lengthAdjust="spacing" textLength="182" x="1273" y="776.1836">確保運行失敗時能夠快速回滾</text><text fill="#333333" font-family="sans-serif" font-size="14" lengthAdjust="spacing" textLength="86" x="1273" y="792.6719">(Roll back)。</text><path d="M1237,734.1602 L1247,734.1602 C1262,734.1602 1242,779.1367 1257,779.1367 L1267,779.1367 " fill="none" style="stroke:#0F5E8C;stroke-width:1.0;"/><rect fill="#EFF1F3" height="28.4883" rx="7.5" ry="7.5" style="stroke:#A80036;stroke-width:0.0;" width="194" x="1267" y="801.625"/><text fill="#333333" font-family="sans-serif" font-size="14" lengthAdjust="spacing" textLength="182" x="1273" y="821.1602">詳細且動機明確的監控機制。</text><path d="M1237,734.1602 L1247,734.1602 C1262,734.1602 1242,815.8691 1257,815.8691 L1267,815.8691 " fill="none" style="stroke:#0F5E8C;stroke-width:1.0;"/><path d="M1030,534.0098 L1040,534.0098 C1055,534.0098 1035,734.1602 1050,734.1602 L1060,734.1602 " fill="none" style="stroke:#0F5E8C;stroke-width:1.0;"/><path d="M866,420.0566 L876,420.0566 C891,420.0566 871,534.0098 886,534.0098 L896,534.0098 " fill="none" style="stroke:#0F5E8C;stroke-width:1.0;"/><rect fill="#0F5E8C" height="28.4883" rx="7.5" ry="7.5" style="stroke:#A80036;stroke-width:0.0;" width="150" x="492" y="255.127"/><text fill="#FFFFFF" font-family="sans-serif" font-size="14" lengthAdjust="spacing" textLength="138" x="498" y="274.6621">可伸縮性 (Scalability)</text><rect fill="#EFF1F3" height="44.9766" rx="7.5" ry="7.5" style="stroke:#A80036;stroke-width:0.0;" width="250" x="212" y="85.709"/><text fill="#333333" font-family="sans-serif" font-size="14" lengthAdjust="spacing" textLength="238" x="218" y="105.2441">根據業務場景決定如何擴展服務，才是</text><text fill="#333333" font-family="sans-serif" font-size="14" lengthAdjust="spacing" textLength="98" x="218" y="121.7324">有意義的擴展。</text><path d="M492,269.3711 L482,269.3711 C467,269.3711 487,108.1973 472,108.1973 L462,108.1973 " fill="none" style="stroke:#0F5E8C;stroke-width:1.0;"/><rect fill="#0F5E8C" height="28.4883" rx="7.5" ry="7.5" style="stroke:#A80036;stroke-width:0.0;" width="188" x="274" y="153.1738"/><text fill="#FFFFFF" font-family="sans-serif" font-size="14" lengthAdjust="spacing" textLength="176" x="280" y="172.709">描述負載 (Discribing Load)</text><rect fill="#EFF1F3" height="28.4883" rx="7.5" ry="7.5" style="stroke:#A80036;stroke-width:0.0;" width="180" x="64" y="130.6855"/><text fill="#333333" font-family="sans-serif" font-size="14" lengthAdjust="spacing" textLength="168" x="70" y="150.2207">量化生產環境的各項數據。</text><path d="M274,167.418 L264,167.418 C249,167.418 269,144.9297 254,144.9297 L244,144.9297 " fill="none" style="stroke:#0F5E8C;stroke-width:1.0;"/><rect fill="#EFF1F3" height="44.9766" rx="7.5" ry="7.5" style="stroke:#A80036;stroke-width:0.0;" width="130" x="114" y="159.1738"/><text fill="#333333" font-family="sans-serif" font-size="14" lengthAdjust="spacing" textLength="84" x="120" y="178.709">制定負載引數</text><text fill="#333333" font-family="sans-serif" font-size="14" lengthAdjust="spacing" textLength="118" x="120" y="195.1973">(Load parameter)</text><path d="M274,167.418 L264,167.418 C249,167.418 269,181.6621 254,181.6621 L244,181.6621 " fill="none" style="stroke:#0F5E8C;stroke-width:1.0;"/><path d="M492,269.3711 L482,269.3711 C467,269.3711 487,167.418 472,167.418 L462,167.418 " fill="none" style="stroke:#0F5E8C;stroke-width:1.0;"/><rect fill="#0F5E8C" height="28.4883" rx="7.5" ry="7.5" style="stroke:#A80036;stroke-width:0.0;" width="242" x="220" y="271.6152"/><text fill="#FFFFFF" font-family="sans-serif" font-size="14" lengthAdjust="spacing" textLength="230" x="226" y="291.1504">描述性能 (Discribing Performance)</text><rect fill="#EFF1F3" height="44.9766" rx="7.5" ry="7.5" style="stroke:#A80036;stroke-width:0.0;" width="180" x="10" y="204.1504"/><text fill="#333333" font-family="sans-serif" font-size="14" lengthAdjust="spacing" textLength="168" x="16" y="223.6855">提升負載並固定系統資源時</text><text fill="#333333" font-family="sans-serif" font-size="14" lengthAdjust="spacing" textLength="126" x="16" y="240.1738">對效能造成的影響？</text><path d="M220,285.8594 L210,285.8594 C195,285.8594 215,226.6387 200,226.6387 L190,226.6387 " fill="none" style="stroke:#0F5E8C;stroke-width:1.0;"/><rect fill="#EFF1F3" height="44.9766" rx="7.5" ry="7.5" style="stroke:#A80036;stroke-width:0.0;" width="180" x="10" y="249.127"/><text fill="#333333" font-family="sans-serif" font-size="14" lengthAdjust="spacing" textLength="168" x="16" y="268.6621">提升負載並維持效能時需增</text><text fill="#333333" font-family="sans-serif" font-size="14" lengthAdjust="spacing" textLength="126" x="16" y="285.1504">加多少的系統資源？</text><path d="M220,285.8594 L210,285.8594 C195,285.8594 215,271.6152 200,271.6152 L190,271.6152 " fill="none" style="stroke:#0F5E8C;stroke-width:1.0;"/><rect fill="#EFF1F3" height="28.4883" rx="7.5" ry="7.5" style="stroke:#A80036;stroke-width:0.0;" width="180" x="10" y="294.1035"/><text fill="#333333" font-family="sans-serif" font-size="14" lengthAdjust="spacing" textLength="168" x="16" y="313.6387">決定度量標準與數值分佈。</text><path d="M220,285.8594 L210,285.8594 C195,285.8594 215,308.3477 200,308.3477 L190,308.3477 " fill="none" style="stroke:#0F5E8C;stroke-width:1.0;"/><rect fill="#EFF1F3" height="44.9766" rx="7.5" ry="7.5" style="stroke:#A80036;stroke-width:0.0;" width="180" x="10" y="322.5918"/><text fill="#333333" font-family="sans-serif" font-size="14" lengthAdjust="spacing" textLength="168" x="16" y="342.127">測試方式與生產環境流程必</text><text fill="#333333" font-family="sans-serif" font-size="14" lengthAdjust="spacing" textLength="98" x="16" y="358.6152">須盡可能對齊。</text><path d="M220,285.8594 L210,285.8594 C195,285.8594 215,345.0801 200,345.0801 L190,345.0801 " fill="none" style="stroke:#0F5E8C;stroke-width:1.0;"/><path d="M492,269.3711 L482,269.3711 C467,269.3711 487,285.8594 472,285.8594 L462,285.8594 " fill="none" style="stroke:#0F5E8C;stroke-width:1.0;"/><rect fill="#0F5E8C" height="28.4883" rx="7.5" ry="7.5" style="stroke:#A80036;stroke-width:0.0;" width="110" x="352" y="396.0566"/><text fill="#FFFFFF" font-family="sans-serif" font-size="14" lengthAdjust="spacing" textLength="98" x="358" y="415.5918">對應負載的方法</text><rect fill="#EFF1F3" height="28.4883" rx="7.5" ry="7.5" style="stroke:#A80036;stroke-width:0.0;" width="181" x="141" y="367.5684"/><text fill="#333333" font-family="sans-serif" font-size="14" lengthAdjust="spacing" textLength="169" x="147" y="387.1035">垂直擴展(Vertical scaling)</text><path d="M352,410.3008 L342,410.3008 C327,410.3008 347,381.8125 332,381.8125 L322,381.8125 " fill="none" style="stroke:#0F5E8C;stroke-width:1.0;"/><rect fill="#EFF1F3" height="28.4883" rx="7.5" ry="7.5" style="stroke:#A80036;stroke-width:0.0;" width="202" x="120" y="396.0566"/><text fill="#333333" font-family="sans-serif" font-size="14" lengthAdjust="spacing" textLength="190" x="126" y="415.5918">水平擴展(Horizontal scaling)</text><path d="M352,410.3008 L342,410.3008 C327,410.3008 347,410.3008 332,410.3008 L322,410.3008 " fill="none" style="stroke:#0F5E8C;stroke-width:1.0;"/><rect fill="#EFF1F3" height="28.4883" rx="7.5" ry="7.5" style="stroke:#A80036;stroke-width:0.0;" width="180" x="142" y="424.5449"/><text fill="#333333" font-family="sans-serif" font-size="14" lengthAdjust="spacing" textLength="168" x="148" y="444.0801">因地制宜，且能與時俱進。</text><path d="M352,410.3008 L342,410.3008 C327,410.3008 347,438.7891 332,438.7891 L322,438.7891 " fill="none" style="stroke:#0F5E8C;stroke-width:1.0;"/><path d="M492,269.3711 L482,269.3711 C467,269.3711 487,410.3008 472,410.3008 L462,410.3008 " fill="none" style="stroke:#0F5E8C;stroke-width:1.0;"/><path d="M672,420.0566 L662,420.0566 C647,420.0566 667,269.3711 652,269.3711 L642,269.3711 " fill="none" style="stroke:#0F5E8C;stroke-width:1.0;"/><rect fill="#0F5E8C" height="28.4883" rx="7.5" ry="7.5" style="stroke:#A80036;stroke-width:0.0;" width="182" x="460" y="589.4746"/><text fill="#FFFFFF" font-family="sans-serif" font-size="14" lengthAdjust="spacing" textLength="170" x="466" y="609.0098">可維護性 (Maintainability)</text><rect fill="#EFF1F3" height="28.4883" rx="7.5" ry="7.5" style="stroke:#A80036;stroke-width:0.0;" width="198" x="232" y="453.0332"/><text fill="#333333" font-family="sans-serif" font-size="14" lengthAdjust="spacing" textLength="182" x="238" y="472.5684">使產品能夠持續迭代的能力。</text><path d="M460,603.7188 L450,603.7188 C435,603.7188 455,467.2773 440,467.2773 L430,467.2773 " fill="none" style="stroke:#0F5E8C;stroke-width:1.0;"/><rect fill="#0F5E8C" height="28.4883" rx="7.5" ry="7.5" style="stroke:#A80036;stroke-width:0.0;" width="157" x="273" y="524.2539"/><text fill="#FFFFFF" font-family="sans-serif" font-size="14" lengthAdjust="spacing" textLength="145" x="279" y="543.7891">可操作性 (Operability)</text><rect fill="#EFF1F3" height="28.4883" rx="7.5" ry="7.5" style="stroke:#A80036;stroke-width:0.0;" width="152" x="91" y="481.5215"/><text fill="#333333" font-family="sans-serif" font-size="14" lengthAdjust="spacing" textLength="140" x="97" y="501.0566">關愛維運，人人有責。</text><path d="M273,538.498 L263,538.498 C248,538.498 268,495.7656 253,495.7656 L243,495.7656 " fill="none" style="stroke:#0F5E8C;stroke-width:1.0;"/><rect fill="#EFF1F3" height="28.4883" rx="7.5" ry="7.5" style="stroke:#A80036;stroke-width:0.0;" width="180" x="63" y="510.0098"/><text fill="#333333" font-family="sans-serif" font-size="14" lengthAdjust="spacing" textLength="168" x="69" y="529.5449">提供系統文件與使用範例。</text><path d="M273,538.498 L263,538.498 C248,538.498 268,524.2539 253,524.2539 L243,524.2539 " fill="none" style="stroke:#0F5E8C;stroke-width:1.0;"/><rect fill="#EFF1F3" height="28.4883" rx="7.5" ry="7.5" style="stroke:#A80036;stroke-width:0.0;" width="180" x="63" y="538.498"/><text fill="#333333" font-family="sans-serif" font-size="14" lengthAdjust="spacing" textLength="168" x="69" y="558.0332">提供彈性的參數設定方式。</text><path d="M273,538.498 L263,538.498 C248,538.498 268,552.7422 253,552.7422 L243,552.7422 " fill="none" style="stroke:#0F5E8C;stroke-width:1.0;"/><rect fill="#EFF1F3" height="28.4883" rx="7.5" ry="7.5" style="stroke:#A80036;stroke-width:0.0;" width="225" x="18" y="566.9863"/><text fill="#333333" font-family="sans-serif" font-size="14" lengthAdjust="spacing" textLength="213" x="24" y="586.5215">提供自定義的監控指標(Metrics)。</text><path d="M273,538.498 L263,538.498 C248,538.498 268,581.2305 253,581.2305 L243,581.2305 " fill="none" style="stroke:#0F5E8C;stroke-width:1.0;"/><path d="M460,603.7188 L450,603.7188 C435,603.7188 455,538.498 440,538.498 L430,538.498 " fill="none" style="stroke:#0F5E8C;stroke-width:1.0;"/><rect fill="#0F5E8C" height="28.4883" rx="7.5" ry="7.5" style="stroke:#A80036;stroke-width:0.0;" width="133" x="297" y="623.9629"/><text fill="#FFFFFF" font-family="sans-serif" font-size="14" lengthAdjust="spacing" textLength="121" x="303" y="643.498">簡單性 (Simplicity)</text><rect fill="#EFF1F3" height="28.4883" rx="7.5" ry="7.5" style="stroke:#A80036;stroke-width:0.0;" width="96" x="171" y="595.4746"/><text fill="#333333" font-family="sans-serif" font-size="14" lengthAdjust="spacing" textLength="84" x="177" y="615.0098">控管複雜度。</text><path d="M297,638.207 L287,638.207 C272,638.207 292,609.7188 277,609.7188 L267,609.7188 " fill="none" style="stroke:#0F5E8C;stroke-width:1.0;"/><rect fill="#EFF1F3" height="28.4883" rx="7.5" ry="7.5" style="stroke:#A80036;stroke-width:0.0;" width="138" x="129" y="623.9629"/><text fill="#333333" font-family="sans-serif" font-size="14" lengthAdjust="spacing" textLength="126" x="135" y="643.498">適度的抽象、解耦。</text><path d="M297,638.207 L287,638.207 C272,638.207 292,638.207 277,638.207 L267,638.207 " fill="none" style="stroke:#0F5E8C;stroke-width:1.0;"/><rect fill="#EFF1F3" height="28.4883" rx="7.5" ry="7.5" style="stroke:#A80036;stroke-width:0.0;" width="208" x="59" y="652.4512"/><text fill="#333333" font-family="sans-serif" font-size="14" lengthAdjust="spacing" textLength="196" x="65" y="671.9863">設計框架時也須考量團隊程度。</text><path d="M297,638.207 L287,638.207 C272,638.207 292,666.6953 277,666.6953 L267,666.6953 " fill="none" style="stroke:#0F5E8C;stroke-width:1.0;"/><path d="M460,603.7188 L450,603.7188 C435,603.7188 455,638.207 440,638.207 L430,638.207 " fill="none" style="stroke:#0F5E8C;stroke-width:1.0;"/><rect fill="#0F5E8C" height="28.4883" rx="7.5" ry="7.5" style="stroke:#A80036;stroke-width:0.0;" width="158" x="272" y="703.4277"/><text fill="#FFFFFF" font-family="sans-serif" font-size="14" lengthAdjust="spacing" textLength="146" x="278" y="722.9629">可演化性 (Evolvability)</text><rect fill="#EFF1F3" height="28.4883" rx="7.5" ry="7.5" style="stroke:#A80036;stroke-width:0.0;" width="82" x="160" y="680.9395"/><text fill="#333333" font-family="sans-serif" font-size="14" lengthAdjust="spacing" textLength="70" x="166" y="700.4746">擁抱變化。</text><path d="M272,717.6719 L262,717.6719 C247,717.6719 267,695.1836 252,695.1836 L242,695.1836 " fill="none" style="stroke:#0F5E8C;stroke-width:1.0;"/><rect fill="#EFF1F3" height="44.9766" rx="7.5" ry="7.5" style="stroke:#A80036;stroke-width:0.0;" width="180" x="62" y="709.4277"/><text fill="#333333" font-family="sans-serif" font-size="14" lengthAdjust="spacing" textLength="168" x="68" y="728.9629">測試驅動開發、敏捷開發與</text><text fill="#333333" font-family="sans-serif" font-size="14" lengthAdjust="spacing" textLength="70" x="68" y="745.4512">定時重構。</text><path d="M272,717.6719 L262,717.6719 C247,717.6719 267,731.916 252,731.916 L242,731.916 " fill="none" style="stroke:#0F5E8C;stroke-width:1.0;"/><path d="M460,603.7188 L450,603.7188 C435,603.7188 455,717.6719 440,717.6719 L430,717.6719 " fill="none" style="stroke:#0F5E8C;stroke-width:1.0;"/><path d="M672,420.0566 L662,420.0566 C647,420.0566 667,603.7188 652,603.7188 L642,603.7188 " fill="none" style="stroke:#0F5E8C;stroke-width:1.0;"/><!--MD5=[f149264414a09202519ae941e828e919]
@startmindmap ddia_mindmap_ch1

skinparam Shadowing false
skinparam BackgroundColor #EFF1F3

<style>
arrow {
    LineColor #0F5E8C
}
node {
    Padding 6
    Margin 0
    RoundCorner 15
    BackgroundColor #0F5E8C
    FontColor #FFFFFF
    LineThickness 0.0
}
leafNode {
    BackgroundColor #EFF1F3
    FontColor #333333
    LineThickness 0.0
}
.Description {
    BackgroundColor #EFF1F3
    FontColor #333333
    LineThickness 0.0
}
</style>

* DDIA Chapter 1 -\n可靠性、可伸縮性與可維護性

** 任務類型

*** 計算密集型 (CPU-Intensive)
*** I/O密集型 (IO-Intensive)
*** 資料密集型 (Data-Intensive)

** 資料系統 (Data System)

*** 資料庫 (Database)
*** 快取 (Cache)
*** 搜尋索引 (Search Indexes)
*** 串流處理 (Stream Processing)
*** 批量處理 (Batch Processing)

** 可靠性 (Reliability)

*** 使系統在有限情境中，即使出現\n問題也能繼續正常工作的能力。 <<Description>>

*** 比起預防錯誤，更傾向容忍錯誤。 <<Description>>

*** 透過 Chaos Monkey 方法提升\n可靠性。 <<Description>>

*** 硬體故障 (Hardware Faults)
**** 增加冗余(Redundancy) 提高\n單機可靠性。
**** 雲端平台透過彈性擴增機器變相\n提高可靠性。

*** 軟體錯誤 (Software Errors)
**** 容易產生連鎖性錯誤，導致更多\n系統相繼失效。
**** 並非每次都能捕捉到真正的錯誤\n原因。
**** 透過假設與大量測試保證系統的\n安全工作範圍。
**** 程序隔離(Process Isolation)
**** 監控並加入錯誤警告機制。

*** 人為錯誤 (Human Errors)
**** 正確且友善的使用抽象設計。
**** 設計上適時加入解耦，讓開發者\n可以使用真實資料進行測試。
**** 足夠的單元測試、整合測試與\n手動/自動化測試。
**** 確保運行失敗時能夠快速回滾\n(Roll back)。
**** 詳細且動機明確的監控機制。

left

** 可伸縮性 (Scalability)

*** 根據業務場景決定如何擴展服務，才是\n有意義的擴展。 <<Description>>

*** 描述負載 (Discribing Load)
**** 量化生產環境的各項數據。
**** 制定負載引數\n(Load parameter)

*** 描述性能 (Discribing Performance)
**** 提升負載並固定系統資源時\n對效能造成的影響？
**** 提升負載並維持效能時需增\n加多少的系統資源？
**** 決定度量標準與數值分佈。
**** 測試方式與生產環境流程必\n須盡可能對齊。

*** 對應負載的方法
**** 垂直擴展(Vertical scaling)
**** 水平擴展(Horizontal scaling)
**** 因地制宜，且能與時俱進。

** 可維護性 (Maintainability)

*** 使產品能夠持續迭代的能力。 <<Description>>

*** 可操作性 (Operability)
**** 關愛維運，人人有責。
**** 提供系統文件與使用範例。
**** 提供彈性的參數設定方式。
**** 提供自定義的監控指標(Metrics)。

*** 簡單性 (Simplicity)
**** 控管複雜度。
**** 適度的抽象、解耦。
**** 設計框架時也須考量團隊程度。

*** 可演化性 (Evolvability)
**** 擁抱變化。
**** 測試驅動開發、敏捷開發與\n定時重構。

@endmindmap

PlantUML version 1.2021.00(Sun Jan 10 18:25:05 CST 2021)
(GPL source distribution)
Java Runtime: OpenJDK Runtime Environment
JVM: OpenJDK 64-Bit Server VM
Default Encoding: UTF-8
Language: zh
Country: TW
--></g></svg>