<?xml version="1.0" encoding="UTF-8" standalone="no"?><svg xmlns="http://www.w3.org/2000/svg" xmlns:xlink="http://www.w3.org/1999/xlink" contentScriptType="application/ecmascript" contentStyleType="text/css" height="905px" preserveAspectRatio="none" style="width:1351px;height:905px;background:#EFF1F3;" version="1.1" viewBox="0 0 1351 905" width="1351px" zoomAndPan="magnify"><defs/><g><rect fill="#0F5E8C" height="44.9766" rx="7.5" ry="7.5" style="stroke:#A80036;stroke-width:0.0;" width="138" x="557" y="429.0801"/><text fill="#FFFFFF" font-family="sans-serif" font-size="14" lengthAdjust="spacing" textLength="118" x="563" y="448.6152">DDIA Chapter 2 -</text><text fill="#FFFFFF" font-family="sans-serif" font-size="14" lengthAdjust="spacing" textLength="126" x="563" y="465.1035">資料模型與查詢語言</text><rect fill="#0F5E8C" height="28.4883" rx="7.5" ry="7.5" style="stroke:#A80036;stroke-width:0.0;" width="138" x="725" y="437.3242"/><text fill="#FFFFFF" font-family="sans-serif" font-size="14" lengthAdjust="spacing" textLength="126" x="731" y="456.8594">關聯模型與文件模型</text><rect fill="#0F5E8C" height="28.4883" rx="7.5" ry="7.5" style="stroke:#A80036;stroke-width:0.0;" width="103" x="893" y="52.7324"/><text fill="#FFFFFF" font-family="sans-serif" font-size="14" lengthAdjust="spacing" textLength="91" x="899" y="72.2676">NoSQL 的誕生</text><rect fill="#EFF1F3" height="28.4883" rx="7.5" ry="7.5" style="stroke:#A80036;stroke-width:0.0;" width="54" x="1026" y="24.2441"/><text fill="#333333" font-family="sans-serif" font-size="14" lengthAdjust="spacing" textLength="42" x="1032" y="43.7793">施工中</text><path d="M996,66.9766 L1006,66.9766 C1021,66.9766 1001,38.4883 1016,38.4883 L1026,38.4883 " fill="none" style="stroke:#0F5E8C;stroke-width:1.0;"/><rect fill="#EFF1F3" height="28.4883" rx="7.5" ry="7.5" style="stroke:#A80036;stroke-width:0.0;" width="54" x="1026" y="52.7324"/><text fill="#333333" font-family="sans-serif" font-size="14" lengthAdjust="spacing" textLength="42" x="1032" y="72.2676">施工中</text><path d="M996,66.9766 L1006,66.9766 C1021,66.9766 1001,66.9766 1016,66.9766 L1026,66.9766 " fill="none" style="stroke:#0F5E8C;stroke-width:1.0;"/><rect fill="#EFF1F3" height="28.4883" rx="7.5" ry="7.5" style="stroke:#A80036;stroke-width:0.0;" width="54" x="1026" y="81.2207"/><text fill="#333333" font-family="sans-serif" font-size="14" lengthAdjust="spacing" textLength="42" x="1032" y="100.7559">施工中</text><path d="M996,66.9766 L1006,66.9766 C1021,66.9766 1001,95.4648 1016,95.4648 L1026,95.4648 " fill="none" style="stroke:#0F5E8C;stroke-width:1.0;"/><path d="M863,451.5684 L873,451.5684 C888,451.5684 868,66.9766 883,66.9766 L893,66.9766 " fill="none" style="stroke:#0F5E8C;stroke-width:1.0;"/><rect fill="#0F5E8C" height="28.4883" rx="7.5" ry="7.5" style="stroke:#A80036;stroke-width:0.0;" width="110" x="893" y="138.1973"/><text fill="#FFFFFF" font-family="sans-serif" font-size="14" lengthAdjust="spacing" textLength="98" x="899" y="157.7324">關聯對象不匹配</text><rect fill="#EFF1F3" height="28.4883" rx="7.5" ry="7.5" style="stroke:#A80036;stroke-width:0.0;" width="54" x="1033" y="109.709"/><text fill="#333333" font-family="sans-serif" font-size="14" lengthAdjust="spacing" textLength="42" x="1039" y="129.2441">施工中</text><path d="M1003,152.4414 L1013,152.4414 C1028,152.4414 1008,123.9531 1023,123.9531 L1033,123.9531 " fill="none" style="stroke:#0F5E8C;stroke-width:1.0;"/><rect fill="#EFF1F3" height="28.4883" rx="7.5" ry="7.5" style="stroke:#A80036;stroke-width:0.0;" width="54" x="1033" y="138.1973"/><text fill="#333333" font-family="sans-serif" font-size="14" lengthAdjust="spacing" textLength="42" x="1039" y="157.7324">施工中</text><path d="M1003,152.4414 L1013,152.4414 C1028,152.4414 1008,152.4414 1023,152.4414 L1033,152.4414 " fill="none" style="stroke:#0F5E8C;stroke-width:1.0;"/><rect fill="#EFF1F3" height="28.4883" rx="7.5" ry="7.5" style="stroke:#A80036;stroke-width:0.0;" width="54" x="1033" y="166.6855"/><text fill="#333333" font-family="sans-serif" font-size="14" lengthAdjust="spacing" textLength="42" x="1039" y="186.2207">施工中</text><path d="M1003,152.4414 L1013,152.4414 C1028,152.4414 1008,180.9297 1023,180.9297 L1033,180.9297 " fill="none" style="stroke:#0F5E8C;stroke-width:1.0;"/><path d="M863,451.5684 L873,451.5684 C888,451.5684 868,152.4414 883,152.4414 L893,152.4414 " fill="none" style="stroke:#0F5E8C;stroke-width:1.0;"/><rect fill="#0F5E8C" height="28.4883" rx="7.5" ry="7.5" style="stroke:#A80036;stroke-width:0.0;" width="138" x="893" y="223.6621"/><text fill="#FFFFFF" font-family="sans-serif" font-size="14" lengthAdjust="spacing" textLength="126" x="899" y="243.1973">多對一和多對多關係</text><rect fill="#EFF1F3" height="28.4883" rx="7.5" ry="7.5" style="stroke:#A80036;stroke-width:0.0;" width="54" x="1061" y="195.1738"/><text fill="#333333" font-family="sans-serif" font-size="14" lengthAdjust="spacing" textLength="42" x="1067" y="214.709">施工中</text><path d="M1031,237.9063 L1041,237.9063 C1056,237.9063 1036,209.418 1051,209.418 L1061,209.418 " fill="none" style="stroke:#0F5E8C;stroke-width:1.0;"/><rect fill="#EFF1F3" height="28.4883" rx="7.5" ry="7.5" style="stroke:#A80036;stroke-width:0.0;" width="54" x="1061" y="223.6621"/><text fill="#333333" font-family="sans-serif" font-size="14" lengthAdjust="spacing" textLength="42" x="1067" y="243.1973">施工中</text><path d="M1031,237.9063 L1041,237.9063 C1056,237.9063 1036,237.9063 1051,237.9063 L1061,237.9063 " fill="none" style="stroke:#0F5E8C;stroke-width:1.0;"/><rect fill="#EFF1F3" height="28.4883" rx="7.5" ry="7.5" style="stroke:#A80036;stroke-width:0.0;" width="54" x="1061" y="252.1504"/><text fill="#333333" font-family="sans-serif" font-size="14" lengthAdjust="spacing" textLength="42" x="1067" y="271.6855">施工中</text><path d="M1031,237.9063 L1041,237.9063 C1056,237.9063 1036,266.3945 1051,266.3945 L1061,266.3945 " fill="none" style="stroke:#0F5E8C;stroke-width:1.0;"/><path d="M863,451.5684 L873,451.5684 C888,451.5684 868,237.9063 883,237.9063 L893,237.9063 " fill="none" style="stroke:#0F5E8C;stroke-width:1.0;"/><rect fill="#0F5E8C" height="28.4883" rx="7.5" ry="7.5" style="stroke:#A80036;stroke-width:0.0;" width="180" x="893" y="394.5918"/><text fill="#FFFFFF" font-family="sans-serif" font-size="14" lengthAdjust="spacing" textLength="168" x="899" y="414.127">文件資料庫是否在重蹈覆徹</text><rect fill="#0F5E8C" height="28.4883" rx="7.5" ry="7.5" style="stroke:#A80036;stroke-width:0.0;" width="68" x="1103" y="309.127"/><text fill="#FFFFFF" font-family="sans-serif" font-size="14" lengthAdjust="spacing" textLength="56" x="1109" y="328.6621">網路模型</text><rect fill="#EFF1F3" height="28.4883" rx="7.5" ry="7.5" style="stroke:#A80036;stroke-width:0.0;" width="54" x="1201" y="280.6387"/><text fill="#333333" font-family="sans-serif" font-size="14" lengthAdjust="spacing" textLength="42" x="1207" y="300.1738">施工中</text><path d="M1171,323.3711 L1181,323.3711 C1196,323.3711 1176,294.8828 1191,294.8828 L1201,294.8828 " fill="none" style="stroke:#0F5E8C;stroke-width:1.0;"/><rect fill="#EFF1F3" height="28.4883" rx="7.5" ry="7.5" style="stroke:#A80036;stroke-width:0.0;" width="54" x="1201" y="309.127"/><text fill="#333333" font-family="sans-serif" font-size="14" lengthAdjust="spacing" textLength="42" x="1207" y="328.6621">施工中</text><path d="M1171,323.3711 L1181,323.3711 C1196,323.3711 1176,323.3711 1191,323.3711 L1201,323.3711 " fill="none" style="stroke:#0F5E8C;stroke-width:1.0;"/><rect fill="#EFF1F3" height="28.4883" rx="7.5" ry="7.5" style="stroke:#A80036;stroke-width:0.0;" width="54" x="1201" y="337.6152"/><text fill="#333333" font-family="sans-serif" font-size="14" lengthAdjust="spacing" textLength="42" x="1207" y="357.1504">施工中</text><path d="M1171,323.3711 L1181,323.3711 C1196,323.3711 1176,351.8594 1191,351.8594 L1201,351.8594 " fill="none" style="stroke:#0F5E8C;stroke-width:1.0;"/><path d="M1073,408.8359 L1083,408.8359 C1098,408.8359 1078,323.3711 1093,323.3711 L1103,323.3711 " fill="none" style="stroke:#0F5E8C;stroke-width:1.0;"/><rect fill="#0F5E8C" height="28.4883" rx="7.5" ry="7.5" style="stroke:#A80036;stroke-width:0.0;" width="68" x="1103" y="394.5918"/><text fill="#FFFFFF" font-family="sans-serif" font-size="14" lengthAdjust="spacing" textLength="56" x="1109" y="414.127">關係模型</text><rect fill="#EFF1F3" height="28.4883" rx="7.5" ry="7.5" style="stroke:#A80036;stroke-width:0.0;" width="54" x="1201" y="366.1035"/><text fill="#333333" font-family="sans-serif" font-size="14" lengthAdjust="spacing" textLength="42" x="1207" y="385.6387">施工中</text><path d="M1171,408.8359 L1181,408.8359 C1196,408.8359 1176,380.3477 1191,380.3477 L1201,380.3477 " fill="none" style="stroke:#0F5E8C;stroke-width:1.0;"/><rect fill="#EFF1F3" height="28.4883" rx="7.5" ry="7.5" style="stroke:#A80036;stroke-width:0.0;" width="54" x="1201" y="394.5918"/><text fill="#333333" font-family="sans-serif" font-size="14" lengthAdjust="spacing" textLength="42" x="1207" y="414.127">施工中</text><path d="M1171,408.8359 L1181,408.8359 C1196,408.8359 1176,408.8359 1191,408.8359 L1201,408.8359 " fill="none" style="stroke:#0F5E8C;stroke-width:1.0;"/><rect fill="#EFF1F3" height="28.4883" rx="7.5" ry="7.5" style="stroke:#A80036;stroke-width:0.0;" width="54" x="1201" y="423.0801"/><text fill="#333333" font-family="sans-serif" font-size="14" lengthAdjust="spacing" textLength="42" x="1207" y="442.6152">施工中</text><path d="M1171,408.8359 L1181,408.8359 C1196,408.8359 1176,437.3242 1191,437.3242 L1201,437.3242 " fill="none" style="stroke:#0F5E8C;stroke-width:1.0;"/><path d="M1073,408.8359 L1083,408.8359 C1098,408.8359 1078,408.8359 1093,408.8359 L1103,408.8359 " fill="none" style="stroke:#0F5E8C;stroke-width:1.0;"/><rect fill="#0F5E8C" height="28.4883" rx="7.5" ry="7.5" style="stroke:#A80036;stroke-width:0.0;" width="124" x="1103" y="480.0566"/><text fill="#FFFFFF" font-family="sans-serif" font-size="14" lengthAdjust="spacing" textLength="112" x="1109" y="499.5918">與文件資料庫相比</text><rect fill="#EFF1F3" height="28.4883" rx="7.5" ry="7.5" style="stroke:#A80036;stroke-width:0.0;" width="54" x="1257" y="451.5684"/><text fill="#333333" font-family="sans-serif" font-size="14" lengthAdjust="spacing" textLength="42" x="1263" y="471.1035">施工中</text><path d="M1227,494.3008 L1237,494.3008 C1252,494.3008 1232,465.8125 1247,465.8125 L1257,465.8125 " fill="none" style="stroke:#0F5E8C;stroke-width:1.0;"/><rect fill="#EFF1F3" height="28.4883" rx="7.5" ry="7.5" style="stroke:#A80036;stroke-width:0.0;" width="54" x="1257" y="480.0566"/><text fill="#333333" font-family="sans-serif" font-size="14" lengthAdjust="spacing" textLength="42" x="1263" y="499.5918">施工中</text><path d="M1227,494.3008 L1237,494.3008 C1252,494.3008 1232,494.3008 1247,494.3008 L1257,494.3008 " fill="none" style="stroke:#0F5E8C;stroke-width:1.0;"/><rect fill="#EFF1F3" height="28.4883" rx="7.5" ry="7.5" style="stroke:#A80036;stroke-width:0.0;" width="54" x="1257" y="508.5449"/><text fill="#333333" font-family="sans-serif" font-size="14" lengthAdjust="spacing" textLength="42" x="1263" y="528.0801">施工中</text><path d="M1227,494.3008 L1237,494.3008 C1252,494.3008 1232,522.7891 1247,522.7891 L1257,522.7891 " fill="none" style="stroke:#0F5E8C;stroke-width:1.0;"/><path d="M1073,408.8359 L1083,408.8359 C1098,408.8359 1078,494.3008 1093,494.3008 L1103,494.3008 " fill="none" style="stroke:#0F5E8C;stroke-width:1.0;"/><path d="M863,451.5684 L873,451.5684 C888,451.5684 868,408.8359 883,408.8359 L893,408.8359 " fill="none" style="stroke:#0F5E8C;stroke-width:1.0;"/><rect fill="#0F5E8C" height="44.9766" rx="7.5" ry="7.5" style="stroke:#A80036;stroke-width:0.0;" width="166" x="893" y="685.4746"/><text fill="#FFFFFF" font-family="sans-serif" font-size="14" lengthAdjust="spacing" textLength="154" x="899" y="705.0098">關聯資料庫與文件資料庫</text><text fill="#FFFFFF" font-family="sans-serif" font-size="14" lengthAdjust="spacing" textLength="84" x="899" y="721.498">在今日的對比</text><rect fill="#0F5E8C" height="28.4883" rx="7.5" ry="7.5" style="stroke:#A80036;stroke-width:0.0;" width="152" x="1089" y="565.5215"/><text fill="#FFFFFF" font-family="sans-serif" font-size="14" lengthAdjust="spacing" textLength="140" x="1095" y="585.0566">誰更有助於簡化程式碼</text><rect fill="#EFF1F3" height="28.4883" rx="7.5" ry="7.5" style="stroke:#A80036;stroke-width:0.0;" width="54" x="1271" y="537.0332"/><text fill="#333333" font-family="sans-serif" font-size="14" lengthAdjust="spacing" textLength="42" x="1277" y="556.5684">施工中</text><path d="M1241,579.7656 L1251,579.7656 C1266,579.7656 1246,551.2773 1261,551.2773 L1271,551.2773 " fill="none" style="stroke:#0F5E8C;stroke-width:1.0;"/><rect fill="#EFF1F3" height="28.4883" rx="7.5" ry="7.5" style="stroke:#A80036;stroke-width:0.0;" width="54" x="1271" y="565.5215"/><text fill="#333333" font-family="sans-serif" font-size="14" lengthAdjust="spacing" textLength="42" x="1277" y="585.0566">施工中</text><path d="M1241,579.7656 L1251,579.7656 C1266,579.7656 1246,579.7656 1261,579.7656 L1271,579.7656 " fill="none" style="stroke:#0F5E8C;stroke-width:1.0;"/><rect fill="#EFF1F3" height="28.4883" rx="7.5" ry="7.5" style="stroke:#A80036;stroke-width:0.0;" width="54" x="1271" y="594.0098"/><text fill="#333333" font-family="sans-serif" font-size="14" lengthAdjust="spacing" textLength="42" x="1277" y="613.5449">施工中</text><path d="M1241,579.7656 L1251,579.7656 C1266,579.7656 1246,608.2539 1261,608.2539 L1271,608.2539 " fill="none" style="stroke:#0F5E8C;stroke-width:1.0;"/><path d="M1059,707.9629 L1069,707.9629 C1084,707.9629 1064,579.7656 1079,579.7656 L1089,579.7656 " fill="none" style="stroke:#0F5E8C;stroke-width:1.0;"/><rect fill="#0F5E8C" height="28.4883" rx="7.5" ry="7.5" style="stroke:#A80036;stroke-width:0.0;" width="166" x="1089" y="650.9863"/><text fill="#FFFFFF" font-family="sans-serif" font-size="14" lengthAdjust="spacing" textLength="154" x="1095" y="670.5215">文件模型中的架構靈活性</text><rect fill="#EFF1F3" height="28.4883" rx="7.5" ry="7.5" style="stroke:#A80036;stroke-width:0.0;" width="54" x="1285" y="622.498"/><text fill="#333333" font-family="sans-serif" font-size="14" lengthAdjust="spacing" textLength="42" x="1291" y="642.0332">施工中</text><path d="M1255,665.2305 L1265,665.2305 C1280,665.2305 1260,636.7422 1275,636.7422 L1285,636.7422 " fill="none" style="stroke:#0F5E8C;stroke-width:1.0;"/><rect fill="#EFF1F3" height="28.4883" rx="7.5" ry="7.5" style="stroke:#A80036;stroke-width:0.0;" width="54" x="1285" y="650.9863"/><text fill="#333333" font-family="sans-serif" font-size="14" lengthAdjust="spacing" textLength="42" x="1291" y="670.5215">施工中</text><path d="M1255,665.2305 L1265,665.2305 C1280,665.2305 1260,665.2305 1275,665.2305 L1285,665.2305 " fill="none" style="stroke:#0F5E8C;stroke-width:1.0;"/><rect fill="#EFF1F3" height="28.4883" rx="7.5" ry="7.5" style="stroke:#A80036;stroke-width:0.0;" width="54" x="1285" y="679.4746"/><text fill="#333333" font-family="sans-serif" font-size="14" lengthAdjust="spacing" textLength="42" x="1291" y="699.0098">施工中</text><path d="M1255,665.2305 L1265,665.2305 C1280,665.2305 1260,693.7188 1275,693.7188 L1285,693.7188 " fill="none" style="stroke:#0F5E8C;stroke-width:1.0;"/><path d="M1059,707.9629 L1069,707.9629 C1084,707.9629 1064,665.2305 1079,665.2305 L1089,665.2305 " fill="none" style="stroke:#0F5E8C;stroke-width:1.0;"/><rect fill="#0F5E8C" height="28.4883" rx="7.5" ry="7.5" style="stroke:#A80036;stroke-width:0.0;" width="124" x="1089" y="736.4512"/><text fill="#FFFFFF" font-family="sans-serif" font-size="14" lengthAdjust="spacing" textLength="112" x="1095" y="755.9863">查詢的資料局部性</text><rect fill="#EFF1F3" height="28.4883" rx="7.5" ry="7.5" style="stroke:#A80036;stroke-width:0.0;" width="54" x="1243" y="707.9629"/><text fill="#333333" font-family="sans-serif" font-size="14" lengthAdjust="spacing" textLength="42" x="1249" y="727.498">施工中</text><path d="M1213,750.6953 L1223,750.6953 C1238,750.6953 1218,722.207 1233,722.207 L1243,722.207 " fill="none" style="stroke:#0F5E8C;stroke-width:1.0;"/><rect fill="#EFF1F3" height="28.4883" rx="7.5" ry="7.5" style="stroke:#A80036;stroke-width:0.0;" width="54" x="1243" y="736.4512"/><text fill="#333333" font-family="sans-serif" font-size="14" lengthAdjust="spacing" textLength="42" x="1249" y="755.9863">施工中</text><path d="M1213,750.6953 L1223,750.6953 C1238,750.6953 1218,750.6953 1233,750.6953 L1243,750.6953 " fill="none" style="stroke:#0F5E8C;stroke-width:1.0;"/><rect fill="#EFF1F3" height="28.4883" rx="7.5" ry="7.5" style="stroke:#A80036;stroke-width:0.0;" width="54" x="1243" y="764.9395"/><text fill="#333333" font-family="sans-serif" font-size="14" lengthAdjust="spacing" textLength="42" x="1249" y="784.4746">施工中</text><path d="M1213,750.6953 L1223,750.6953 C1238,750.6953 1218,779.1836 1233,779.1836 L1243,779.1836 " fill="none" style="stroke:#0F5E8C;stroke-width:1.0;"/><path d="M1059,707.9629 L1069,707.9629 C1084,707.9629 1064,750.6953 1079,750.6953 L1089,750.6953 " fill="none" style="stroke:#0F5E8C;stroke-width:1.0;"/><rect fill="#0F5E8C" height="28.4883" rx="7.5" ry="7.5" style="stroke:#A80036;stroke-width:0.0;" width="166" x="1089" y="821.916"/><text fill="#FFFFFF" font-family="sans-serif" font-size="14" lengthAdjust="spacing" textLength="154" x="1095" y="841.4512">文件和關聯資料庫的融合</text><rect fill="#EFF1F3" height="28.4883" rx="7.5" ry="7.5" style="stroke:#A80036;stroke-width:0.0;" width="54" x="1285" y="793.4277"/><text fill="#333333" font-family="sans-serif" font-size="14" lengthAdjust="spacing" textLength="42" x="1291" y="812.9629">施工中</text><path d="M1255,836.1602 L1265,836.1602 C1280,836.1602 1260,807.6719 1275,807.6719 L1285,807.6719 " fill="none" style="stroke:#0F5E8C;stroke-width:1.0;"/><rect fill="#EFF1F3" height="28.4883" rx="7.5" ry="7.5" style="stroke:#A80036;stroke-width:0.0;" width="54" x="1285" y="821.916"/><text fill="#333333" font-family="sans-serif" font-size="14" lengthAdjust="spacing" textLength="42" x="1291" y="841.4512">施工中</text><path d="M1255,836.1602 L1265,836.1602 C1280,836.1602 1260,836.1602 1275,836.1602 L1285,836.1602 " fill="none" style="stroke:#0F5E8C;stroke-width:1.0;"/><rect fill="#EFF1F3" height="28.4883" rx="7.5" ry="7.5" style="stroke:#A80036;stroke-width:0.0;" width="54" x="1285" y="850.4043"/><text fill="#333333" font-family="sans-serif" font-size="14" lengthAdjust="spacing" textLength="42" x="1291" y="869.9395">施工中</text><path d="M1255,836.1602 L1265,836.1602 C1280,836.1602 1260,864.6484 1275,864.6484 L1285,864.6484 " fill="none" style="stroke:#0F5E8C;stroke-width:1.0;"/><path d="M1059,707.9629 L1069,707.9629 C1084,707.9629 1064,836.1602 1079,836.1602 L1089,836.1602 " fill="none" style="stroke:#0F5E8C;stroke-width:1.0;"/><path d="M863,451.5684 L873,451.5684 C888,451.5684 868,707.9629 883,707.9629 L893,707.9629 " fill="none" style="stroke:#0F5E8C;stroke-width:1.0;"/><path d="M695,451.5684 L705,451.5684 C720,451.5684 700,451.5684 715,451.5684 L725,451.5684 " fill="none" style="stroke:#0F5E8C;stroke-width:1.0;"/><rect fill="#0F5E8C" height="28.4883" rx="7.5" ry="7.5" style="stroke:#A80036;stroke-width:0.0;" width="96" x="431" y="81.2207"/><text fill="#FFFFFF" font-family="sans-serif" font-size="14" lengthAdjust="spacing" textLength="84" x="437" y="100.7559">資料查詢語言</text><rect fill="#0F5E8C" height="28.4883" rx="7.5" ry="7.5" style="stroke:#A80036;stroke-width:0.0;" width="143" x="258" y="38.4883"/><text fill="#FFFFFF" font-family="sans-serif" font-size="14" lengthAdjust="spacing" textLength="131" x="264" y="58.0234">Web 上的聲明式查詢</text><rect fill="#EFF1F3" height="28.4883" rx="7.5" ry="7.5" style="stroke:#A80036;stroke-width:0.0;" width="54" x="174" y="10"/><text fill="#333333" font-family="sans-serif" font-size="14" lengthAdjust="spacing" textLength="42" x="180" y="29.5352">施工中</text><path d="M258,52.7324 L248,52.7324 C233,52.7324 253,24.2441 238,24.2441 L228,24.2441 " fill="none" style="stroke:#0F5E8C;stroke-width:1.0;"/><rect fill="#EFF1F3" height="28.4883" rx="7.5" ry="7.5" style="stroke:#A80036;stroke-width:0.0;" width="54" x="174" y="38.4883"/><text fill="#333333" font-family="sans-serif" font-size="14" lengthAdjust="spacing" textLength="42" x="180" y="58.0234">施工中</text><path d="M258,52.7324 L248,52.7324 C233,52.7324 253,52.7324 238,52.7324 L228,52.7324 " fill="none" style="stroke:#0F5E8C;stroke-width:1.0;"/><rect fill="#EFF1F3" height="28.4883" rx="7.5" ry="7.5" style="stroke:#A80036;stroke-width:0.0;" width="54" x="174" y="66.9766"/><text fill="#333333" font-family="sans-serif" font-size="14" lengthAdjust="spacing" textLength="42" x="180" y="86.5117">施工中</text><path d="M258,52.7324 L248,52.7324 C233,52.7324 253,81.2207 238,81.2207 L228,81.2207 " fill="none" style="stroke:#0F5E8C;stroke-width:1.0;"/><path d="M431,95.4648 L421,95.4648 C406,95.4648 426,52.7324 411,52.7324 L401,52.7324 " fill="none" style="stroke:#0F5E8C;stroke-width:1.0;"/><rect fill="#0F5E8C" height="28.4883" rx="7.5" ry="7.5" style="stroke:#A80036;stroke-width:0.0;" width="123" x="278" y="123.9531"/><text fill="#FFFFFF" font-family="sans-serif" font-size="14" lengthAdjust="spacing" textLength="111" x="284" y="143.4883">MapReduce 查詢</text><rect fill="#EFF1F3" height="28.4883" rx="7.5" ry="7.5" style="stroke:#A80036;stroke-width:0.0;" width="54" x="194" y="95.4648"/><text fill="#333333" font-family="sans-serif" font-size="14" lengthAdjust="spacing" textLength="42" x="200" y="115">施工中</text><path d="M278,138.1973 L268,138.1973 C253,138.1973 273,109.709 258,109.709 L248,109.709 " fill="none" style="stroke:#0F5E8C;stroke-width:1.0;"/><rect fill="#EFF1F3" height="28.4883" rx="7.5" ry="7.5" style="stroke:#A80036;stroke-width:0.0;" width="54" x="194" y="123.9531"/><text fill="#333333" font-family="sans-serif" font-size="14" lengthAdjust="spacing" textLength="42" x="200" y="143.4883">施工中</text><path d="M278,138.1973 L268,138.1973 C253,138.1973 273,138.1973 258,138.1973 L248,138.1973 " fill="none" style="stroke:#0F5E8C;stroke-width:1.0;"/><rect fill="#EFF1F3" height="28.4883" rx="7.5" ry="7.5" style="stroke:#A80036;stroke-width:0.0;" width="54" x="194" y="152.4414"/><text fill="#333333" font-family="sans-serif" font-size="14" lengthAdjust="spacing" textLength="42" x="200" y="171.9766">施工中</text><path d="M278,138.1973 L268,138.1973 C253,138.1973 273,166.6855 258,166.6855 L248,166.6855 " fill="none" style="stroke:#0F5E8C;stroke-width:1.0;"/><path d="M431,95.4648 L421,95.4648 C406,95.4648 426,138.1973 411,138.1973 L401,138.1973 " fill="none" style="stroke:#0F5E8C;stroke-width:1.0;"/><path d="M557,451.5684 L547,451.5684 C532,451.5684 552,95.4648 537,95.4648 L527,95.4648 " fill="none" style="stroke:#0F5E8C;stroke-width:1.0;"/><rect fill="#0F5E8C" height="28.4883" rx="7.5" ry="7.5" style="stroke:#A80036;stroke-width:0.0;" width="54" x="473" y="522.7891"/><text fill="#FFFFFF" font-family="sans-serif" font-size="14" lengthAdjust="spacing" textLength="42" x="479" y="542.3242">圖模型</text><rect fill="#0F5E8C" height="28.4883" rx="7.5" ry="7.5" style="stroke:#A80036;stroke-width:0.0;" width="54" x="389" y="209.418"/><text fill="#FFFFFF" font-family="sans-serif" font-size="14" lengthAdjust="spacing" textLength="42" x="395" y="228.9531">屬性圖</text><rect fill="#EFF1F3" height="28.4883" rx="7.5" ry="7.5" style="stroke:#A80036;stroke-width:0.0;" width="54" x="305" y="180.9297"/><text fill="#333333" font-family="sans-serif" font-size="14" lengthAdjust="spacing" textLength="42" x="311" y="200.4648">施工中</text><path d="M389,223.6621 L379,223.6621 C364,223.6621 384,195.1738 369,195.1738 L359,195.1738 " fill="none" style="stroke:#0F5E8C;stroke-width:1.0;"/><rect fill="#EFF1F3" height="28.4883" rx="7.5" ry="7.5" style="stroke:#A80036;stroke-width:0.0;" width="54" x="305" y="209.418"/><text fill="#333333" font-family="sans-serif" font-size="14" lengthAdjust="spacing" textLength="42" x="311" y="228.9531">施工中</text><path d="M389,223.6621 L379,223.6621 C364,223.6621 384,223.6621 369,223.6621 L359,223.6621 " fill="none" style="stroke:#0F5E8C;stroke-width:1.0;"/><rect fill="#EFF1F3" height="28.4883" rx="7.5" ry="7.5" style="stroke:#A80036;stroke-width:0.0;" width="54" x="305" y="237.9063"/><text fill="#333333" font-family="sans-serif" font-size="14" lengthAdjust="spacing" textLength="42" x="311" y="257.4414">施工中</text><path d="M389,223.6621 L379,223.6621 C364,223.6621 384,252.1504 369,252.1504 L359,252.1504 " fill="none" style="stroke:#0F5E8C;stroke-width:1.0;"/><path d="M473,537.0332 L463,537.0332 C448,537.0332 468,223.6621 453,223.6621 L443,223.6621 " fill="none" style="stroke:#0F5E8C;stroke-width:1.0;"/><rect fill="#0F5E8C" height="28.4883" rx="7.5" ry="7.5" style="stroke:#A80036;stroke-width:0.0;" width="121" x="322" y="294.8828"/><text fill="#FFFFFF" font-family="sans-serif" font-size="14" lengthAdjust="spacing" textLength="109" x="328" y="314.418">Cypher 查詢語言</text><rect fill="#EFF1F3" height="28.4883" rx="7.5" ry="7.5" style="stroke:#A80036;stroke-width:0.0;" width="54" x="238" y="266.3945"/><text fill="#333333" font-family="sans-serif" font-size="14" lengthAdjust="spacing" textLength="42" x="244" y="285.9297">施工中</text><path d="M322,309.127 L312,309.127 C297,309.127 317,280.6387 302,280.6387 L292,280.6387 " fill="none" style="stroke:#0F5E8C;stroke-width:1.0;"/><rect fill="#EFF1F3" height="28.4883" rx="7.5" ry="7.5" style="stroke:#A80036;stroke-width:0.0;" width="54" x="238" y="294.8828"/><text fill="#333333" font-family="sans-serif" font-size="14" lengthAdjust="spacing" textLength="42" x="244" y="314.418">施工中</text><path d="M322,309.127 L312,309.127 C297,309.127 317,309.127 302,309.127 L292,309.127 " fill="none" style="stroke:#0F5E8C;stroke-width:1.0;"/><rect fill="#EFF1F3" height="28.4883" rx="7.5" ry="7.5" style="stroke:#A80036;stroke-width:0.0;" width="54" x="238" y="323.3711"/><text fill="#333333" font-family="sans-serif" font-size="14" lengthAdjust="spacing" textLength="42" x="244" y="342.9063">施工中</text><path d="M322,309.127 L312,309.127 C297,309.127 317,337.6152 302,337.6152 L292,337.6152 " fill="none" style="stroke:#0F5E8C;stroke-width:1.0;"/><path d="M473,537.0332 L463,537.0332 C448,537.0332 468,309.127 453,309.127 L443,309.127 " fill="none" style="stroke:#0F5E8C;stroke-width:1.0;"/><rect fill="#0F5E8C" height="28.4883" rx="7.5" ry="7.5" style="stroke:#A80036;stroke-width:0.0;" width="112" x="331" y="380.3477"/><text fill="#FFFFFF" font-family="sans-serif" font-size="14" lengthAdjust="spacing" textLength="100" x="337" y="399.8828">SQL 中的圖查詢</text><rect fill="#EFF1F3" height="28.4883" rx="7.5" ry="7.5" style="stroke:#A80036;stroke-width:0.0;" width="54" x="247" y="351.8594"/><text fill="#333333" font-family="sans-serif" font-size="14" lengthAdjust="spacing" textLength="42" x="253" y="371.3945">施工中</text><path d="M331,394.5918 L321,394.5918 C306,394.5918 326,366.1035 311,366.1035 L301,366.1035 " fill="none" style="stroke:#0F5E8C;stroke-width:1.0;"/><rect fill="#EFF1F3" height="28.4883" rx="7.5" ry="7.5" style="stroke:#A80036;stroke-width:0.0;" width="54" x="247" y="380.3477"/><text fill="#333333" font-family="sans-serif" font-size="14" lengthAdjust="spacing" textLength="42" x="253" y="399.8828">施工中</text><path d="M331,394.5918 L321,394.5918 C306,394.5918 326,394.5918 311,394.5918 L301,394.5918 " fill="none" style="stroke:#0F5E8C;stroke-width:1.0;"/><rect fill="#EFF1F3" height="28.4883" rx="7.5" ry="7.5" style="stroke:#A80036;stroke-width:0.0;" width="54" x="247" y="408.8359"/><text fill="#333333" font-family="sans-serif" font-size="14" lengthAdjust="spacing" textLength="42" x="253" y="428.3711">施工中</text><path d="M331,394.5918 L321,394.5918 C306,394.5918 326,423.0801 311,423.0801 L301,423.0801 " fill="none" style="stroke:#0F5E8C;stroke-width:1.0;"/><path d="M473,537.0332 L463,537.0332 C448,537.0332 468,394.5918 453,394.5918 L443,394.5918 " fill="none" style="stroke:#0F5E8C;stroke-width:1.0;"/><rect fill="#0F5E8C" height="28.4883" rx="7.5" ry="7.5" style="stroke:#A80036;stroke-width:0.0;" width="153" x="290" y="537.0332"/><text fill="#FFFFFF" font-family="sans-serif" font-size="14" lengthAdjust="spacing" textLength="141" x="296" y="556.5684">三元組儲存和 SPARQL</text><rect fill="#EFF1F3" height="28.4883" rx="7.5" ry="7.5" style="stroke:#A80036;stroke-width:0.0;" width="54" x="206" y="437.3242"/><text fill="#333333" font-family="sans-serif" font-size="14" lengthAdjust="spacing" textLength="42" x="212" y="456.8594">施工中</text><path d="M290,551.2773 L280,551.2773 C265,551.2773 285,451.5684 270,451.5684 L260,451.5684 " fill="none" style="stroke:#0F5E8C;stroke-width:1.0;"/><rect fill="#EFF1F3" height="28.4883" rx="7.5" ry="7.5" style="stroke:#A80036;stroke-width:0.0;" width="54" x="206" y="465.8125"/><text fill="#333333" font-family="sans-serif" font-size="14" lengthAdjust="spacing" textLength="42" x="212" y="485.3477">施工中</text><path d="M290,551.2773 L280,551.2773 C265,551.2773 285,480.0566 270,480.0566 L260,480.0566 " fill="none" style="stroke:#0F5E8C;stroke-width:1.0;"/><rect fill="#EFF1F3" height="28.4883" rx="7.5" ry="7.5" style="stroke:#A80036;stroke-width:0.0;" width="54" x="206" y="494.3008"/><text fill="#333333" font-family="sans-serif" font-size="14" lengthAdjust="spacing" textLength="42" x="212" y="513.8359">施工中</text><path d="M290,551.2773 L280,551.2773 C265,551.2773 285,508.5449 270,508.5449 L260,508.5449 " fill="none" style="stroke:#0F5E8C;stroke-width:1.0;"/><rect fill="#0F5E8C" height="28.4883" rx="7.5" ry="7.5" style="stroke:#A80036;stroke-width:0.0;" width="68" x="192" y="522.7891"/><text fill="#FFFFFF" font-family="sans-serif" font-size="14" lengthAdjust="spacing" textLength="56" x="198" y="542.3242">語義網路</text><rect fill="#EFF1F3" height="28.4883" rx="7.5" ry="7.5" style="stroke:#A80036;stroke-width:0.0;" width="54" x="108" y="494.3008"/><text fill="#333333" font-family="sans-serif" font-size="14" lengthAdjust="spacing" textLength="42" x="114" y="513.8359">施工中</text><path d="M192,537.0332 L182,537.0332 C167,537.0332 187,508.5449 172,508.5449 L162,508.5449 " fill="none" style="stroke:#0F5E8C;stroke-width:1.0;"/><rect fill="#EFF1F3" height="28.4883" rx="7.5" ry="7.5" style="stroke:#A80036;stroke-width:0.0;" width="54" x="108" y="522.7891"/><text fill="#333333" font-family="sans-serif" font-size="14" lengthAdjust="spacing" textLength="42" x="114" y="542.3242">施工中</text><path d="M192,537.0332 L182,537.0332 C167,537.0332 187,537.0332 172,537.0332 L162,537.0332 " fill="none" style="stroke:#0F5E8C;stroke-width:1.0;"/><rect fill="#EFF1F3" height="28.4883" rx="7.5" ry="7.5" style="stroke:#A80036;stroke-width:0.0;" width="54" x="108" y="551.2773"/><text fill="#333333" font-family="sans-serif" font-size="14" lengthAdjust="spacing" textLength="42" x="114" y="570.8125">施工中</text><path d="M192,537.0332 L182,537.0332 C167,537.0332 187,565.5215 172,565.5215 L162,565.5215 " fill="none" style="stroke:#0F5E8C;stroke-width:1.0;"/><path d="M290,551.2773 L280,551.2773 C265,551.2773 285,537.0332 270,537.0332 L260,537.0332 " fill="none" style="stroke:#0F5E8C;stroke-width:1.0;"/><rect fill="#0F5E8C" height="28.4883" rx="7.5" ry="7.5" style="stroke:#A80036;stroke-width:0.0;" width="99" x="161" y="608.2539"/><text fill="#FFFFFF" font-family="sans-serif" font-size="14" lengthAdjust="spacing" textLength="87" x="167" y="627.7891">RDF 資料模型</text><rect fill="#EFF1F3" height="28.4883" rx="7.5" ry="7.5" style="stroke:#A80036;stroke-width:0.0;" width="54" x="77" y="579.7656"/><text fill="#333333" font-family="sans-serif" font-size="14" lengthAdjust="spacing" textLength="42" x="83" y="599.3008">施工中</text><path d="M161,622.498 L151,622.498 C136,622.498 156,594.0098 141,594.0098 L131,594.0098 " fill="none" style="stroke:#0F5E8C;stroke-width:1.0;"/><rect fill="#EFF1F3" height="28.4883" rx="7.5" ry="7.5" style="stroke:#A80036;stroke-width:0.0;" width="54" x="77" y="608.2539"/><text fill="#333333" font-family="sans-serif" font-size="14" lengthAdjust="spacing" textLength="42" x="83" y="627.7891">施工中</text><path d="M161,622.498 L151,622.498 C136,622.498 156,622.498 141,622.498 L131,622.498 " fill="none" style="stroke:#0F5E8C;stroke-width:1.0;"/><rect fill="#EFF1F3" height="28.4883" rx="7.5" ry="7.5" style="stroke:#A80036;stroke-width:0.0;" width="54" x="77" y="636.7422"/><text fill="#333333" font-family="sans-serif" font-size="14" lengthAdjust="spacing" textLength="42" x="83" y="656.2773">施工中</text><path d="M161,622.498 L151,622.498 C136,622.498 156,650.9863 141,650.9863 L131,650.9863 " fill="none" style="stroke:#0F5E8C;stroke-width:1.0;"/><path d="M290,551.2773 L280,551.2773 C265,551.2773 285,622.498 270,622.498 L260,622.498 " fill="none" style="stroke:#0F5E8C;stroke-width:1.0;"/><path d="M473,537.0332 L463,537.0332 C448,537.0332 468,551.2773 453,551.2773 L443,551.2773 " fill="none" style="stroke:#0F5E8C;stroke-width:1.0;"/><rect fill="#0F5E8C" height="28.4883" rx="7.5" ry="7.5" style="stroke:#A80036;stroke-width:0.0;" width="125" x="318" y="722.207"/><text fill="#FFFFFF" font-family="sans-serif" font-size="14" lengthAdjust="spacing" textLength="113" x="324" y="741.7422">SPARQL 查詢語言</text><rect fill="#EFF1F3" height="28.4883" rx="7.5" ry="7.5" style="stroke:#A80036;stroke-width:0.0;" width="54" x="234" y="665.2305"/><text fill="#333333" font-family="sans-serif" font-size="14" lengthAdjust="spacing" textLength="42" x="240" y="684.7656">施工中</text><path d="M318,736.4512 L308,736.4512 C293,736.4512 313,679.4746 298,679.4746 L288,679.4746 " fill="none" style="stroke:#0F5E8C;stroke-width:1.0;"/><rect fill="#EFF1F3" height="28.4883" rx="7.5" ry="7.5" style="stroke:#A80036;stroke-width:0.0;" width="54" x="234" y="693.7188"/><text fill="#333333" font-family="sans-serif" font-size="14" lengthAdjust="spacing" textLength="42" x="240" y="713.2539">施工中</text><path d="M318,736.4512 L308,736.4512 C293,736.4512 313,707.9629 298,707.9629 L288,707.9629 " fill="none" style="stroke:#0F5E8C;stroke-width:1.0;"/><rect fill="#EFF1F3" height="28.4883" rx="7.5" ry="7.5" style="stroke:#A80036;stroke-width:0.0;" width="54" x="234" y="722.207"/><text fill="#333333" font-family="sans-serif" font-size="14" lengthAdjust="spacing" textLength="42" x="240" y="741.7422">施工中</text><path d="M318,736.4512 L308,736.4512 C293,736.4512 313,736.4512 298,736.4512 L288,736.4512 " fill="none" style="stroke:#0F5E8C;stroke-width:1.0;"/><rect fill="#0F5E8C" height="28.4883" rx="7.5" ry="7.5" style="stroke:#A80036;stroke-width:0.0;" width="194" x="94" y="750.6953"/><text fill="#FFFFFF" font-family="sans-serif" font-size="14" lengthAdjust="spacing" textLength="182" x="100" y="770.2305">圖形資料庫與網路模型相比較</text><rect fill="#EFF1F3" height="28.4883" rx="7.5" ry="7.5" style="stroke:#A80036;stroke-width:0.0;" width="54" x="10" y="722.207"/><text fill="#333333" font-family="sans-serif" font-size="14" lengthAdjust="spacing" textLength="42" x="16" y="741.7422">施工中</text><path d="M94,764.9395 L84,764.9395 C69,764.9395 89,736.4512 74,736.4512 L64,736.4512 " fill="none" style="stroke:#0F5E8C;stroke-width:1.0;"/><rect fill="#EFF1F3" height="28.4883" rx="7.5" ry="7.5" style="stroke:#A80036;stroke-width:0.0;" width="54" x="10" y="750.6953"/><text fill="#333333" font-family="sans-serif" font-size="14" lengthAdjust="spacing" textLength="42" x="16" y="770.2305">施工中</text><path d="M94,764.9395 L84,764.9395 C69,764.9395 89,764.9395 74,764.9395 L64,764.9395 " fill="none" style="stroke:#0F5E8C;stroke-width:1.0;"/><rect fill="#EFF1F3" height="28.4883" rx="7.5" ry="7.5" style="stroke:#A80036;stroke-width:0.0;" width="54" x="10" y="779.1836"/><text fill="#333333" font-family="sans-serif" font-size="14" lengthAdjust="spacing" textLength="42" x="16" y="798.7188">施工中</text><path d="M94,764.9395 L84,764.9395 C69,764.9395 89,793.4277 74,793.4277 L64,793.4277 " fill="none" style="stroke:#0F5E8C;stroke-width:1.0;"/><path d="M318,736.4512 L308,736.4512 C293,736.4512 313,764.9395 298,764.9395 L288,764.9395 " fill="none" style="stroke:#0F5E8C;stroke-width:1.0;"/><path d="M473,537.0332 L463,537.0332 C448,537.0332 468,736.4512 453,736.4512 L443,736.4512 " fill="none" style="stroke:#0F5E8C;stroke-width:1.0;"/><rect fill="#0F5E8C" height="28.4883" rx="7.5" ry="7.5" style="stroke:#A80036;stroke-width:0.0;" width="65" x="378" y="836.1602"/><text fill="#FFFFFF" font-family="sans-serif" font-size="14" lengthAdjust="spacing" textLength="53" x="384" y="855.6953">Datalog</text><rect fill="#EFF1F3" height="28.4883" rx="7.5" ry="7.5" style="stroke:#A80036;stroke-width:0.0;" width="54" x="294" y="807.6719"/><text fill="#333333" font-family="sans-serif" font-size="14" lengthAdjust="spacing" textLength="42" x="300" y="827.207">施工中</text><path d="M378,850.4043 L368,850.4043 C353,850.4043 373,821.916 358,821.916 L348,821.916 " fill="none" style="stroke:#0F5E8C;stroke-width:1.0;"/><rect fill="#EFF1F3" height="28.4883" rx="7.5" ry="7.5" style="stroke:#A80036;stroke-width:0.0;" width="54" x="294" y="836.1602"/><text fill="#333333" font-family="sans-serif" font-size="14" lengthAdjust="spacing" textLength="42" x="300" y="855.6953">施工中</text><path d="M378,850.4043 L368,850.4043 C353,850.4043 373,850.4043 358,850.4043 L348,850.4043 " fill="none" style="stroke:#0F5E8C;stroke-width:1.0;"/><rect fill="#EFF1F3" height="28.4883" rx="7.5" ry="7.5" style="stroke:#A80036;stroke-width:0.0;" width="54" x="294" y="864.6484"/><text fill="#333333" font-family="sans-serif" font-size="14" lengthAdjust="spacing" textLength="42" x="300" y="884.1836">施工中</text><path d="M378,850.4043 L368,850.4043 C353,850.4043 373,878.8926 358,878.8926 L348,878.8926 " fill="none" style="stroke:#0F5E8C;stroke-width:1.0;"/><path d="M473,537.0332 L463,537.0332 C448,537.0332 468,850.4043 453,850.4043 L443,850.4043 " fill="none" style="stroke:#0F5E8C;stroke-width:1.0;"/><path d="M557,451.5684 L547,451.5684 C532,451.5684 552,537.0332 537,537.0332 L527,537.0332 " fill="none" style="stroke:#0F5E8C;stroke-width:1.0;"/><!--MD5=[b0f8d23ffaa6b80ef1e7f485ec223514]
@startmindmap ddia_mindmap_ch2

skinparam Shadowing false
skinparam BackgroundColor #EFF1F3

<style>
arrow {
    LineColor #0F5E8C
}
node {
    Padding 6
    Margin 0
    RoundCorner 15
    BackgroundColor #0F5E8C
    FontColor #FFFFFF
    LineThickness 0.0
}
leafNode {
    BackgroundColor #EFF1F3
    FontColor #333333
    LineThickness 0.0
}
.Description {
    BackgroundColor #EFF1F3
    FontColor #333333
    LineThickness 0.0
}
</style>

* DDIA Chapter 2 -\n資料模型與查詢語言

** 關聯模型與文件模型

*** NoSQL 的誕生
**** 施工中
**** 施工中
**** 施工中

*** 關聯對象不匹配
**** 施工中
**** 施工中
**** 施工中

*** 多對一和多對多關係
**** 施工中
**** 施工中
**** 施工中

*** 文件資料庫是否在重蹈覆徹

**** 網路模型
***** 施工中
***** 施工中
***** 施工中

**** 關係模型
***** 施工中
***** 施工中
***** 施工中

**** 與文件資料庫相比
***** 施工中
***** 施工中
***** 施工中

*** 關聯資料庫與文件資料庫\n在今日的對比

**** 誰更有助於簡化程式碼
***** 施工中
***** 施工中
***** 施工中

**** 文件模型中的架構靈活性
***** 施工中
***** 施工中
***** 施工中

**** 查詢的資料局部性
***** 施工中
***** 施工中
***** 施工中

**** 文件和關聯資料庫的融合
***** 施工中
***** 施工中
***** 施工中

left 

** 資料查詢語言

*** Web 上的聲明式查詢
**** 施工中
**** 施工中
**** 施工中

*** MapReduce 查詢
**** 施工中
**** 施工中
**** 施工中

** 圖模型

*** 屬性圖
**** 施工中
**** 施工中
**** 施工中

*** Cypher 查詢語言
**** 施工中
**** 施工中
**** 施工中

*** SQL 中的圖查詢
**** 施工中
**** 施工中
**** 施工中

*** 三元組儲存和 SPARQL
**** 施工中
**** 施工中
**** 施工中

**** 語義網路
***** 施工中
***** 施工中
***** 施工中

**** RDF 資料模型
***** 施工中
***** 施工中
***** 施工中

*** SPARQL 查詢語言
**** 施工中
**** 施工中
**** 施工中

**** 圖形資料庫與網路模型相比較
***** 施工中
***** 施工中
***** 施工中

*** Datalog
**** 施工中
**** 施工中
**** 施工中

@endmindmap

PlantUML version 1.2021.00(Sun Jan 10 18:25:05 CST 2021)
(GPL source distribution)
Java Runtime: OpenJDK Runtime Environment
JVM: OpenJDK 64-Bit Server VM
Default Encoding: UTF-8
Language: zh
Country: TW
--></g></svg>